<?xml version="1.0" encoding="UTF-8" standalone="no"?>
<!-- Created with Inkscape (http://www.inkscape.org/) -->

<svg
   xmlns:dc="http://purl.org/dc/elements/1.1/"
   xmlns:cc="http://creativecommons.org/ns#"
   xmlns:rdf="http://www.w3.org/1999/02/22-rdf-syntax-ns#"
   xmlns:svg="http://www.w3.org/2000/svg"
   xmlns="http://www.w3.org/2000/svg"
   xmlns:sodipodi="http://sodipodi.sourceforge.net/DTD/sodipodi-0.dtd"
   xmlns:inkscape="http://www.inkscape.org/namespaces/inkscape"
   version="1.1"
   id="svg38"
   xml:space="preserve"
   width="1356.0133"
   height="1356.0133"
   viewBox="0 0 1356.0133 1356.0133"
   sodipodi:docname="logo-vector.svg"
   inkscape:version="0.92.3 (2405546, 2018-03-11)"><metadata
     id="metadata44"><rdf:RDF><cc:Work
         rdf:about=""><dc:format>image/svg+xml</dc:format><dc:type
           rdf:resource="http://purl.org/dc/dcmitype/StillImage" /><dc:title></dc:title></cc:Work></rdf:RDF></metadata><defs
     id="defs42"><clipPath
       clipPathUnits="userSpaceOnUse"
       id="clipPath54"><path
         d="M 0,1017.008 H 1017.008 V 0 H 0 Z"
         id="path52"
         inkscape:connector-curvature="0" /></clipPath><clipPath
       clipPathUnits="userSpaceOnUse"
       id="clipPath82"><path
         d="M 0,1017.008 H 1017.008 V 0 H 0 Z"
         id="path80"
         inkscape:connector-curvature="0" /></clipPath></defs><sodipodi:namedview
     pagecolor="#ffffff"
     bordercolor="#666666"
     borderopacity="1"
     objecttolerance="10"
     gridtolerance="10"
     guidetolerance="10"
     inkscape:pageopacity="0"
     inkscape:pageshadow="2"
     inkscape:window-width="2560"
     inkscape:window-height="1406"
     id="namedview40"
     showgrid="false"
     inkscape:zoom="0.43620516"
     inkscape:cx="282.44641"
     inkscape:cy="406.96319"
     inkscape:window-x="-11"
     inkscape:window-y="-11"
     inkscape:window-maximized="1"
     inkscape:current-layer="g46" /><g
     id="g46"
     inkscape:groupmode="layer"
     inkscape:label="Lucy Edge"
     transform="matrix(1.3333333,0,0,-1.3333333,0,1356.0133)"><g
       id="g48"><g
         id="g50"
         clip-path="url(#clipPath54)"><g
           id="g56"
           transform="translate(484.3687,415.29)"><path
             d="m 0,0 c -24.639,5.212 -88.32,22.162 -141.706,79.522 -72.068,77.434 -72.162,171.334 -71.701,191.795 49.991,-10.117 106.991,-32.364 145.739,-81.36 2.183,-2.761 4.265,-5.552 6.251,-8.371 0.387,-34.51 6.365,-105.466 53.821,-172.604"
             style="fill:#d32556;fill-opacity:1;fill-rule:nonzero;stroke:none"
             id="path58"
             inkscape:connector-curvature="0" /></g><g
           id="g60"
           transform="translate(508.4902,415.6309)"><path
             d="m 0,0 c 24.663,5.096 88.424,21.743 142.081,78.85 72.435,77.091 72.973,170.99 72.609,191.453 -50.039,-9.88 -107.143,-31.857 -146.123,-80.669 -2.195,-2.75 -4.291,-5.532 -6.291,-8.341 C 61.727,146.786 55.412,75.858 7.639,8.946"
             style="fill:#d32556;fill-opacity:1;fill-rule:nonzero;stroke:none"
             id="path62"
             inkscape:connector-curvature="0" /></g><g
           id="g64"
           transform="translate(462.7837,413.1641)"><path
             d="m 0,0 c -22.026,-2.839 -102.994,-10.571 -182.583,41.487 -67.898,44.412 -95.512,106.648 -104.333,129.342 l 104.94,-3.661 c 7.894,-21.976 24.096,-58.086 57.019,-92.735 41.779,-43.97 88.234,-62.171 111.612,-69.552"
             style="fill:#d32556;fill-opacity:1;fill-rule:nonzero;stroke:none"
             id="path66"
             inkscape:connector-curvature="0" /></g><g
           id="g68"
           transform="translate(527.6387,411.7031)"><path
             d="m 0,0 c 22.335,-2.862 104.437,-10.657 185.14,41.826 68.849,44.775 96.85,107.518 105.794,130.397 -35.47,-1.23 -70.94,-2.46 -106.41,-3.69 C 176.52,146.377 160.091,109.973 126.707,75.04 84.343,30.711 37.237,12.362 13.532,4.921"
             style="fill:#d32556;fill-opacity:1;fill-rule:nonzero;stroke:none"
             id="path70"
             inkscape:connector-curvature="0" /></g></g></g><text
       transform="matrix(1,0,0,-1,188.6699,266.3672)"
       style="font-variant:normal;font-weight:normal;font-stretch:normal;font-size:120.000003px;font-family:sans-serif;-inkscape-font-specification:'sans-serif, Normal';writing-mode:lr;fill:#d32556;fill-opacity:1;fill-rule:nonzero;stroke:none;font-style:normal;text-anchor:start;text-align:start;font-variant-ligatures:normal;font-variant-caps:normal;font-variant-numeric:normal;font-feature-settings:normal;"
       id="text74"><tspan
         x="0 60 142.56 223.67999 297.35999 332.64001 398.16 479.76001 565.32001"
         y="0"
         sodipodi:role="line"
         id="tspan72">LUCY EDGE</tspan></text>
<g
       id="g76"><g
         id="g78"
         clip-path="url(#clipPath82)"><g
           id="g84"
           transform="translate(496.4946,413.4795)"><path
             d="m 0,0 c -22.328,29.159 -48.402,72.472 -59.57,127.558 -6.44,31.766 -5.461,55.301 -5.18,60.865 1.74,34.477 11.003,59.564 20.072,83.527 8.164,21.571 21.47,50.887 43.383,82.881 17.916,-22.034 39.027,-54.204 52.448,-96.478 11.912,-37.525 12.809,-67.401 12.95,-74.463 0.127,-6.4 0.352,-30.222 -6.476,-61.513 C 47.305,75.07 26.54,36.71 6.475,8.418"
             style="fill:#d32556;fill-opacity:1;fill-rule:nonzero;stroke:none"
             id="path86"
             inkscape:connector-curvature="0" /></g></g></g></g></svg>