<?xml version="1.0" encoding="UTF-8" standalone="no"?>
<svg
   xmlns:dc="http://purl.org/dc/elements/1.1/"
   xmlns:cc="http://creativecommons.org/ns#"
   xmlns:rdf="http://www.w3.org/1999/02/22-rdf-syntax-ns#"
   xmlns:svg="http://www.w3.org/2000/svg"
   xmlns="http://www.w3.org/2000/svg"
   xmlns:sodipodi="http://sodipodi.sourceforge.net/DTD/sodipodi-0.dtd"
   xmlns:inkscape="http://www.inkscape.org/namespaces/inkscape"
   id="svg2"
   version="1"
   viewBox="0 0 1000 1000"
   inkscape:version="0.91 r13725"
   sodipodi:docname="Log.svg">
  <metadata
     id="metadata18">
    <rdf:RDF>
      <cc:Work
         rdf:about="">
        <dc:format>image/svg+xml</dc:format>
        <dc:type
           rdf:resource="http://purl.org/dc/dcmitype/StillImage" />
      </cc:Work>
    </rdf:RDF>
  </metadata>
  <defs
     id="defs16" />
  <sodipodi:namedview
     pagecolor="#ffffff"
     bordercolor="#666666"
     borderopacity="1"
     objecttolerance="10"
     gridtolerance="10"
     guidetolerance="10"
     inkscape:pageopacity="0"
     inkscape:pageshadow="2"
     inkscape:window-width="1920"
     inkscape:window-height="1057"
     id="namedview14"
     showgrid="false"
     inkscape:zoom="0.6675088"
     inkscape:cx="781.56144"
     inkscape:cy="590.85192"
     inkscape:window-x="1912"
     inkscape:window-y="-8"
     inkscape:window-maximized="1"
     inkscape:current-layer="svg2" />
  <style
     id="style4">
    .st0{fill:#7e9da0}.st1{fill:#bcd8d9}
  </style>
  <path
     id="path7"
     d="M 476,593 C 451,588 388,571 334,514 262,436 262,342 263,322 a 242,242 0 0 1 151,90 c 1,34 7,105 54,172"
     class="st0"
     inkscape:connector-curvature="0"
     style="fill:#7e9da0" />
  <path
     id="path11"
     d="M 454,595 C 432,598 351,606 272,554 204,509 176,447 167,424 l 105,4 a 264,264 0 0 0 169,163"
     class="st1"
     inkscape:connector-curvature="0"
     style="fill:#bcd8d9" />
  <path
     id="rect15"
     d="m 129,651 719,0 0,151 -719,0 z"
     inkscape:connector-curvature="0"
     style="fill:none" />
  <text
     id="text17"
     class="st0"
     font-size="120"
     style="font-size:120px;font-family:'Open Sans', Arial, sans-serif;fill:#7e9da0"
     x="168"
     y="743">LUCY EDGE</text>
  <g
     id="Layer_2">
    <path
       style="fill:#ad245f"
       inkscape:connector-curvature="0"
       d="m 488,595 c -22,-29 -48,-72 -60,-128 -6,-31 -5,-55 -5,-61 a 394,394 0 0 1 64,-166 294,294 0 0 1 65,171 c 0,7 1,30 -6,62 -11,47 -31,85 -52,114"
       id="path20" />
  </g>
  <path
     id="path7-6"
     d="m 499.01012,595.80674 c 25,-5 88,-22 142,-79 72,-78 72,-172 71,-192 a 242,242 0 0 0 -151,90 c -1,34 -7,105 -54,172"
     class="st0"
     inkscape:connector-curvature="0"
     style="fill:#7e9da0" />
  <path
     id="path11-4"
     d="m 522.40882,596.7179 c 22,3 103,11 182,-41 68,-45 96,-107 105,-130 l -105,4 a 264,264 0 0 1 -169,163"
     class="st1"
     inkscape:connector-curvature="0"
     style="fill:#bcd8d9" />
</svg>
