<?xml version="1.0" encoding="utf-8"?>
<!-- Generator: Adobe Illustrator 22.1.0, SVG Export Plug-In . SVG Version: 6.00 Build 0)  -->
<svg version="1.1" xmlns="http://www.w3.org/2000/svg" xmlns:xlink="http://www.w3.org/1999/xlink" x="0px" y="0px"
	 viewBox="0 0 1000 1000" style="enable-background:new 0 0 1000 1000;" xml:space="preserve">
<style type="text/css">
	.st0{fill:#D32455;}
	.st1{fill:none;}
	.st2{font-family:'Europa-Bold';}
	.st3{font-size:120px;}
</style>
<g id="Layer_1">
	<path class="st0" d="M475.9,593.2c-24.6-5.2-88.3-22.2-141.7-79.5c-72.1-77.4-72.2-171.3-71.7-191.8c50,10.1,107,32.4,145.7,81.4
		c2.2,2.8,4.3,5.6,6.3,8.4c0.4,34.5,6.4,105.5,53.8,172.6"/>
	<path class="st0" d="M500,592.9c24.7-5.1,88.4-21.7,142.1-78.9c72.4-77.1,73-171,72.6-191.5c-50,9.9-107.1,31.9-146.1,80.7
		c-2.2,2.8-4.3,5.5-6.3,8.3c-0.5,34.5-6.9,105.4-54.6,172.3"/>
	<path class="st0" d="M454.3,595.3c-22,2.8-103,10.6-182.6-41.5c-67.9-44.4-95.5-106.6-104.3-129.3c35,1.2,70,2.4,104.9,3.7
		c7.9,22,24.1,58.1,57,92.7c41.8,44,88.2,62.2,111.6,69.6"/>
	<path class="st0" d="M519.1,596.8c22.3,2.9,104.4,10.7,185.1-41.8c68.8-44.8,96.9-107.5,105.8-130.4c-35.5,1.2-70.9,2.5-106.4,3.7
		c-8,22.2-24.4,58.6-57.8,93.5c-42.4,44.3-89.5,62.7-113.2,70.1"/>
	<rect x="129.3" y="651.4" class="st1" width="718.5" height="150.5"/>
	<text transform="matrix(1 0 0 1 173.1659 742.137)" class="st0 st2 st3">LUCY EDGE</text>
</g>
<g id="Layer_2">
	<path class="st0" d="M488,595c-22.3-29.2-48.4-72.5-59.6-127.6c-6.4-31.8-5.5-55.3-5.2-60.9c1.7-34.5,11-59.6,20.1-83.5
		c8.2-21.6,21.5-50.9,43.4-82.9c17.9,22,39,54.2,52.4,96.5c11.9,37.5,12.8,67.4,13,74.5c0.1,6.4,0.4,30.2-6.5,61.5
		c-10.3,47.3-31.1,85.7-51.2,114"/>
</g>
</svg>
