<?xml version="1.0" encoding="UTF-8" standalone="no"?>
<svg
   xmlns:dc="http://purl.org/dc/elements/1.1/"
   xmlns:cc="http://creativecommons.org/ns#"
   xmlns:rdf="http://www.w3.org/1999/02/22-rdf-syntax-ns#"
   xmlns:svg="http://www.w3.org/2000/svg"
   xmlns="http://www.w3.org/2000/svg"
   xmlns:sodipodi="http://sodipodi.sourceforge.net/DTD/sodipodi-0.dtd"
   xmlns:inkscape="http://www.inkscape.org/namespaces/inkscape"
   version="1.0"
   width="30"
   height="30"
   viewBox="0 0 300 300"
   preserveAspectRatio="xMidYMid meet"
   id="svg52"
   sodipodi:docname="logoMobile.svg"
   inkscape:version="0.92.3 (2405546, 2018-03-11)">
  <metadata
     id="metadata58">
    <rdf:RDF>
      <cc:Work
         rdf:about="">
        <dc:format>image/svg+xml</dc:format>
        <dc:type
           rdf:resource="http://purl.org/dc/dcmitype/StillImage" />
        <dc:title></dc:title>
      </cc:Work>
    </rdf:RDF>
  </metadata>
  <defs
     id="defs56" />
  <sodipodi:namedview
     pagecolor="#ffffff"
     bordercolor="#666666"
     borderopacity="1"
     objecttolerance="10"
     gridtolerance="10"
     guidetolerance="10"
     inkscape:pageopacity="0"
     inkscape:pageshadow="2"
     inkscape:window-width="2560"
     inkscape:window-height="1406"
     id="namedview54"
     showgrid="false"
     inkscape:zoom="8.9001173"
     inkscape:cx="11.255509"
     inkscape:cy="2.7015515"
     inkscape:window-x="-11"
     inkscape:window-y="-11"
     inkscape:window-maximized="1"
     inkscape:current-layer="svg52" />
  <g
     id="layer101"
     style="fill:#942e50;stroke:none"
     transform="matrix(0.10001187,0,0,0.10001187,0.93510563,-0.78493691)">
    <path
       d="M 0,1500 V 0 H 1500 3000 V 1500 3000 H 1500 0 Z"
       id="path2"
       inkscape:connector-curvature="0" />
  </g>
  <g
     id="layer102"
     style="fill:#ac224e;stroke:none"
     transform="matrix(0.10001187,0,0,0.10001187,0.93510563,-0.78493691)">
    <path
       d="M 0,1500 V 0 H 1500 3000 V 1500 3000 H 1500 0 Z m 1463,598 c -116,-153 -193,-411 -177,-598 7,-81 30,-201 51,-260 29,-81 123,-268 155,-308 6,-7 8,-15 5,-18 -8,-8 -65,83 -114,181 -79,158 -113,294 -113,454 0,153 27,270 96,417 35,75 121,200 131,190 3,-3 -12,-29 -34,-58 z"
       id="path5"
       inkscape:connector-curvature="0" />
  </g>
  <g
     id="layer103"
     style="fill:#b73b64;stroke:none"
     transform="matrix(0.10001187,0,0,0.10001187,0.93510563,-0.78493691)">
    <path
       d="M 0,1500 V 0 H 1500 3000 V 1500 3000 H 1500 0 Z m 1500,33 -1,-628 -24,30 c -34,41 -128,227 -155,305 -33,99 -50,201 -50,309 0,153 27,270 96,417 30,64 116,194 129,194 3,0 5,-282 5,-627 z"
       id="path8"
       inkscape:connector-curvature="0" />
  </g>
  <g
     id="layer104"
     style="fill:#d52c61;stroke:none"
     transform="matrix(0.10001187,0,0,0.10001187,0.93510563,-0.78493691)">
    <path
       d="M 0,1500 V 0 H 1500 3000 V 1500 3000 H 1500 0 Z m 1574,549 c 107,-190 143,-319 143,-502 0,-67 -3,-131 -7,-142 -4,-11 -7,48 -7,130 1,169 -17,257 -79,392 -35,75 -97,177 -114,188 -7,4 -10,-189 -10,-586 0,-592 0,-592 20,-574 20,18 20,18 4,-13 -8,-18 -20,-32 -25,-32 -23,0 -139,214 -178,330 -66,189 -69,404 -9,590 31,96 82,199 133,269 l 45,61 30,-33 c 16,-18 40,-53 54,-78 z m 122,-711 c -7,-43 -36,-135 -61,-193 -7,-16 -21,-48 -30,-70 -9,-22 -28,-53 -42,-70 -22,-26 -20,-20 10,35 38,72 102,244 112,303 3,20 9,37 12,37 3,0 3,-19 -1,-42 z"
       id="path11"
       inkscape:connector-curvature="0" />
  </g>
  <g
     id="layer105"
     style="fill:#b64d74;stroke:none"
     transform="matrix(0.10001187,0,0,0.10001187,0.93510563,-0.78493691)">
    <path
       d="M 0,1500 V 0 H 1500 3000 V 1500 3000 H 1500 0 Z m 1574,549 c 68,-121 87,-167 119,-288 21,-80 25,-112 23,-220 -4,-159 -26,-267 -81,-396 -7,-16 -21,-49 -30,-71 -9,-23 -31,-57 -48,-75 -17,-19 -30,-36 -30,-39 2,-14 -18,-50 -27,-50 -24,0 -139,212 -179,330 -66,189 -69,404 -9,590 31,96 82,199 133,269 l 45,61 30,-33 c 16,-18 40,-53 54,-78 z"
       id="path14"
       inkscape:connector-curvature="0" />
  </g>
  <g
     id="layer106"
     style="fill:#c7753d;stroke:none"
     transform="matrix(0.10001187,0,0,0.10001187,0.93510563,-0.78493691)">
    <path
       d="M 0,1500 V 0 H 1500 3000 V 1500 3000 H 1500 0 Z m 1565,566 c 196,-314 209,-658 38,-996 -27,-52 -54,-94 -60,-93 -7,2 -10,-3 -8,-10 3,-6 -4,-23 -15,-37 l -20,-25 -25,30 c -34,41 -128,227 -155,305 -65,191 -68,405 -8,590 31,96 82,199 133,269 54,73 53,73 120,-33 z m -155,65 c 0,-18 -83,-140 -92,-135 -4,3 1,18 12,34 11,15 20,31 20,35 0,3 7,13 15,22 9,8 14,18 11,21 -8,7 -66,-19 -66,-30 0,-6 -11,-7 -24,-4 -16,4 -35,-3 -63,-23 -22,-16 -49,-32 -61,-35 -12,-4 -22,-12 -22,-17 0,-5 -6,-9 -12,-9 -7,0 -28,-16 -47,-35 -19,-19 -40,-35 -47,-35 -8,0 -14,-7 -14,-16 0,-9 -9,-18 -19,-21 -45,-12 -188,-255 -226,-383 -18,-63 -48,-287 -41,-307 3,-7 -1,-13 -10,-13 -29,0 -5,195 42,345 84,268 264,464 533,582 77,33 111,41 111,24 z m 266,-16 c 342,-129 583,-463 599,-830 3,-77 2,-90 -5,-57 -5,23 -12,71 -15,106 -3,35 -12,83 -20,106 -8,23 -15,50 -15,59 0,9 -7,30 -16,46 -9,17 -23,50 -31,74 -8,25 -23,56 -33,70 -10,14 -34,51 -53,81 -55,84 -193,220 -223,220 -8,0 -14,5 -14,12 0,6 -3,9 -6,5 -3,-3 -26,10 -51,29 -24,19 -52,34 -62,34 -9,0 -21,4 -26,8 -14,13 -95,43 -95,36 0,-3 9,-18 20,-34 11,-15 17,-30 13,-34 -6,-6 -63,72 -63,87 0,13 28,8 96,-18 z m -636,-245 c 0,-5 -4,-10 -10,-10 -5,0 -10,5 -10,10 0,6 5,10 10,10 6,0 10,-4 10,-10 z"
       id="path17"
       inkscape:connector-curvature="0" />
  </g>
  <g
     id="layer107"
     style="fill:#b8794e;stroke:none"
     transform="matrix(0.10001187,0,0,0.10001187,0.93510563,-0.78493691)">
    <path
       d="M 0,1500 V 0 H 1500 3000 V 1500 3000 H 1500 0 Z m 1290,655 c 0,-2 -30,-19 -67,-38 -146,-73 -281,-178 -304,-235 -5,-13 -13,-20 -19,-17 -9,6 -61,-23 -352,-196 -120,-72 -158,-91 -158,-83 0,14 75,140 117,199 43,59 200,215 216,215 5,0 23,11 41,25 49,37 174,91 257,110 41,9 79,18 84,20 16,5 185,5 185,0 z m 275,-89 c 196,-314 209,-658 38,-996 -27,-52 -54,-94 -60,-93 -7,2 -10,-3 -8,-10 3,-6 -4,-23 -15,-37 l -20,-25 -25,30 c -34,41 -128,227 -155,305 -65,191 -68,405 -8,590 31,96 82,199 133,269 54,73 53,73 120,-33 z m 366,79 c 42,-8 96,-21 120,-30 24,-9 53,-19 64,-22 31,-10 125,-63 185,-106 56,-40 190,-173 190,-188 0,-4 11,-20 25,-35 28,-30 109,-173 102,-180 -2,-3 -60,28 -128,69 -278,166 -368,217 -383,217 -9,0 -16,7 -16,15 0,8 -7,15 -15,15 -8,0 -15,5 -15,11 0,28 -177,160 -267,199 -86,37 -88,50 -7,50 38,0 103,-7 145,-15 z m -521,-14 c 0,-18 -83,-140 -92,-135 -4,3 1,18 12,34 11,15 20,31 20,35 0,3 7,13 15,22 9,8 14,18 11,21 -8,7 -66,-19 -66,-30 0,-6 -11,-7 -24,-4 -16,4 -35,-3 -63,-23 -22,-16 -49,-32 -61,-35 -12,-4 -22,-12 -22,-17 0,-5 -6,-9 -12,-9 -7,0 -28,-16 -47,-35 -19,-19 -40,-35 -47,-35 -8,0 -14,-7 -14,-16 0,-9 -9,-18 -19,-21 -45,-12 -188,-255 -226,-383 -18,-63 -48,-287 -41,-307 3,-7 -1,-13 -10,-13 -29,0 -5,195 42,345 84,268 264,464 533,582 77,33 111,41 111,24 z m 266,-16 c 342,-129 583,-463 599,-830 3,-77 2,-90 -5,-57 -5,23 -12,71 -15,106 -3,35 -12,83 -20,106 -8,23 -15,50 -15,59 0,9 -7,30 -16,46 -9,17 -23,50 -31,74 -8,25 -23,56 -33,70 -10,14 -34,51 -53,81 -55,84 -193,220 -223,220 -8,0 -14,5 -14,12 0,6 -3,9 -6,5 -3,-3 -26,10 -51,29 -24,19 -52,34 -62,34 -9,0 -21,4 -26,8 -14,13 -95,43 -95,36 0,-3 9,-18 20,-34 11,-15 17,-30 13,-34 -6,-6 -63,72 -63,87 0,13 28,8 96,-18 z m -636,-245 c 0,-5 -4,-10 -10,-10 -5,0 -10,5 -10,10 0,6 5,10 10,10 6,0 10,-4 10,-10 z"
       id="path20"
       inkscape:connector-curvature="0" />
  </g>
  <g
     id="layer108"
     style="fill:#c54675;stroke:none"
     transform="matrix(0.10001187,0,0,0.10001187,0.93510563,-0.78493691)">
    <path
       d="M 0,1500 V 0 H 1500 3000 V 1500 3000 H 1500 0 Z m 1360,667 c 0,-8 -19,-20 -42,-27 -106,-31 -247,-119 -349,-217 -36,-35 -68,-60 -72,-57 -3,3 -61,-27 -129,-67 -68,-40 -175,-103 -238,-140 -63,-37 -123,-74 -133,-84 -36,-32 -36,-9 0,60 146,286 393,476 688,530 99,18 275,19 275,2 z m 546,-2 c 241,-42 430,-152 584,-342 75,-93 170,-263 147,-263 -9,0 -17,4 -19,9 -5,14 -490,301 -508,301 -7,0 -41,27 -77,60 -98,89 -202,154 -331,208 -30,12 -51,26 -47,32 9,15 150,12 251,-5 z m -341,-99 c 196,-314 209,-658 38,-996 -27,-52 -54,-94 -60,-93 -7,2 -10,-3 -8,-10 3,-6 -4,-23 -15,-37 l -20,-25 -25,30 c -34,41 -128,227 -155,305 -65,191 -68,405 -8,590 31,96 82,199 133,269 54,73 53,73 120,-33 z m -155,65 c 0,-18 -83,-140 -92,-135 -4,3 1,18 12,34 11,15 20,31 20,35 0,3 7,13 15,22 9,8 14,18 11,21 -8,7 -66,-19 -66,-30 0,-6 -11,-7 -24,-4 -16,4 -35,-3 -63,-23 -22,-16 -49,-32 -61,-35 -12,-4 -22,-12 -22,-17 0,-5 -6,-9 -12,-9 -7,0 -28,-16 -47,-35 -19,-19 -40,-35 -47,-35 -8,0 -14,-7 -14,-16 0,-9 -9,-18 -19,-21 -45,-12 -188,-255 -226,-383 -18,-63 -48,-287 -41,-307 3,-7 -1,-13 -10,-13 -29,0 -5,195 42,345 84,268 264,464 533,582 77,33 111,41 111,24 z m 266,-16 c 342,-129 583,-463 599,-830 3,-77 2,-90 -5,-57 -5,23 -12,71 -15,106 -3,35 -12,83 -20,106 -8,23 -15,50 -15,59 0,9 -7,30 -16,46 -9,17 -23,50 -31,74 -8,25 -23,56 -33,70 -10,14 -34,51 -53,81 -55,84 -193,220 -223,220 -8,0 -14,5 -14,12 0,6 -3,9 -6,5 -3,-3 -26,10 -51,29 -24,19 -52,34 -62,34 -9,0 -21,4 -26,8 -14,13 -95,43 -95,36 0,-3 9,-18 20,-34 11,-15 17,-30 13,-34 -6,-6 -63,72 -63,87 0,13 28,8 96,-18 z m -636,-245 c 0,-5 -4,-10 -10,-10 -5,0 -10,5 -10,10 0,6 5,10 10,10 6,0 10,-4 10,-10 z"
       id="path23"
       inkscape:connector-curvature="0" />
  </g>
  <g
     id="layer109"
     style="fill:#e35e90;stroke:none"
     transform="matrix(0.10001187,0,0,0.10001187,0.93510563,-0.78493691)">
    <path
       d="M 0,1500 V 0 H 1500 3000 V 1500 3000 H 1500 0 Z m 1360,667 c 0,-8 -19,-20 -42,-27 -106,-31 -247,-119 -349,-217 -36,-35 -68,-60 -72,-57 -3,3 -61,-27 -129,-67 -68,-40 -175,-103 -238,-140 -63,-37 -123,-74 -133,-84 -36,-32 -36,-9 0,60 146,286 393,476 688,530 99,18 275,19 275,2 z m 546,-2 c 241,-42 430,-152 584,-342 75,-93 170,-263 147,-263 -9,0 -17,4 -19,9 -5,14 -490,301 -508,301 -7,0 -41,27 -77,60 -98,89 -202,154 -331,208 -30,12 -51,26 -47,32 9,15 150,12 251,-5 z m -340,-101 c 63,-102 110,-212 135,-322 18,-79 21,-112 16,-230 -6,-157 -26,-246 -87,-386 -41,-92 -116,-216 -131,-216 -23,0 -139,216 -178,330 -66,189 -69,404 -9,590 31,96 82,199 133,269 54,73 53,74 121,-35 z m -156,66 c 0,-14 -76,-131 -104,-160 -13,-14 -90,-115 -172,-225 -81,-110 -197,-267 -259,-350 -134,-179 -147,-200 -138,-208 3,-4 -2,-7 -12,-7 -16,0 -17,7 -11,78 14,163 53,301 122,430 102,193 247,324 463,419 78,33 111,41 111,23 z m 266,-15 c 341,-128 578,-455 601,-827 3,-54 3,-98 0,-98 -3,0 -31,37 -63,83 -32,45 -62,87 -67,92 -9,11 -93,123 -223,300 -45,61 -120,163 -168,228 -47,64 -90,117 -95,117 -8,0 -81,112 -81,124 0,12 30,6 96,-19 z"
       id="path26"
       inkscape:connector-curvature="0" />
  </g>
  <g
     id="layer110"
     style="fill:#f7944f;stroke:none"
     transform="matrix(0.10001187,0,0,0.10001187,0.93510563,-0.78493691)">
    <path
       d="M 0,1500 V 0 H 1500 3000 V 1500 3000 H 1500 0 Z m 1360,667 c 0,-8 -19,-20 -42,-27 -106,-31 -247,-119 -349,-217 -36,-35 -68,-60 -72,-57 -3,3 -61,-27 -129,-67 -68,-40 -175,-103 -238,-140 -63,-37 -123,-74 -133,-84 -36,-32 -36,-9 0,60 146,286 393,476 688,530 99,18 275,19 275,2 z m 546,-2 c 241,-42 430,-152 584,-342 75,-93 170,-263 147,-263 -9,0 -17,4 -19,9 -5,14 -490,301 -508,301 -7,0 -41,27 -77,60 -98,89 -202,154 -331,208 -30,12 -51,26 -47,32 9,15 150,12 251,-5 z m -340,-101 c 63,-102 110,-212 135,-322 18,-79 21,-112 16,-230 -6,-157 -26,-246 -87,-386 -41,-92 -116,-216 -131,-216 -23,0 -139,216 -178,330 -66,189 -69,404 -9,590 31,96 82,199 133,269 54,73 53,74 121,-35 z m -156,65 c 0,-6 -13,-29 -29,-52 -61,-90 -109,-209 -131,-327 -13,-66 -30,-102 -30,-63 0,33 29,162 41,184 6,11 9,25 7,31 -2,6 -33,-29 -68,-78 -36,-49 -93,-126 -127,-171 -35,-46 -61,-83 -59,-83 3,0 -5,-11 -17,-24 -12,-13 -53,-68 -92,-122 -38,-54 -89,-123 -113,-153 -24,-29 -41,-55 -38,-58 5,-5 39,9 181,79 79,38 115,58 125,68 3,3 23,18 45,35 50,37 81,68 77,78 -1,4 5,7 13,7 12,0 15,15 15,74 0,41 5,78 10,81 6,4 10,-23 10,-73 v -79 l -42,-39 c -63,-58 -143,-115 -228,-162 -76,-42 -219,-102 -240,-102 -25,0 3,208 46,345 84,268 264,464 533,582 79,34 111,41 111,22 z m 266,-14 c 341,-128 578,-455 601,-827 l 6,-98 h -24 c -30,0 -195,74 -279,125 -34,21 -96,65 -136,97 l -74,60 v 84 c 0,58 3,83 11,79 6,-4 9,-36 8,-76 -2,-68 -2,-69 37,-106 22,-21 53,-47 69,-58 15,-11 33,-25 39,-31 6,-5 18,-13 26,-17 8,-4 33,-18 55,-32 43,-26 57,-33 155,-76 71,-31 88,-24 48,19 -14,15 -78,101 -144,190 -65,90 -151,207 -191,260 -40,54 -91,126 -115,160 -45,67 -61,68 -34,1 9,-21 16,-48 16,-58 0,-11 4,-21 9,-23 13,-5 25,-138 12,-138 -6,0 -11,12 -11,28 -1,83 -70,274 -142,388 -21,34 -38,64 -38,68 0,12 30,6 96,-19 z"
       id="path29"
       inkscape:connector-curvature="0" />
  </g>
  <g
     id="layer111"
     style="fill:#f55a93;stroke:none"
     transform="matrix(0.10001187,0,0,0.10001187,0.93510563,-0.78493691)">
    <path
       d="M 0,1500 V 0 H 1500 3000 V 1500 3000 H 1500 0 Z m 1360,667 c 0,-8 -19,-20 -42,-27 -217,-64 -466,-292 -551,-503 -11,-29 -23,-55 -26,-59 -13,-14 -208,-29 -293,-21 l -87,8 36,70 c 146,286 393,476 688,530 99,18 275,19 275,2 z m 546,-2 c 49,-9 118,-25 154,-36 217,-70 425,-253 543,-477 l 47,-89 -46,-7 c -68,-9 -158,-6 -249,7 l -80,12 -50,96 c -28,53 -65,114 -83,136 -18,23 -32,45 -33,49 -1,14 -141,134 -206,176 -56,38 -137,79 -216,112 -21,9 -36,20 -32,26 9,15 150,12 251,-5 z m -340,-101 c 63,-102 110,-212 135,-322 18,-79 21,-112 16,-230 -6,-157 -26,-246 -87,-386 -41,-92 -116,-216 -131,-216 -23,0 -139,216 -178,330 -66,189 -69,404 -9,590 31,96 82,199 133,269 54,73 53,74 121,-35 z m -156,65 c 0,-6 -13,-29 -29,-52 -61,-90 -109,-209 -131,-327 -13,-66 -30,-102 -30,-63 0,33 29,162 41,184 6,11 9,25 7,31 -2,6 -33,-29 -68,-78 -36,-49 -93,-126 -127,-171 -35,-46 -61,-83 -59,-83 3,0 -5,-11 -17,-24 -12,-13 -53,-68 -92,-122 -38,-54 -89,-123 -113,-153 -24,-29 -41,-55 -38,-58 5,-5 39,9 181,79 79,38 115,58 125,68 3,3 23,18 45,35 50,37 81,68 77,78 -1,4 5,7 13,7 12,0 15,15 15,74 0,41 5,78 10,81 6,4 10,-23 10,-73 v -79 l -42,-39 c -63,-58 -143,-115 -228,-162 -76,-42 -219,-102 -240,-102 -25,0 3,208 46,345 84,268 264,464 533,582 79,34 111,41 111,22 z m 266,-14 c 341,-128 578,-455 601,-827 l 6,-98 h -24 c -30,0 -195,74 -279,125 -34,21 -96,65 -136,97 l -74,60 v 84 c 0,58 3,83 11,79 6,-4 9,-36 8,-76 -2,-68 -2,-69 37,-106 22,-21 53,-47 69,-58 15,-11 33,-25 39,-31 6,-5 18,-13 26,-17 8,-4 33,-18 55,-32 43,-26 57,-33 155,-76 71,-31 88,-24 48,19 -14,15 -78,101 -144,190 -65,90 -151,207 -191,260 -40,54 -91,126 -115,160 -45,67 -61,68 -34,1 9,-21 16,-48 16,-58 0,-11 4,-21 9,-23 13,-5 25,-138 12,-138 -6,0 -11,12 -11,28 -1,83 -70,274 -142,388 -21,34 -38,64 -38,68 0,12 30,6 96,-19 z"
       id="path32"
       inkscape:connector-curvature="0" />
  </g>
  <g
     id="layer112"
     style="fill:#ffd7eb;stroke:none"
     transform="matrix(0.10001187,0,0,0.10001187,0.93510563,-0.78493691)">
    <path
       d="M 0,1500 V 0 H 1500 3000 V 1500 3000 H 1500 0 Z m 1360,667 c 0,-8 -19,-20 -42,-27 -217,-64 -466,-292 -551,-503 -11,-29 -23,-55 -26,-59 -13,-14 -208,-29 -293,-21 l -87,8 36,70 c 146,286 393,476 688,530 99,18 275,19 275,2 z m 546,-2 c 49,-9 118,-25 154,-36 217,-70 425,-253 543,-477 l 47,-89 -46,-7 c -68,-9 -158,-6 -249,7 l -80,12 -50,96 c -28,53 -65,114 -83,136 -18,23 -32,45 -33,49 -1,14 -141,134 -206,176 -56,38 -137,79 -216,112 -21,9 -36,20 -32,26 9,15 150,12 251,-5 z m -340,-101 c 63,-102 110,-212 135,-322 18,-79 21,-112 16,-230 -6,-157 -26,-246 -87,-386 -41,-92 -116,-216 -131,-216 -23,0 -139,216 -178,330 -66,189 -69,404 -9,590 31,96 82,199 133,269 54,73 53,74 121,-35 z m -156,65 c 0,-6 -13,-29 -29,-52 -91,-134 -150,-331 -151,-502 v -91 l -42,-41 c -60,-57 -141,-114 -228,-161 -77,-42 -219,-102 -240,-102 -25,0 3,208 46,345 84,268 264,464 533,582 79,34 111,41 111,22 z m 266,-14 c 341,-128 578,-455 601,-827 l 6,-98 h -24 c -30,0 -195,74 -279,125 -34,21 -95,64 -135,96 l -72,58 -6,118 c -3,65 -13,147 -22,183 -21,84 -78,219 -127,296 -21,34 -38,64 -38,68 0,12 30,6 96,-19 z"
       id="path35"
       inkscape:connector-curvature="0" />
  </g>
  <g
     id="layer113"
     style="fill:#ffefd8;stroke:none"
     transform="matrix(0.10001187,0,0,0.10001187,0.93510563,-0.78493691)">
    <path
       d="M 0,1500 V 0 H 1500 3000 V 1500 3000 H 1500 0 Z m 1360,667 c 0,-8 -19,-20 -42,-27 -217,-64 -466,-292 -551,-503 -11,-29 -23,-55 -26,-59 -13,-14 -208,-29 -293,-21 l -87,8 36,70 c 146,286 393,476 688,530 99,18 275,19 275,2 z m 546,-2 c 49,-9 118,-25 154,-36 217,-70 425,-253 543,-477 l 47,-89 -46,-7 c -68,-9 -158,-6 -249,7 l -80,12 -50,96 c -28,53 -65,114 -83,136 -18,23 -32,45 -33,49 -1,14 -141,134 -206,176 -56,38 -137,79 -216,112 -21,9 -36,20 -32,26 9,15 150,12 251,-5 z m -479,-5 c 8,0 13,-6 10,-12 -2,-7 -9,-12 -15,-11 -6,2 -9,-4 -6,-12 4,-8 -1,-17 -10,-21 -9,-3 -16,-11 -16,-18 0,-6 -14,-29 -30,-50 -17,-22 -30,-45 -30,-52 0,-7 -13,-46 -30,-87 -26,-67 -41,-118 -54,-197 -3,-14 -5,-25 -6,-25 -1,0 -3,-43 -4,-95 l -1,-95 -55,-55 c -62,-62 -119,-104 -200,-144 -30,-15 -76,-39 -102,-52 -40,-21 -152,-64 -165,-64 -7,0 5,208 12,220 4,6 9,26 11,45 9,73 79,255 104,270 5,3 10,12 10,20 0,19 58,104 81,118 11,7 19,16 19,21 0,12 71,86 81,86 4,0 20,12 36,28 46,43 71,61 77,55 3,-4 6,-1 6,5 0,7 7,12 15,12 8,0 15,5 15,10 0,6 3,9 8,8 4,-1 30,9 57,23 28,14 74,34 102,44 37,13 49,22 40,28 -8,6 -6,7 6,3 10,-3 25,-6 34,-6 z m 116,-46 c 15,-21 36,-55 45,-74 10,-19 25,-46 34,-60 26,-38 79,-177 82,-214 2,-18 6,-38 10,-44 9,-15 15,-289 7,-298 -3,-3 -7,-15 -8,-27 -5,-65 -15,-112 -37,-176 -31,-89 -104,-236 -132,-266 -12,-13 -24,-30 -27,-39 -11,-27 -35,-7 -81,68 -69,110 -139,278 -151,362 -2,16 -7,47 -11,69 -7,44 -7,223 0,270 11,78 17,103 37,164 28,85 77,185 123,249 54,74 66,76 109,16 z m 40,39 c 4,-3 19,-8 34,-9 34,-4 199,-83 260,-126 26,-17 90,-76 143,-129 76,-78 104,-115 139,-186 52,-103 53,-105 85,-204 27,-84 38,-159 40,-262 1,-67 1,-68 -24,-62 -14,3 -60,23 -103,45 -43,22 -83,40 -89,40 -13,0 -185,106 -205,126 -8,8 -19,14 -24,14 -5,0 -9,6 -9,13 0,7 -10,17 -22,22 -36,16 -48,53 -47,140 0,44 -4,105 -10,135 -15,74 -61,221 -77,240 -6,8 -24,40 -39,70 -15,30 -38,69 -51,86 -24,31 -31,54 -16,54 5,0 12,-3 15,-7 z"
       id="path38"
       inkscape:connector-curvature="0" />
  </g>
  <g
     id="layer114"
     style="fill:#ffffff;stroke:none"
     transform="matrix(0.10001187,0,0,0.10001187,0.93510563,-0.78493691)">
    <path
       d="M 0,1500 V 0 H 1500 3000 V 1500 3000 H 1500 0 Z m 1355,680 c 4,-6 16,-8 27,-4 16,5 20,3 15,-8 -4,-11 1,-14 20,-10 19,4 24,1 21,-9 -3,-8 -10,-13 -16,-12 -6,2 -9,-4 -6,-12 4,-8 -1,-17 -10,-21 -9,-3 -16,-11 -16,-18 0,-6 -14,-29 -30,-50 -17,-22 -30,-45 -30,-52 0,-7 -13,-46 -30,-87 -26,-67 -41,-118 -54,-197 -3,-14 -5,-25 -6,-25 -1,0 -3,-43 -4,-95 l -1,-95 -55,-55 c -62,-62 -119,-104 -200,-144 -30,-15 -76,-39 -102,-52 -40,-21 -152,-64 -165,-64 -7,0 5,208 12,220 4,6 9,26 11,45 2,20 16,70 30,113 26,76 37,101 94,200 6,9 14,26 19,38 5,11 23,32 40,47 17,14 31,29 31,33 0,12 73,84 85,84 5,0 16,9 23,21 12,18 11,19 -5,10 -74,-40 -231,-244 -278,-359 -22,-54 -25,-58 -71,-70 -31,-8 -102,-11 -194,-10 -141,3 -145,4 -148,25 -3,24 56,147 87,180 10,10 20,24 22,31 8,22 94,118 164,181 39,35 104,83 145,107 94,54 245,105 329,109 35,2 66,6 69,9 10,11 171,6 177,-4 z m 513,-1 c 19,1 38,-2 44,-5 6,-4 28,-9 48,-10 50,-5 208,-61 239,-85 13,-10 29,-19 35,-19 18,-1 111,-72 182,-140 102,-98 239,-306 232,-353 -3,-22 -5,-22 -173,-21 -94,1 -181,6 -196,12 -17,7 -32,26 -44,59 -16,41 -37,79 -98,178 -31,51 -170,182 -244,231 -45,30 -86,54 -92,54 -5,0 -32,11 -59,25 -28,14 -54,25 -58,25 -5,0 32,-22 82,-48 116,-61 149,-85 259,-199 108,-110 161,-204 219,-384 27,-84 38,-159 40,-262 1,-67 1,-68 -24,-62 -14,3 -60,23 -103,45 -43,22 -83,40 -89,40 -13,0 -185,106 -205,126 -8,8 -19,14 -24,14 -5,0 -9,6 -9,13 0,7 -10,17 -22,22 -36,16 -48,53 -47,140 0,44 -4,105 -10,135 -15,74 -61,221 -77,240 -6,8 -24,40 -39,70 -15,30 -38,69 -51,86 -13,17 -24,36 -24,42 0,14 17,16 25,2 9,-15 34,0 28,18 -5,11 -2,14 10,9 9,-3 19,-1 23,5 5,7 36,8 98,4 50,-4 106,-7 124,-7 z m -325,-65 c 15,-21 36,-55 45,-74 10,-19 25,-46 34,-60 26,-38 79,-177 82,-214 2,-18 6,-38 10,-44 9,-15 15,-289 7,-298 -3,-3 -7,-15 -8,-27 -5,-65 -15,-112 -37,-176 -31,-89 -104,-236 -132,-266 -12,-13 -24,-30 -27,-39 -11,-27 -35,-7 -81,68 -69,110 -139,278 -151,362 -2,16 -7,47 -11,69 -7,44 -7,223 0,270 11,78 17,103 37,164 28,85 77,185 123,249 54,74 66,76 109,16 z"
       id="path41"
       inkscape:connector-curvature="0" />
    <path
       d="m 1194,2068 c -4,-7 -3,-8 4,-4 12,7 16,16 8,16 -3,0 -8,-5 -12,-12 z"
       id="path43"
       inkscape:connector-curvature="0" />
    <path
       d="m 1163,2053 c 4,-3 10,-3 14,0 3,4 0,7 -7,7 -7,0 -10,-3 -7,-7 z"
       id="path45"
       inkscape:connector-curvature="0" />
    <path
       d="m 1096,2015 c -11,-8 -16,-15 -10,-15 5,0 18,7 28,15 11,8 16,15 10,15 -5,0 -18,-7 -28,-15 z"
       id="path47"
       inkscape:connector-curvature="0" />
    <path
       d="m 1653,2133 c 4,-3 10,-3 14,0 3,4 0,7 -7,7 -7,0 -10,-3 -7,-7 z"
       id="path49"
       inkscape:connector-curvature="0" />
  </g>
</svg>
