<?xml version="1.0" encoding="UTF-8" standalone="no"?>
<!-- Generator: Adobe Illustrator 22.1.0, SVG Export Plug-In . SVG Version: 6.00 Build 0)  -->

<svg
   xmlns:dc="http://purl.org/dc/elements/1.1/"
   xmlns:cc="http://creativecommons.org/ns#"
   xmlns:rdf="http://www.w3.org/1999/02/22-rdf-syntax-ns#"
   xmlns:svg="http://www.w3.org/2000/svg"
   xmlns="http://www.w3.org/2000/svg"
   xmlns:sodipodi="http://sodipodi.sourceforge.net/DTD/sodipodi-0.dtd"
   xmlns:inkscape="http://www.inkscape.org/namespaces/inkscape"
   version="1.1"
   x="0px"
   y="0px"
   viewBox="0 0 30 30"
   xml:space="preserve"
   id="svg20"
   sodipodi:docname="logoMobile.svg"
   inkscape:version="0.91 r13725"
   width="30"
   height="30"><metadata
   id="metadata26"><rdf:RDF><cc:Work
       rdf:about=""><dc:format>image/svg+xml</dc:format><dc:type
         rdf:resource="http://purl.org/dc/dcmitype/StillImage" /><dc:title /></cc:Work></rdf:RDF></metadata><defs
   id="defs24">
	
	
	
	
	
	
</defs><sodipodi:namedview
   pagecolor="#ffffff"
   bordercolor="#666666"
   borderopacity="1"
   objecttolerance="10"
   gridtolerance="10"
   guidetolerance="10"
   inkscape:pageopacity="0"
   inkscape:pageshadow="2"
   inkscape:window-width="1920"
   inkscape:window-height="1057"
   id="namedview22"
   showgrid="false"
   inkscape:zoom="2.6700353"
   inkscape:cx="-38.487106"
   inkscape:cy="-11.862815"
   inkscape:window-x="1912"
   inkscape:window-y="-8"
   inkscape:window-maximized="1"
   inkscape:current-layer="svg20" />
<style
   type="text/css"
   id="style2">
	.st0{fill:#D32455;}
	.st1{fill:none;}
	.st2{font-family:'Europa-Bold';}
	.st3{font-size:120px;}
</style>


<path
   id="path7"
   d="M 14.88078,18.726413 C 13.788523,18.507961 11.036035,17.765229 8.6767635,15.274885 5.5310674,11.867044 5.5310674,7.760161 5.5747554,6.8863576 A 10.57304,10.57304 0 0 1 12.171984,10.81848 c 0.04369,1.485469 0.305832,4.587477 2.359272,7.514721"
   class="st0"
   inkscape:connector-curvature="0"
   style="fill:#7e9da0" /><path
   id="path11"
   d="m 13.919596,18.813793 c -0.961188,0.131071 -4.5000965,0.480593 -7.9516288,-1.7913 -2.9709351,-1.96606 -4.1942635,-4.674856 -4.5874753,-5.679732 l 4.5874753,0.174764 a 11.534224,11.534224 0 0 0 7.3836528,7.121509"
   class="st1"
   inkscape:connector-curvature="0"
   style="fill:#bcd8d9" /><path
   id="rect15"
   d="m -0.27973635,21.260448 31.41328835,0 0,6.597229 -31.41328835,0 z"
   inkscape:connector-curvature="0"
   style="fill:none" /><text
   id="text17"
   class="st0"
   font-size="120"
   style="font-size:5.24282932px;font-family:'Open Sans', Arial, sans-serif;fill:#7e9da0"
   x="1.4241836"
   y="25.279951">LUCY EDGE</text>
<g
   transform="matrix(0.04369024,0,0,0.04369024,-5.9157759,-7.1819024)"
   id="Layer_2"><path
     style="fill:#ad245f"
     inkscape:connector-curvature="0"
     d="m 488,595 c -22,-29 -48,-72 -60,-128 -6,-31 -5,-55 -5,-61 a 394,394 0 0 1 64,-166 294,294 0 0 1 65,171 c 0,7 1,30 -6,62 -11,47 -31,85 -52,114"
     id="path20" /></g><path
   id="path7-6"
   d="m 15.886098,18.849039 c 1.092257,-0.218449 3.844741,-0.961184 6.204011,-3.451528 3.145701,-3.40784 3.145701,-7.5147193 3.102009,-8.3885276 a 10.57304,10.57304 0 0 0 -6.597224,3.9321236 c -0.0437,1.485468 -0.305833,4.587477 -2.359275,7.51472"
   class="st0"
   inkscape:connector-curvature="0"
   style="fill:#7e9da0" /><path
   id="path11-4"
   d="m 16.908391,18.88885 c 0.961185,0.131069 4.500097,0.480593 7.951625,-1.791299 2.970936,-1.966064 4.194264,-4.674857 4.587475,-5.679733 l -4.587475,0.174761 a 11.534224,11.534224 0 0 1 -7.383652,7.121512"
   class="st1"
   inkscape:connector-curvature="0"
   style="fill:#bcd8d9" /></svg>