<?xml version="1.0" encoding="UTF-8" standalone="no"?>
<!-- Generator: Adobe Illustrator 22.1.0, SVG Export Plug-In . SVG Version: 6.00 Build 0)  -->

<svg
   xmlns:dc="http://purl.org/dc/elements/1.1/"
   xmlns:cc="http://creativecommons.org/ns#"
   xmlns:rdf="http://www.w3.org/1999/02/22-rdf-syntax-ns#"
   xmlns:svg="http://www.w3.org/2000/svg"
   xmlns="http://www.w3.org/2000/svg"
   xmlns:sodipodi="http://sodipodi.sourceforge.net/DTD/sodipodi-0.dtd"
   xmlns:inkscape="http://www.inkscape.org/namespaces/inkscape"
   version="1.1"
   x="0px"
   y="0px"
   viewBox="0 0 30 30"
   xml:space="preserve"
   id="svg20"
   sodipodi:docname="logoMobile.svg"
   inkscape:version="0.92.3 (2405546, 2018-03-11)"
   width="30"
   height="30"><metadata
   id="metadata26"><rdf:RDF><cc:Work
       rdf:about=""><dc:format>image/svg+xml</dc:format><dc:type
         rdf:resource="http://purl.org/dc/dcmitype/StillImage" /><dc:title></dc:title></cc:Work></rdf:RDF></metadata><defs
   id="defs24">
	
	
	
	
	
	
</defs><sodipodi:namedview
   pagecolor="#ffffff"
   bordercolor="#666666"
   borderopacity="1"
   objecttolerance="10"
   gridtolerance="10"
   guidetolerance="10"
   inkscape:pageopacity="0"
   inkscape:pageshadow="2"
   inkscape:window-width="2560"
   inkscape:window-height="1406"
   id="namedview22"
   showgrid="false"
   inkscape:zoom="10.680141"
   inkscape:cx="44.164025"
   inkscape:cy="-18.952651"
   inkscape:window-x="-11"
   inkscape:window-y="-11"
   inkscape:window-maximized="1"
   inkscape:current-layer="svg20" />
<style
   type="text/css"
   id="style2">
	.st0{fill:#D32455;}
	.st1{fill:none;}
	.st2{font-family:'Europa-Bold';}
	.st3{font-size:120px;}
</style>

<g
   id="g19"
   transform="matrix(0.91005709,0,0,0.91005709,1.2601323,0.5212952)"><path
     class="st0"
     d="M 14.5172,23.591386 C 13.401344,23.355513 10.51191,22.584392 8.089686,19.985263 4.8192245,16.474396 4.8146884,12.215089 4.8373714,11.285208 c 2.267998,0.458137 4.8535231,1.469665 6.6089546,3.692306 0.0998,0.127008 0.195047,0.254017 0.285768,0.381026 0.01816,1.564921 0.290307,4.785482 2.440372,7.829141"
     id="path4"
     inkscape:connector-curvature="0"
     style="fill:#d32455;stroke-width:0.04536004" /><path
     class="st0"
     d="m 15.610377,23.577777 c 1.120392,-0.231336 4.009826,-0.984313 6.445661,-3.578907 3.284066,-3.497257 3.311283,-7.756565 3.293141,-8.686446 -2.268003,0.449064 -4.858064,1.446985 -6.627102,3.660555 -0.0998,0.127008 -0.195048,0.24948 -0.28577,0.376488 -0.02267,1.564922 -0.312983,4.780948 -2.476655,7.815534"
     id="path6"
     inkscape:connector-curvature="0"
     style="fill:#d32455;stroke-width:0.04536004" /><path
     class="st0"
     d="M 13.537422,23.686641 C 12.539503,23.813649 8.86534,24.167457 5.2546805,21.8042 2.1747348,19.790214 0.92279904,16.96882 0.52362906,15.939147 c 1.58760164,0.05444 3.17520324,0.10886 4.75826954,0.167833 0.3583452,0.99792 1.0931774,2.635417 2.5855213,4.204875 1.8960495,1.995841 4.0007551,2.821394 5.0621781,3.157058"
     id="path8"
     inkscape:connector-curvature="0"
     style="fill:#d32455;stroke-width:0.04536004" /><path
     class="st0"
     d="m 16.476753,23.75468 c 1.011532,0.131545 4.735587,0.485354 8.396143,-1.896049 3.120768,-2.032129 4.39539,-4.876203 4.799092,-5.914948 -1.610281,0.05444 -3.216025,0.113401 -4.826309,0.167833 -0.362878,1.006992 -1.106785,2.658098 -2.621808,4.241162 -1.923269,2.00945 -4.059722,2.844075 -5.134757,3.17974"
     id="path10"
     inkscape:connector-curvature="0"
     style="fill:#d32455;stroke-width:0.04536004" /><g
     transform="matrix(0.04536004,0,0,0.04536004,-6.8156224,-3.0304182)"
     id="Layer_2">
	<path
   style="fill:#d32455"
   inkscape:connector-curvature="0"
   id="path17"
   d="m 488,595 c -22.3,-29.2 -48.4,-72.5 -59.6,-127.6 -6.4,-31.8 -5.5,-55.3 -5.2,-60.9 1.7,-34.5 11,-59.6 20.1,-83.5 8.2,-21.6 21.5,-50.9 43.4,-82.9 17.9,22 39,54.2 52.4,96.5 11.9,37.5 12.8,67.4 13,74.5 0.1,6.4 0.4,30.2 -6.5,61.5 -10.3,47.3 -31.1,85.7 -51.2,114"
   class="st0" />
</g></g>
</svg>