<?xml version="1.0" encoding="UTF-8" standalone="no"?>
<svg
   xmlns:dc="http://purl.org/dc/elements/1.1/"
   xmlns:cc="http://creativecommons.org/ns#"
   xmlns:rdf="http://www.w3.org/1999/02/22-rdf-syntax-ns#"
   xmlns:svg="http://www.w3.org/2000/svg"
   xmlns="http://www.w3.org/2000/svg"
   xmlns:sodipodi="http://sodipodi.sourceforge.net/DTD/sodipodi-0.dtd"
   xmlns:inkscape="http://www.inkscape.org/namespaces/inkscape"
   version="1.0"
   width="500px"
   height="500px"
   viewBox="0 0 5000 5000"
   preserveAspectRatio="xMidYMid meet"
   id="svg83"
   sodipodi:docname="Log.svg"
   inkscape:version="0.92.3 (2405546, 2018-03-11)">
  <metadata
     id="metadata89">
    <rdf:RDF>
      <cc:Work
         rdf:about="">
        <dc:format>image/svg+xml</dc:format>
        <dc:type
           rdf:resource="http://purl.org/dc/dcmitype/StillImage" />
      </cc:Work>
    </rdf:RDF>
  </metadata>
  <defs
     id="defs87" />
  <sodipodi:namedview
     pagecolor="#ffffff"
     bordercolor="#666666"
     borderopacity="1"
     objecttolerance="10"
     gridtolerance="10"
     guidetolerance="10"
     inkscape:pageopacity="0"
     inkscape:pageshadow="2"
     inkscape:window-width="2560"
     inkscape:window-height="1406"
     id="namedview85"
     showgrid="false"
     inkscape:zoom="0.3337544"
     inkscape:cx="-191.92683"
     inkscape:cy="310.56083"
     inkscape:window-x="-11"
     inkscape:window-y="-11"
     inkscape:window-maximized="1"
     inkscape:current-layer="svg83" />
  <g
     id="layer101"
     transform="matrix(1.220339,0,0,1.220339,-550.8475,-550.8475)"
     style="fill:#992d50;stroke:none">
    <path
       d="M 0,2500 V 0 H 2500 5000 V 2500 5000 H 2500 0 Z"
       id="path2"
       inkscape:connector-curvature="0" />
  </g>
  <g
     id="layer102"
     transform="matrix(1.220339,0,0,1.220339,-550.8475,-550.8475)"
     style="fill:#ac234e;stroke:none">
    <path
       d="M 0,2500 V 0 H 2500 5000 V 2500 5000 H 2500 0 Z m 2490,206 c 0,-3 -5,-8 -12,-12 -7,-4 -8,-3 -4,4 7,12 16,16 16,8 z m -58,-83 c -21,-32 -52,-87 -68,-123 -17,-36 -36,-76 -42,-90 l -12,-25 6,25 c 6,26 10,38 44,110 25,56 37,75 74,123 43,56 42,45 -2,-20 z m -126,-279 c -4,-14 -9,-24 -12,-21 -3,2 -2,17 2,31 3,15 9,25 11,22 3,-3 2,-17 -1,-32 z m -21,-101 c -10,-53 -18,-32 -9,24 4,26 10,40 12,30 2,-11 1,-35 -3,-54 z m -18,-186 c -2,-23 -3,-1 -3,48 0,50 1,68 3,42 2,-26 2,-67 0,-90 z m 21,-137 v -35 l -8,30 c -4,17 -8,41 -8,55 -1,23 0,23 8,5 5,-11 8,-36 8,-55 z m 22,-85 c 0,-17 -2,-17 -10,-5 -5,8 -10,24 -10,35 0,17 2,17 10,5 5,-8 10,-24 10,-35 z m 19,-65 c 0,-10 -3,-8 -9,5 -12,27 -12,43 0,25 5,-8 9,-22 9,-30 z m 21,-46 c 0,-8 -4,-12 -10,-9 -5,3 -10,13 -10,21 0,8 5,12 10,9 6,-3 10,-13 10,-21 z m 30,-66 c 11,-24 34,-65 50,-93 51,-85 65,-113 47,-95 -17,17 -51,72 -68,110 -6,14 -17,32 -25,41 -14,16 -37,79 -29,79 3,0 14,-19 25,-42 z"
       id="path5"
       inkscape:connector-curvature="0" />
  </g>
  <g
     id="layer103"
     transform="matrix(1.220339,0,0,1.220339,-550.8475,-550.8475)"
     style="fill:#b93b63;stroke:none">
    <path
       d="M 0,2500 V 0 H 2500 5000 V 2500 5000 H 2500 0 Z m 2489,-417 c 3,-559 1,-626 -12,-615 -8,7 -23,27 -32,45 -9,18 -27,50 -40,72 -111,185 -165,436 -136,635 12,77 40,189 61,235 33,76 52,113 67,136 17,26 86,119 87,119 1,0 3,-282 5,-627 z"
       id="path8"
       inkscape:connector-curvature="0" />
  </g>
  <g
     id="layer104"
     transform="matrix(1.220339,0,0,1.220339,-550.8475,-550.8475)"
     style="fill:#a0526a;stroke:none">
    <path
       d="M 0,2500 V 0 H 2500 5000 V 2500 5000 H 2500 0 Z m 1298,701 c 11,-7 11,-9 -2,-14 -9,-4 -16,-2 -16,4 0,7 -10,9 -26,5 -17,-5 -23,-3 -19,4 7,12 45,13 63,1 z m 95,-10 c 4,-17 2,-18 -14,-8 -13,8 -15,13 -6,19 7,4 13,8 13,8 1,0 4,-9 7,-19 z m 307,-15 c 0,-1 -9,-2 -20,-3 -11,-1 -18,2 -15,7 3,5 -9,7 -27,6 -18,-2 -23,-1 -10,1 12,2 22,9 22,14 0,5 11,2 25,-7 14,-9 25,-17 25,-18 z m 285,14 c -3,-4 3,-7 12,-6 9,0 18,-4 20,-10 3,-8 -9,-8 -44,0 -33,7 -41,12 -25,14 12,2 22,8 22,13 0,6 5,7 10,4 6,-4 8,-10 5,-15 z m 269,12 c 2,-4 -10,-8 -29,-8 -19,0 -31,4 -29,8 3,4 16,8 29,8 13,0 26,-4 29,-8 z m 530,-15 c 8,-12 7,-20 -3,-29 -11,-11 -13,-9 -8,9 3,13 1,26 -4,29 -5,3 -9,1 -9,-4 0,-7 -116,1 -125,10 -2,1 29,3 68,2 54,0 73,-4 81,-17 z m 175,14 c 8,-5 -1,-8 -27,-7 -22,0 -38,4 -36,8 7,11 46,10 63,-1 z m 779,-30 c 2,-18 -1,-31 -8,-31 -8,0 -9,10 -5,30 5,24 3,30 -10,30 -9,0 -14,-4 -11,-8 3,-5 -23,-5 -57,-1 -34,5 -70,6 -81,2 -11,-3 -16,-1 -12,5 3,6 43,9 93,7 l 88,-2 z m -2318,-12 c 0,-16 -4,-29 -9,-29 -5,0 -9,15 -8,34 2,41 17,37 17,-5 z m 170,37 c 0,-2 -7,-7 -16,-10 -8,-3 -12,-2 -9,4 6,10 25,14 25,6 z m 317,-3 c -4,-3 -10,-3 -14,0 -3,4 0,7 7,7 7,0 10,-3 7,-7 z m 710,0 c -4,-3 -10,-3 -14,0 -3,4 0,7 7,7 7,0 10,-3 7,-7 z m 451,-13 c 34,-21 41,-30 20,-26 -22,4 -84,46 -68,46 8,0 30,-9 48,-20 z m 336,10 c 21,-8 26,-16 25,-42 -2,-30 -2,-30 -6,-6 -3,20 -13,30 -39,38 -19,7 -45,9 -57,6 -12,-3 -28,-2 -34,2 -18,12 82,13 111,2 z m -1534,-15 c -7,-9 -15,-13 -19,-10 -3,3 1,10 9,15 21,14 24,12 10,-5 z m 1400,12 c 0,-2 -10,-12 -22,-23 l -23,-19 19,23 c 18,21 26,27 26,19 z M 1257,3028 c -2,-29 -3,-6 -3,52 0,58 1,81 3,53 2,-29 2,-77 0,-105 z m 314,118 c -9,-18 -18,-29 -19,-24 -4,8 24,58 32,58 2,0 -4,-15 -13,-34 z m 349,30 c 0,-2 -12,-12 -27,-21 l -28,-18 19,21 c 17,20 36,29 36,18 z m 997,-148 c -2,-29 -3,-6 -3,52 0,58 1,81 3,53 2,-29 2,-77 0,-105 z m 373,148 c 0,-2 -8,-10 -17,-17 -16,-13 -17,-12 -4,4 13,16 21,21 21,13 z m 287,-148 c -2,-29 -3,-6 -3,52 0,58 1,81 3,53 2,-29 2,-77 0,-105 z m -2034,127 c -3,-9 -8,-14 -10,-11 -3,3 -2,9 2,15 9,16 15,13 8,-4 z m 694,-22 c -3,-10 -5,-4 -5,12 0,17 2,24 5,18 2,-7 2,-21 0,-30 z m 390,-105 c -2,-29 -3,-8 -3,47 0,55 1,79 3,53 2,-26 2,-71 0,-100 z m -924,115 c -3,-7 -9,-10 -14,-7 -14,8 -11,21 5,21 8,0 12,-6 9,-14 z m 517,-4 c 0,-5 -4,-9 -10,-9 -5,0 -10,7 -10,16 0,8 5,12 10,9 6,-3 10,-10 10,-16 z m -492,-93 c -4,-71 -28,-74 -28,-4 0,29 3,64 7,77 l 6,25 9,-24 c 5,-13 8,-47 6,-74 z m 1359,77 c -4,-3 -7,0 -7,7 0,7 3,10 7,7 3,-4 3,-10 0,-14 z m 143,7 c 0,-5 -5,-10 -11,-10 -5,0 -7,5 -4,10 3,6 8,10 11,10 2,0 4,-4 4,-10 z M 1527,3018 c -2,-24 -4,-7 -4,37 0,44 2,63 4,43 2,-21 2,-57 0,-80 z m 312,70 c 0,-35 -2,-39 -9,-21 -8,19 -3,63 6,63 2,0 4,-19 3,-42 z m 28,25 c -4,-3 -7,0 -7,7 0,7 3,10 7,7 3,-4 3,-10 0,-14 z m 1256,-8 c 4,-8 2,-17 -3,-20 -6,-4 -10,3 -10,14 0,25 6,27 13,6 z m 295,-1 c 6,3 13,2 17,-4 4,-6 -8,-10 -31,-10 -32,0 -35,2 -24,15 10,12 15,13 20,4 4,-6 12,-9 18,-5 z m -1218,-14 c -6,-11 -13,-20 -16,-20 -2,0 0,9 6,20 6,11 13,20 16,20 2,0 0,-9 -6,-20 z m 82,-46 c 20,-34 30,-61 23,-61 -13,0 -76,113 -67,121 3,3 6,5 7,4 1,-2 18,-30 37,-64 z m 965,14 c -2,-13 -4,-5 -4,17 -1,22 1,32 4,23 2,-10 2,-28 0,-40 z m -1385,10 c -9,-9 -12,-7 -12,12 0,19 3,21 12,12 9,-9 9,-15 0,-24 z m 1238,17 c 0,-8 -4,-15 -8,-15 -5,0 -9,7 -9,15 0,8 4,15 9,15 4,0 8,-7 8,-15 z m 580,-16 c 0,-12 -31,-11 -50,1 -11,8 -7,9 14,4 22,-5 27,-4 21,6 -5,9 -4,11 3,6 7,-4 12,-11 12,-17 z m -940,-1 c 0,-10 -39,-9 -65,2 -14,5 -8,7 22,6 24,0 43,-4 43,-8 z m -570,-28 c -6,-11 -13,-20 -16,-20 -2,0 0,9 6,20 6,11 13,20 16,20 2,0 0,-9 -6,-20 z m 955,11 c 3,-5 1,-12 -5,-16 -5,-3 -10,1 -10,9 0,18 6,21 15,7 z m 131,-51 c 3,0 3,8 0,18 -4,9 4,4 17,-12 19,-24 33,-30 71,-32 69,-4 70,-14 2,-14 -53,0 -61,3 -92,34 -19,19 -34,42 -34,53 1,11 6,6 15,-14 8,-18 17,-33 21,-33 z m -1056,46 c 0,-3 -5,-8 -12,-12 -7,-4 -8,-3 -4,4 7,12 16,16 16,8 z m -346,-22 c 3,-8 2,-12 -4,-9 -6,3 -10,10 -10,16 0,14 7,11 14,-7 z m 26,-9 c 12,-31 48,-46 100,-42 21,2 37,0 34,-4 -2,-4 -19,-7 -36,-7 -18,0 -37,-2 -43,-3 -21,-7 -72,34 -72,57 0,31 5,30 17,-1 z m 1202,3 c -7,-7 -12,-8 -12,-2 0,6 3,14 7,17 3,4 9,5 12,2 2,-3 -1,-11 -7,-17 z m -1052,-20 c 0,-5 -7,-3 -15,6 -8,8 -15,18 -15,22 0,3 7,1 15,-6 8,-7 15,-17 15,-22 z m 1385,22 c 3,-5 1,-10 -4,-10 -6,0 -11,5 -11,10 0,6 2,10 4,10 3,0 8,-4 11,-10 z m -639,-37 c -10,-10 -19,5 -10,18 6,11 8,11 12,0 2,-7 1,-15 -2,-18 z m 291,2 c 0,-8 -4,-12 -9,-9 -5,3 -6,10 -3,15 9,13 12,11 12,-6 z m 33,11 c 0,-3 -5,-8 -12,-12 -7,-4 -8,-3 -4,4 7,12 16,16 16,8 z m 630,-6 c 0,-5 -4,-10 -10,-10 -5,0 -10,5 -10,10 0,6 5,10 10,10 6,0 10,-4 10,-10 z m -1596,-15 c -4,-9 0,-15 9,-15 8,0 17,5 19,12 3,9 6,9 12,0 4,-7 -2,-14 -18,-18 -33,-8 -51,3 -35,22 15,18 20,18 13,-1 z m -842,-18 c -15,-7 -29,-6 -44,1 -22,11 -21,11 5,6 16,-4 27,-2 27,5 0,6 7,8 17,4 15,-6 14,-8 -5,-16 z m 443,13 c 3,-5 1,-10 -4,-10 -6,0 -11,5 -11,10 0,6 2,10 4,10 3,0 8,-4 11,-10 z m 1025,-1 c 0,-5 6,-7 13,-3 9,5 9,4 1,-5 -12,-13 -47,-4 -38,10 7,12 24,11 24,-2 z m 198,-10 c -18,-12 -56,-11 -63,1 -4,7 2,9 19,4 16,-4 26,-2 26,5 0,6 7,8 16,4 13,-5 13,-7 2,-14 z m 87,11 c 4,-6 -6,-10 -22,-9 -25,0 -26,1 -8,9 11,5 21,9 22,9 1,1 5,-3 8,-9 z m 573,-11 c -18,-12 -56,-11 -63,1 -4,7 2,9 19,4 16,-4 26,-2 26,5 0,6 7,8 16,4 13,-5 13,-7 2,-14 z m 92,6 c 0,-9 -6,-12 -15,-9 -8,4 -12,10 -9,15 8,14 24,10 24,-6 z m -2146,-7 c -3,-4 -14,-8 -24,-8 -10,0 -21,4 -24,8 -3,5 8,9 24,9 16,0 27,-4 24,-9 z m 146,2 c 0,-5 -7,-7 -15,-4 -8,4 -15,8 -15,10 0,2 7,4 15,4 8,0 15,-4 15,-10 z m 611,-3 c -7,-7 -18,-7 -33,0 -22,10 -21,11 10,10 22,0 30,-3 23,-10 z m 299,3 c 0,-5 -2,-10 -4,-10 -3,0 -8,5 -11,10 -3,6 -1,10 4,10 6,0 11,-4 11,-10 z m 50,0 c -8,-5 -22,-10 -30,-10 -13,0 -13,1 0,10 8,5 22,10 30,10 13,0 13,-1 0,-10 z m -160,-285 c 21,-25 21,-27 3,-12 -22,19 -22,19 -28,-27 -4,-25 -5,-132 -1,-238 3,-106 6,-357 6,-558 1,-394 -3,-370 46,-305 8,11 12,13 8,5 -4,-8 -18,-30 -31,-48 -28,-37 -40,-34 -68,21 -9,18 -27,50 -40,72 -111,185 -165,436 -136,635 12,77 40,189 61,235 33,76 52,113 67,136 26,39 86,119 87,116 1,-1 12,-15 26,-32 z m 35,-45 c 3,-5 4,-10 1,-10 -3,0 -8,5 -11,10 -3,6 -4,10 -1,10 3,0 8,-4 11,-10 z m 35,-60 c 6,-11 8,-20 6,-20 -3,0 -10,9 -16,20 -6,11 -8,20 -6,20 3,0 10,-9 16,-20 z m 28,-55 c -3,-3 -9,2 -12,12 -6,14 -5,15 5,6 7,-7 10,-15 7,-18 z m 20,-40 c -3,-3 -9,2 -12,12 -6,14 -5,15 5,6 7,-7 10,-15 7,-18 z m 9,-32 c -4,-3 -7,0 -7,7 0,7 3,10 7,7 3,-4 3,-10 0,-14 z m 20,-50 c -4,-3 -7,0 -7,7 0,7 3,10 7,7 3,-4 3,-10 0,-14 z m 10,-30 c -4,-3 -7,0 -7,7 0,7 3,10 7,7 3,-4 3,-10 0,-14 z m 10,-35 c -3,-8 -6,-5 -6,6 -1,11 2,17 5,13 3,-3 4,-12 1,-19 z m 10,-45 c -4,-3 -7,0 -7,7 0,7 3,10 7,7 3,-4 3,-10 0,-14 z m 16,-43 c 3,-11 1,-23 -4,-26 -5,-3 -9,6 -9,20 0,31 6,34 13,6 z m 4,-193 c -2,-23 -3,-1 -3,48 0,50 1,68 3,42 2,-26 2,-67 0,-90 z m -4,-97 c -7,-28 -13,-25 -13,6 0,14 4,23 9,20 5,-3 7,-15 4,-26 z m -16,-62 c -3,-8 -6,-5 -6,6 -1,11 2,17 5,13 3,-3 4,-12 1,-19 z m -10,-40 c -3,-8 -6,-5 -6,6 -1,11 2,17 5,13 3,-3 4,-12 1,-19 z m -10,-35 c -4,-3 -7,0 -7,7 0,7 3,10 7,7 3,-4 3,-10 0,-14 z m -10,-35 c -3,-8 -6,-5 -6,6 -1,11 2,17 5,13 3,-3 4,-12 1,-19 z m -20,-55 c -4,-3 -7,0 -7,7 0,7 3,10 7,7 3,-4 3,-10 0,-14 z m -20,-50 c -4,-3 -7,0 -7,7 0,7 3,10 7,7 3,-4 3,-10 0,-14 z m -34,-68 c -3,-9 -8,-14 -10,-11 -3,3 -2,9 2,15 9,16 15,13 8,-4 z m -13,-29 c 0,-3 -5,-8 -12,-12 -7,-4 -8,-3 -4,4 7,12 16,16 16,8 z"
       id="path11"
       inkscape:connector-curvature="0" />
  </g>
  <g
     id="layer105"
     transform="matrix(1.220339,0,0,1.220339,-550.8475,-550.8475)"
     style="fill:#d02e60;stroke:none">
    <path
       d="M 0,2500 V 0 H 2500 5000 V 2500 5000 H 2500 0 Z m 1393,688 c 4,-15 3,-17 -9,-8 -7,7 -34,10 -59,8 -25,-2 -45,0 -45,5 0,4 -16,5 -35,1 -24,-4 -35,-2 -35,5 0,8 27,11 89,10 79,-1 90,-4 94,-21 z m 27,-30 c 0,-16 -4,-28 -9,-28 -5,0 -8,18 -7,39 1,44 16,33 16,-11 z m 280,18 c 0,-1 -9,-2 -20,-3 -11,-1 -18,2 -15,7 3,5 -9,7 -27,6 -18,-2 -23,-1 -10,1 12,2 22,9 22,14 0,5 11,2 25,-7 14,-9 25,-17 25,-18 z m 284,12 c -4,-7 -2,-8 5,-4 6,4 18,2 26,-4 21,-17 19,-32 -2,-20 -10,5 -34,14 -53,19 -25,6 -28,9 -12,10 12,1 22,6 22,12 0,5 5,7 10,4 6,-4 7,-11 4,-17 z m 301,12 c -6,-10 -115,-9 -115,1 0,5 27,8 60,8 33,-1 58,-5 55,-9 z m 330,0 c 3,-5 -3,-10 -14,-10 -12,0 -21,5 -21,10 0,6 6,10 14,10 8,0 18,-4 21,-10 z m 172,-30 c 0,-22 -4,-40 -9,-40 -6,0 -8,14 -6,30 3,17 1,33 -4,36 -4,3 -8,1 -8,-4 0,-8 -117,1 -126,11 -3,2 30,5 74,6 l 78,1 z m 213,31 c 0,-4 -29,-7 -65,-8 -36,0 -65,4 -65,8 0,5 29,8 65,8 36,-1 65,-4 65,-8 z m 738,-33 c 2,-24 -1,-38 -9,-38 -7,0 -9,11 -5,35 6,28 4,35 -9,35 -9,0 -14,-4 -11,-8 3,-5 -23,-5 -57,-1 -34,4 -74,5 -89,2 -18,-4 -28,-1 -28,6 0,9 29,11 103,9 l 102,-3 z m -2148,28 c 0,-2 -7,-7 -16,-10 -8,-3 -12,-2 -9,4 6,10 25,14 25,6 z m 317,-3 c -4,-3 -10,-3 -14,0 -3,4 0,7 7,7 7,0 10,-3 7,-7 z m 1161,-13 c 34,-21 41,-30 20,-26 -22,4 -84,46 -68,46 8,0 30,-9 48,-20 z m 336,10 c 21,-8 26,-16 25,-42 -2,-30 -2,-30 -6,-6 -3,20 -13,30 -39,38 -19,7 -45,9 -57,6 -12,-3 -28,-2 -34,2 -18,12 82,13 111,2 z m -1534,-15 c -7,-9 -15,-13 -19,-10 -3,3 1,10 9,15 21,14 24,12 10,-5 z m 1400,12 c 0,-2 -10,-12 -22,-23 l -23,-19 19,23 c 18,21 26,27 26,19 z M 1257,3028 c -2,-29 -3,-6 -3,52 0,58 1,81 3,53 2,-29 2,-77 0,-105 z m 314,118 c -9,-18 -18,-29 -19,-24 -4,8 24,58 32,58 2,0 -4,-15 -13,-34 z m 349,30 c 0,-2 -12,-12 -27,-21 l -28,-18 19,21 c 17,20 36,29 36,18 z m 997,-148 c -2,-29 -3,-6 -3,52 0,58 1,81 3,53 2,-29 2,-77 0,-105 z m 373,148 c 0,-2 -8,-10 -17,-17 -16,-13 -17,-12 -4,4 13,16 21,21 21,13 z m 287,-148 c -2,-29 -3,-6 -3,52 0,58 1,81 3,53 2,-29 2,-77 0,-105 z m -2034,127 c -3,-9 -8,-14 -10,-11 -3,3 -2,9 2,15 9,16 15,13 8,-4 z m 694,-22 c -3,-10 -5,-4 -5,12 0,17 2,24 5,18 2,-7 2,-21 0,-30 z m 390,-105 c -2,-29 -3,-8 -3,47 0,55 1,79 3,53 2,-26 2,-71 0,-100 z m -924,115 c -3,-7 -9,-10 -14,-7 -14,8 -11,21 5,21 8,0 12,-6 9,-14 z m 517,-4 c 0,-5 -4,-9 -10,-9 -5,0 -10,7 -10,16 0,8 5,12 10,9 6,-3 10,-10 10,-16 z m -492,-93 c -4,-71 -28,-74 -28,-4 0,29 3,64 7,77 l 6,25 9,-24 c 5,-13 8,-47 6,-74 z m 1359,77 c -4,-3 -7,0 -7,7 0,7 3,10 7,7 3,-4 3,-10 0,-14 z m 143,7 c 0,-5 -5,-10 -11,-10 -5,0 -7,5 -4,10 3,6 8,10 11,10 2,0 4,-4 4,-10 z M 1527,3018 c -2,-24 -4,-7 -4,37 0,44 2,63 4,43 2,-21 2,-57 0,-80 z m 312,70 c 0,-35 -2,-39 -9,-21 -8,19 -3,63 6,63 2,0 4,-19 3,-42 z m 28,25 c -4,-3 -7,0 -7,7 0,7 3,10 7,7 3,-4 3,-10 0,-14 z m 1256,-8 c 4,-8 2,-17 -3,-20 -6,-4 -10,3 -10,14 0,25 6,27 13,6 z m 294,-2 c 5,3 15,2 23,-4 10,-6 -2,-9 -37,-9 -29,0 -53,2 -53,5 0,12 45,22 51,12 4,-5 11,-7 16,-4 z m -1217,-13 c -6,-11 -13,-20 -16,-20 -2,0 0,9 6,20 6,11 13,20 16,20 2,0 0,-9 -6,-20 z m 82,-46 c 20,-34 30,-61 23,-61 -13,0 -76,113 -67,121 3,3 6,5 7,4 1,-2 18,-30 37,-64 z m 965,14 c -2,-13 -4,-5 -4,17 -1,22 1,32 4,23 2,-10 2,-28 0,-40 z m -1385,10 c -9,-9 -12,-7 -12,12 0,19 3,21 12,12 9,-9 9,-15 0,-24 z m 1238,17 c 0,-8 -4,-15 -8,-15 -5,0 -9,7 -9,15 0,8 4,15 9,15 4,0 8,-7 8,-15 z m -360,-10 c 0,-17 -33,-19 -65,-5 -14,7 -9,8 18,4 24,-4 37,-2 37,5 0,6 2,11 5,11 3,0 5,-7 5,-15 z m 947,0 c 0,-17 -34,-20 -57,-5 -11,8 -7,9 14,4 21,-5 27,-4 22,5 -4,6 -1,11 7,11 7,0 14,-7 14,-15 z m -1517,-35 c -6,-11 -13,-20 -16,-20 -2,0 0,9 6,20 6,11 13,20 16,20 2,0 0,-9 -6,-20 z m 955,11 c 3,-5 1,-12 -5,-16 -5,-3 -10,1 -10,9 0,18 6,21 15,7 z m 131,-51 c 3,0 3,8 0,18 -4,9 4,4 17,-12 19,-24 33,-30 71,-32 69,-4 70,-14 2,-14 -53,0 -61,3 -92,34 -19,19 -34,42 -34,53 1,11 6,6 15,-14 8,-18 17,-33 21,-33 z m -1056,46 c 0,-3 -5,-8 -12,-12 -7,-4 -8,-3 -4,4 7,12 16,16 16,8 z m -346,-22 c 3,-8 2,-12 -4,-9 -6,3 -10,10 -10,16 0,14 7,11 14,-7 z m 26,-9 c 12,-31 48,-46 100,-42 21,2 37,0 34,-4 -2,-4 -19,-7 -36,-7 -18,0 -37,-2 -43,-3 -21,-7 -72,34 -72,57 0,31 5,30 17,-1 z m 1202,3 c -7,-7 -12,-8 -12,-2 0,6 3,14 7,17 3,4 9,5 12,2 2,-3 -1,-11 -7,-17 z m -1052,-20 c 0,-5 -7,-3 -15,6 -8,8 -15,18 -15,22 0,3 7,1 15,-6 8,-7 15,-17 15,-22 z m 1385,22 c 3,-5 1,-10 -4,-10 -6,0 -11,5 -11,10 0,6 2,10 4,10 3,0 8,-4 11,-10 z m 311,-37 c -11,-11 -19,6 -11,24 8,17 8,17 12,0 3,-10 2,-21 -1,-24 z m -950,0 c -10,-10 -19,5 -10,18 6,11 8,11 12,0 2,-7 1,-15 -2,-18 z m 291,2 c 0,-8 -4,-12 -9,-9 -5,3 -6,10 -3,15 9,13 12,11 12,-6 z m 33,11 c 0,-3 -5,-8 -12,-12 -7,-4 -8,-3 -4,4 7,12 16,16 16,8 z m 330,0 c 0,-3 -5,-8 -12,-12 -7,-4 -8,-3 -4,4 7,12 16,16 16,8 z m -1840,-38 c 0,-5 -22,-8 -50,-8 -29,0 -50,5 -50,11 0,6 14,9 33,7 22,-2 31,1 29,10 -2,10 2,10 18,0 11,-7 20,-16 20,-20 z m 544,17 c -4,-9 0,-15 10,-15 9,0 16,4 16,9 0,5 9,7 20,4 33,-9 11,-23 -36,-23 -48,0 -54,6 -26,26 22,17 23,17 16,-1 z m -814,-16 c 0,-5 -25,-8 -55,-8 -30,1 -55,6 -55,11 0,6 14,8 35,4 20,-4 35,-3 35,3 0,5 9,7 20,4 11,-3 20,-9 20,-14 z m 432,-1 c -11,-11 -32,-3 -32,12 0,4 9,6 21,3 13,-4 17,-9 11,-15 z m 1008,11 c 0,-5 5,-7 12,-3 6,4 8,3 5,-3 -4,-6 -39,-11 -79,-12 -81,-2 -84,10 -5,20 29,3 55,7 60,8 4,0 7,-4 7,-10 z m 257,2 c 12,4 25,4 28,0 7,-12 -46,-21 -116,-21 -37,0 -59,4 -59,11 0,7 12,9 35,5 21,-4 35,-3 35,3 0,6 11,6 28,2 15,-5 37,-5 49,0 z m 674,3 c 8,8 13,8 16,-2 3,-6 10,-9 15,-6 7,4 8,2 4,-4 -10,-16 -196,-16 -196,-1 0,7 12,9 35,5 19,-4 35,-3 35,2 0,5 17,6 39,2 25,-4 44,-3 52,4 z m -1981,-12 c 0,-4 -11,-9 -26,-10 -14,-1 -23,2 -19,8 7,12 45,14 45,2 z m 640,-3 c 0,-5 -23,-9 -51,-9 -28,0 -48,4 -45,9 4,5 26,9 51,9 25,0 45,-4 45,-9 z m 270,1 c 0,-5 -9,-10 -20,-10 -11,0 -20,5 -20,10 0,6 9,10 20,10 11,0 20,-4 20,-10 z m -110,-285 c 21,-25 21,-27 3,-12 -22,19 -22,19 -28,-27 -4,-25 -5,-132 -1,-238 3,-106 6,-357 6,-558 1,-394 -3,-370 46,-305 8,11 7,5 -3,-13 -10,-18 -26,-40 -35,-49 -16,-14 -20,-10 -55,44 -21,33 -52,86 -67,119 -16,32 -35,71 -42,85 -7,14 -17,43 -23,65 -5,21 -17,66 -27,99 -22,76 -26,335 -6,410 7,28 18,68 24,90 14,55 72,177 109,233 30,44 71,95 73,89 1,-1 12,-15 26,-32 z m -93,18 c -4,-3 -10,-3 -14,0 -3,4 0,7 7,7 7,0 10,-3 7,-7 z m 128,-63 c 3,-5 4,-10 1,-10 -3,0 -8,5 -11,10 -3,6 -4,10 -1,10 3,0 8,-4 11,-10 z m 35,-60 c 6,-11 8,-20 6,-20 -3,0 -10,9 -16,20 -6,11 -8,20 -6,20 3,0 10,-9 16,-20 z m 28,-55 c -3,-3 -9,2 -12,12 -6,14 -5,15 5,6 7,-7 10,-15 7,-18 z m 20,-40 c -3,-3 -9,2 -12,12 -6,14 -5,15 5,6 7,-7 10,-15 7,-18 z m 9,-32 c -4,-3 -7,0 -7,7 0,7 3,10 7,7 3,-4 3,-10 0,-14 z m 20,-50 c -4,-3 -7,0 -7,7 0,7 3,10 7,7 3,-4 3,-10 0,-14 z m 10,-30 c -4,-3 -7,0 -7,7 0,7 3,10 7,7 3,-4 3,-10 0,-14 z m 10,-35 c -3,-8 -6,-5 -6,6 -1,11 2,17 5,13 3,-3 4,-12 1,-19 z m 10,-45 c -4,-3 -7,0 -7,7 0,7 3,10 7,7 3,-4 3,-10 0,-14 z m 16,-43 c 3,-11 1,-23 -4,-26 -5,-3 -9,6 -9,20 0,31 6,34 13,6 z m 4,-193 c -2,-23 -3,-1 -3,48 0,50 1,68 3,42 2,-26 2,-67 0,-90 z m -4,-97 c -7,-28 -13,-25 -13,6 0,14 4,23 9,20 5,-3 7,-15 4,-26 z m -16,-62 c -3,-8 -6,-5 -6,6 -1,11 2,17 5,13 3,-3 4,-12 1,-19 z m -10,-40 c -3,-8 -6,-5 -6,6 -1,11 2,17 5,13 3,-3 4,-12 1,-19 z m -10,-35 c -4,-3 -7,0 -7,7 0,7 3,10 7,7 3,-4 3,-10 0,-14 z m -10,-35 c -3,-8 -6,-5 -6,6 -1,11 2,17 5,13 3,-3 4,-12 1,-19 z m -20,-55 c -4,-3 -7,0 -7,7 0,7 3,10 7,7 3,-4 3,-10 0,-14 z m -20,-50 c -4,-3 -7,0 -7,7 0,7 3,10 7,7 3,-4 3,-10 0,-14 z m -34,-68 c -3,-9 -8,-14 -10,-11 -3,3 -2,9 2,15 9,16 15,13 8,-4 z m -13,-29 c 0,-3 -5,-8 -12,-12 -7,-4 -8,-3 -4,4 7,12 16,16 16,8 z"
       id="path14"
       inkscape:connector-curvature="0" />
  </g>
  <g
     id="layer106"
     transform="matrix(1.220339,0,0,1.220339,-550.8475,-550.8475)"
     style="fill:#d32e61;stroke:none">
    <path
       d="M 0,2500 V 0 H 2500 5000 V 2500 5000 H 2500 0 Z m 1412,696 c 11,-16 10,-66 -2,-66 -5,0 -10,8 -10,19 0,29 -25,43 -72,39 l -43,-3 -3,-103 c -3,-97 -1,-104 18,-109 39,-10 19,-23 -35,-22 -30,1 -55,6 -55,10 0,5 9,9 20,9 19,0 20,7 20,110 0,103 -1,110 -20,110 -11,0 -20,5 -20,11 0,14 192,9 202,-5 z m 304,-62 c 11,-29 15,-61 12,-100 -4,-50 -2,-57 16,-64 25,-10 24,-11 -37,-15 -26,-2 -45,1 -41,6 3,5 12,9 20,9 18,0 20,133 2,173 -24,52 -94,50 -120,-3 -11,-21 -18,-28 -18,-17 0,10 -4,15 -10,12 -5,-3 -10,-42 -10,-86 0,-46 4,-79 10,-79 6,0 10,5 10,10 0,6 8,5 20,-2 32,-20 24,-28 -30,-28 -27,0 -50,5 -50,10 0,6 7,10 15,10 12,0 15,15 15,74 0,82 13,131 32,120 6,-4 8,-3 5,3 -18,29 81,49 120,25 12,-8 30,-33 39,-58 z m 314,24 c 0,-7 -4,-7 -13,0 -7,6 -31,14 -52,17 -32,5 -45,2 -68,-17 -55,-45 -38,-159 27,-181 38,-13 76,5 76,35 0,20 1,21 16,6 46,-46 -59,-84 -121,-44 -34,23 -45,37 -62,84 -10,26 -9,40 5,77 17,47 39,62 102,67 36,3 90,-23 90,-44 z m 254,41 c -3,-5 -14,-9 -25,-9 -15,0 -19,-7 -19,-36 0,-41 75,-184 97,-184 7,0 13,-4 13,-10 0,-5 -23,-10 -51,-10 -31,0 -48,4 -44,10 3,6 13,10 21,10 8,0 14,5 14,11 0,11 -36,82 -54,107 -6,8 -9,34 -7,58 1,24 -1,44 -6,44 -5,0 -7,-16 -5,-36 3,-27 1,-35 -8,-29 -7,4 -9,17 -5,32 4,19 1,26 -15,30 -41,11 -18,23 40,22 33,-1 57,-6 54,-10 z m 503,-29 c 0,-22 -3,-40 -8,-40 -5,0 -9,11 -9,24 0,30 -19,37 -89,35 l -51,-2 v -109 c 0,-59 3,-108 8,-108 4,0 6,21 5,48 l -1,47 6,-45 c 7,-44 8,-45 49,-48 33,-2 46,2 63,20 l 22,23 -4,-30 -3,-30 -97,-2 c -58,-1 -98,2 -98,7 0,6 9,10 20,10 19,0 20,7 20,110 0,103 -1,110 -20,110 -11,0 -20,4 -20,8 0,4 46,9 103,10 l 103,2 z m 213,28 c 0,-6 -6,-8 -14,-5 -8,3 -21,0 -30,-6 -14,-10 -16,-29 -14,-111 3,-98 3,-100 29,-107 64,-17 121,46 114,128 -4,51 -9,59 -49,84 -37,22 -18,26 24,4 80,-41 83,-172 6,-213 -38,-19 -196,-30 -196,-13 0,6 9,11 20,11 19,0 20,7 20,110 0,103 -1,110 -20,110 -11,0 -20,4 -20,10 0,5 28,9 65,9 36,-1 65,-6 65,-11 z m 738,-30 c 2,-24 -1,-38 -9,-38 -7,0 -10,11 -7,28 l 4,29 -65,1 c -37,0 -81,1 -98,1 -18,1 -33,6 -33,12 0,6 35,9 103,7 l 102,-3 z m -334,22 c 22,-8 26,-16 26,-49 0,-22 5,-42 13,-44 6,-3 -12,-6 -40,-6 -58,-1 -66,4 -28,19 37,14 36,65 -1,74 -40,10 -81,-2 -104,-31 -11,-14 -20,-20 -20,-14 0,7 -4,9 -10,6 -5,-3 -10,-18 -9,-33 0,-24 1,-25 9,-7 7,15 9,10 9,-23 1,-54 30,-98 71,-107 42,-9 69,2 76,32 7,25 8,25 20,8 40,-55 -96,-79 -156,-29 -18,16 -29,33 -26,41 3,8 2,11 -4,8 -5,-3 -10,16 -12,42 -3,50 16,98 35,86 6,-3 7,-1 3,5 -17,27 92,44 148,22 z m 195,-106 c -1,-53 3,-100 8,-104 11,-11 64,-15 85,-6 9,4 19,17 23,29 l 8,22 4,-23 c 9,-47 0,-52 -102,-52 -57,0 -95,4 -95,10 0,6 9,10 20,10 19,0 20,7 20,105 0,85 3,105 15,105 11,0 14,-18 14,-96 z m -952,24 c -2,-13 -4,-3 -4,22 0,25 2,35 4,23 2,-13 2,-33 0,-45 z m -457,-73 c -31,-55 -32,-56 -11,-62 34,-9 13,-23 -35,-23 -42,0 -59,12 -30,23 7,3 30,35 51,72 25,45 40,64 47,57 7,-7 0,-29 -22,-67 z m 550,38 c 0,-15 -13,-16 -61,-6 l -34,7 35,6 c 53,9 60,8 60,-7 z m 947,2 c 0,-11 -11,-14 -44,-12 -51,2 -57,14 -10,20 17,2 37,5 43,5 6,1 11,-5 11,-13 z M 2566,2590 c 102,-170 136,-291 139,-489 3,-199 -9,-203 -17,-6 -7,181 -15,252 -29,261 -5,3 -9,14 -9,25 0,10 -4,27 -9,37 -5,9 -21,42 -35,72 -34,70 -73,139 -91,156 -11,11 -15,11 -26,-2 -9,-11 -9,-18 -1,-26 9,-9 12,-160 12,-567 v -556 l 30,45 c 40,58 89,163 110,235 7,22 16,48 21,57 5,10 9,31 9,47 0,17 5,33 11,37 15,9 6,-40 -22,-128 -27,-84 -111,-254 -147,-298 l -29,-35 -40,61 c -21,33 -52,87 -67,120 -16,32 -35,71 -42,85 -7,14 -17,43 -23,65 -5,21 -17,66 -27,99 -22,76 -26,335 -6,410 7,28 18,68 24,90 22,86 104,239 161,302 l 19,22 23,-27 c 12,-15 40,-56 61,-92 z m -149,103 c -4,-3 -10,-3 -14,0 -3,4 0,7 7,7 7,0 10,-3 7,-7 z"
       id="path17"
       inkscape:connector-curvature="0" />
    <path
       d="m 1870,3165 c -13,-14 -21,-27 -18,-30 2,-3 14,9 27,25 26,37 23,39 -9,5 z"
       id="path19"
       inkscape:connector-curvature="0" />
    <path
       d="m 3101,3068 c 0,-9 -4,-25 -7,-35 -5,-14 -4,-15 5,-7 7,7 11,22 8,35 -2,13 -5,16 -6,7 z"
       id="path21"
       inkscape:connector-curvature="0" />
    <path
       d="m 3580,2980 c 0,-7 3,-10 7,-7 3,4 3,10 0,14 -4,3 -7,0 -7,-7 z"
       id="path23"
       inkscape:connector-curvature="0" />
  </g>
  <g
     id="layer107"
     transform="matrix(1.220339,0,0,1.220339,-550.8475,-550.8475)"
     style="fill:#b24b6f;stroke:none">
    <path
       d="M 0,2500 V 0 H 2500 5000 V 2500 5000 H 2500 0 Z m 1412,696 c 11,-16 10,-66 -2,-66 -5,0 -10,8 -10,19 0,29 -25,43 -72,39 l -43,-3 -3,-103 c -3,-97 -1,-104 18,-109 39,-10 19,-23 -35,-22 -30,1 -55,6 -55,10 0,5 9,9 20,9 19,0 20,7 20,110 0,103 -1,110 -20,110 -11,0 -20,5 -20,11 0,14 192,9 202,-5 z m 304,-62 c 11,-29 15,-61 12,-100 -4,-50 -2,-57 16,-64 25,-10 24,-11 -37,-15 -26,-2 -45,1 -41,6 3,5 12,9 20,9 18,0 20,133 2,173 -24,52 -94,50 -120,-3 -26,-51 -24,-146 2,-162 32,-20 24,-28 -30,-28 -27,0 -50,5 -50,10 0,6 6,10 14,10 11,0 15,21 18,89 4,108 23,138 92,143 54,4 81,-14 102,-68 z m 314,24 c 0,-7 -4,-7 -13,0 -7,6 -31,14 -52,17 -32,5 -45,2 -68,-17 -55,-45 -38,-159 27,-181 38,-13 76,5 76,35 0,20 1,21 16,6 46,-46 -59,-84 -121,-44 -34,23 -45,37 -62,84 -10,26 -9,40 5,77 17,47 39,62 102,67 36,3 90,-23 90,-44 z m 254,41 c -3,-5 -14,-9 -25,-9 -15,0 -19,-7 -19,-36 0,-41 75,-184 97,-184 7,0 13,-4 13,-10 0,-5 -23,-10 -51,-10 -31,0 -48,4 -44,10 3,6 13,10 21,10 8,0 14,5 14,10 0,12 -49,108 -59,114 -3,2 -21,-23 -39,-56 -33,-58 -33,-60 -13,-65 34,-9 13,-23 -35,-23 -42,0 -59,12 -30,23 7,3 31,36 52,74 43,77 52,133 22,141 -39,10 -15,22 42,21 33,-1 57,-6 54,-10 z m 503,-29 c 0,-22 -3,-40 -8,-40 -5,0 -9,11 -9,25 0,28 -26,39 -81,33 -34,-3 -34,-4 -37,-57 l -3,-53 45,4 c 35,4 46,2 46,-9 0,-11 -11,-14 -42,-11 l -43,3 v -45 -45 l 42,-3 c 33,-2 46,2 63,20 l 22,23 -4,-30 -3,-30 -97,-2 c -58,-1 -98,2 -98,7 0,6 9,10 20,10 19,0 20,7 20,110 0,103 -1,110 -20,110 -11,0 -20,4 -20,8 0,4 46,9 103,10 l 103,2 z m 213,28 c 0,-6 -6,-8 -14,-5 -8,3 -21,0 -30,-6 -14,-10 -16,-29 -14,-111 3,-98 3,-100 29,-107 64,-17 121,46 114,128 -4,51 -9,59 -49,84 -37,22 -18,26 24,4 80,-41 83,-172 6,-213 -38,-19 -196,-30 -196,-13 0,6 9,11 20,11 19,0 20,7 20,110 0,103 -1,110 -20,110 -11,0 -20,4 -20,10 0,5 28,9 65,9 36,-1 65,-6 65,-11 z m 738,-30 c 2,-22 -1,-38 -7,-38 -6,0 -11,11 -11,25 0,28 -26,39 -81,33 -34,-3 -34,-4 -37,-57 l -3,-54 44,6 c 35,5 44,3 44,-9 0,-11 -10,-14 -41,-12 l -41,3 v -45 c 0,-44 1,-45 36,-51 39,-6 60,4 74,36 8,19 9,19 13,-3 8,-48 -1,-52 -103,-52 -57,0 -95,4 -95,10 0,6 9,10 20,10 19,0 20,7 20,110 0,103 -1,110 -20,110 -11,0 -20,5 -20,11 0,6 35,9 103,7 l 102,-3 z m -334,22 c 22,-8 26,-16 26,-49 0,-22 5,-42 13,-44 6,-3 -12,-6 -40,-6 -58,-1 -66,4 -28,19 37,14 36,65 -1,74 -40,10 -81,-2 -104,-31 -27,-35 -27,-105 0,-143 36,-50 114,-52 126,-3 7,25 8,25 20,8 23,-31 -8,-55 -72,-55 -45,0 -59,5 -86,29 -26,23 -33,38 -38,86 -6,55 -5,59 26,91 28,30 37,34 82,34 28,0 62,-4 76,-10 z m -838,-600 c 102,-170 136,-291 139,-488 2,-117 -1,-146 -25,-235 -31,-120 -73,-223 -129,-316 -61,-103 -63,-103 -108,-34 -21,33 -52,86 -67,119 -16,32 -35,71 -42,85 -7,14 -17,43 -23,65 -5,21 -17,66 -27,99 -22,76 -26,335 -6,410 7,28 18,68 24,90 22,86 104,239 161,302 l 19,22 23,-27 c 12,-15 40,-56 61,-92 z m -149,103 c -4,-3 -10,-3 -14,0 -3,4 0,7 7,7 7,0 10,-3 7,-7 z"
       id="path26"
       inkscape:connector-curvature="0" />
  </g>
  <g
     id="layer108"
     transform="matrix(1.220339,0,0,1.220339,-550.8475,-550.8475)"
     style="fill:#c7753d;stroke:none">
    <path
       d="M 0,2500 V 0 H 2500 5000 V 2500 5000 H 2500 0 Z m 1414,694 c 10,-25 7,-74 -4,-74 -5,0 -10,11 -10,24 0,34 -22,48 -72,44 l -43,-3 -3,-103 c -3,-97 -1,-104 18,-109 39,-10 20,-23 -35,-23 -30,0 -55,5 -55,10 0,6 9,10 20,10 19,0 20,7 20,110 0,103 -1,110 -20,110 -11,0 -20,5 -20,10 0,6 40,10 99,10 81,0 100,-3 105,-16 z m 266,-4 c 34,-24 54,-92 48,-161 -5,-45 -3,-52 16,-59 18,-7 19,-9 5,-15 -9,-3 -34,-5 -55,-2 -34,3 -36,5 -16,12 20,7 22,14 22,79 0,109 -24,144 -91,134 -34,-4 -59,-60 -59,-130 0,-47 4,-60 20,-70 32,-20 24,-28 -30,-28 -27,0 -50,5 -50,10 0,6 7,10 15,10 12,0 15,15 15,74 0,95 14,134 54,152 44,19 73,17 106,-6 z m 321,-1 c 16,-11 29,-25 29,-31 0,-7 -4,-7 -13,0 -7,6 -31,14 -52,17 -78,12 -124,-67 -90,-149 26,-60 125,-72 125,-15 0,12 5,19 13,17 22,-8 14,-52 -13,-65 -77,-39 -171,27 -172,121 -1,60 16,91 61,110 50,21 78,19 112,-5 z m 284,11 c -3,-5 -15,-10 -26,-10 -15,0 -19,-7 -19,-38 0,-21 8,-49 17,-62 23,-32 50,-80 59,-102 3,-10 13,-18 20,-18 8,0 14,-4 14,-10 0,-5 -23,-10 -51,-10 -31,0 -48,4 -44,10 3,6 13,10 21,10 8,0 14,5 14,10 0,13 -50,109 -60,115 -4,3 -15,-12 -24,-33 -9,-20 -23,-47 -33,-60 -15,-22 -15,-23 5,-29 35,-9 14,-23 -34,-23 -42,0 -59,12 -30,23 7,3 22,23 32,44 11,21 28,51 39,67 26,40 28,97 3,104 -38,10 -15,22 43,22 37,0 58,-4 54,-10 z m 505,-30 c 0,-22 -4,-40 -10,-40 -5,0 -10,11 -10,25 0,28 -26,39 -81,33 -34,-3 -34,-4 -37,-56 l -3,-53 45,6 c 39,6 46,5 46,-10 0,-13 -8,-16 -42,-13 l -43,3 v -45 c 0,-42 2,-45 29,-48 40,-5 76,6 76,23 0,7 5,17 10,20 6,4 10,-8 10,-29 v -36 h -100 c -60,0 -100,4 -100,10 0,6 9,10 20,10 19,0 20,7 20,110 0,103 -1,110 -20,110 -11,0 -20,5 -20,10 0,6 42,10 105,10 h 105 z m 290,5 c 57,-54 57,-149 1,-199 -16,-15 -41,-20 -116,-24 -67,-3 -95,-1 -95,7 0,6 9,11 20,11 19,0 20,7 20,110 0,103 -1,110 -20,110 -11,0 -20,5 -20,11 0,8 27,10 91,7 81,-5 93,-8 119,-33 z m 323,16 c 22,-9 27,-17 27,-45 0,-19 6,-36 13,-39 26,-9 -3,-18 -49,-15 -48,3 -48,4 -21,16 20,9 27,18 27,41 0,23 -5,30 -26,35 -40,10 -81,-2 -104,-31 -27,-35 -27,-105 0,-143 35,-49 114,-52 126,-5 7,28 34,23 34,-7 0,-26 -62,-52 -106,-44 -91,18 -143,127 -93,198 39,54 98,68 172,39 z m 337,-21 c 0,-48 -11,-52 -27,-9 -11,29 -14,30 -60,27 l -48,-3 -3,-53 -3,-53 45,6 c 39,6 46,5 46,-10 0,-13 -8,-16 -42,-13 l -43,3 v -45 c 0,-42 2,-45 29,-48 40,-5 76,6 76,23 0,7 5,17 10,20 6,4 10,-8 10,-29 v -36 h -100 c -60,0 -100,4 -100,10 0,6 9,10 20,10 19,0 20,7 20,110 0,103 -1,110 -20,110 -11,0 -20,5 -20,10 0,6 42,10 105,10 h 105 z M 2534,2643 c 72,-112 111,-193 135,-283 13,-47 27,-96 31,-110 11,-37 9,-272 -2,-322 -14,-59 -47,-179 -57,-203 -19,-45 -77,-154 -114,-213 l -40,-64 -44,69 c -134,207 -191,408 -180,633 7,134 31,235 81,344 43,93 124,216 143,216 2,0 23,-30 47,-67 z m -124,40 c -5,-10 -22,-31 -36,-48 l -26,-30 22,38 c 12,20 19,37 16,37 -4,0 -34,-11 -68,-25 -34,-14 -64,-23 -66,-20 -3,3 8,10 24,15 16,6 47,19 69,30 54,25 79,26 65,3 z m 215,-4 c 5,-5 15,-9 23,-9 39,0 196,-90 286,-164 112,-92 240,-281 283,-416 23,-73 35,-129 31,-141 -2,-7 -12,20 -22,60 -66,273 -242,491 -492,610 -90,43 -142,61 -147,48 -2,-7 -8,-3 -15,10 -11,20 -10,21 16,17 15,-3 31,-9 37,-15 z m -390,-59 c -3,-5 -11,-10 -16,-10 -6,0 -7,5 -4,10 3,6 11,10 16,10 6,0 7,-4 4,-10 z m -50,-26 c -25,-20 -75,-46 -75,-40 0,5 82,56 90,56 3,-1 -4,-8 -15,-16 z m 165,2 c 0,-3 -5,-8 -12,-12 -7,-4 -8,-3 -4,4 7,12 16,16 16,8 z m -300,-95 c -30,-27 -79,-76 -109,-108 -38,-40 -44,-45 -22,-16 32,42 168,173 180,173 3,0 -19,-22 -49,-49 z m -160,-175 c 0,-3 -5,-8 -12,-12 -7,-4 -8,-3 -4,4 7,12 16,16 16,8 z m -20,-30 c 0,-3 -5,-8 -12,-12 -7,-4 -8,-3 -4,4 7,12 16,16 16,8 z m -29,-49 c -10,-9 -11,-8 -5,6 3,10 9,15 12,12 3,-3 0,-11 -7,-18 z m -18,-32 c -3,-9 -8,-14 -10,-11 -3,3 -2,9 2,15 9,16 15,13 8,-4 z m -22,-48 c -10,-9 -11,-8 -5,6 3,10 9,15 12,12 3,-3 0,-11 -7,-18 z m -20,-48 c -5,-13 -10,-19 -10,-12 -1,15 10,45 15,40 3,-2 0,-15 -5,-28 z m -20,-66 c -10,-17 -10,-16 -11,3 0,23 13,41 18,25 2,-6 -1,-18 -7,-28 z m -20,-80 c -9,-16 -10,-16 -11,4 0,12 3,30 7,40 7,16 8,16 11,-4 2,-12 -1,-30 -7,-40 z m -17,-112 c -3,-39 -10,-69 -14,-66 -4,2 -6,15 -4,27 2,13 6,45 9,71 10,75 17,48 9,-32 z m 1545,-55 c 1,-108 -5,-93 -12,29 -4,61 -3,90 2,75 5,-14 9,-61 10,-104 z"
       id="path29"
       inkscape:connector-curvature="0" />
    <path
       d="m 2944,3177 c -3,-8 -3,-56 -2,-108 l 3,-94 37,-3 c 20,-2 46,2 57,8 54,28 64,146 16,187 -30,26 -102,32 -111,10 z"
       id="path31"
       inkscape:connector-curvature="0" />
  </g>
  <g
     id="layer109"
     transform="matrix(1.220339,0,0,1.220339,-550.8475,-550.8475)"
     style="fill:#c47743;stroke:none">
    <path
       d="M 0,2500 V 0 H 2500 5000 V 2500 5000 H 2500 0 Z m 1414,694 c 10,-25 7,-74 -4,-74 -5,0 -10,11 -10,24 0,34 -22,48 -72,44 l -43,-3 -3,-103 c -3,-97 -1,-104 18,-109 39,-10 20,-23 -35,-23 -30,0 -55,5 -55,10 0,6 9,10 20,10 19,0 20,7 20,110 0,103 -1,110 -20,110 -11,0 -20,5 -20,10 0,6 40,10 99,10 81,0 100,-3 105,-16 z m 266,-4 c 34,-24 54,-92 48,-161 -5,-45 -3,-52 16,-59 18,-7 19,-9 5,-15 -9,-3 -34,-5 -55,-2 -34,3 -36,5 -16,12 20,7 22,14 22,79 0,109 -24,144 -91,134 -34,-4 -59,-60 -59,-130 0,-47 4,-60 20,-70 32,-20 24,-28 -30,-28 -27,0 -50,5 -50,10 0,6 7,10 15,10 12,0 15,15 15,74 0,95 14,134 54,152 44,19 73,17 106,-6 z m 321,-1 c 16,-11 29,-25 29,-31 0,-7 -4,-7 -13,0 -7,6 -31,14 -52,17 -78,12 -124,-67 -90,-149 26,-60 125,-72 125,-15 0,12 5,19 13,17 22,-8 14,-52 -13,-65 -77,-39 -171,27 -172,121 -1,60 16,91 61,110 50,21 78,19 112,-5 z m 284,11 c -3,-5 -15,-10 -26,-10 -15,0 -19,-7 -19,-38 0,-21 8,-49 17,-62 23,-32 50,-80 59,-102 3,-10 13,-18 20,-18 8,0 14,-4 14,-10 0,-5 -23,-10 -51,-10 -31,0 -48,4 -44,10 3,6 13,10 21,10 8,0 14,5 14,10 0,13 -50,109 -60,115 -4,3 -15,-12 -24,-33 -9,-20 -23,-47 -33,-60 -15,-22 -15,-23 5,-29 35,-9 14,-23 -34,-23 -42,0 -59,12 -30,23 7,3 22,23 32,44 11,21 28,51 39,67 26,40 28,97 3,104 -38,10 -15,22 43,22 37,0 58,-4 54,-10 z m 505,-30 c 0,-22 -4,-40 -10,-40 -5,0 -10,11 -10,25 0,28 -26,39 -81,33 -34,-3 -34,-4 -37,-56 l -3,-53 45,6 c 39,6 46,5 46,-10 0,-13 -8,-16 -42,-13 l -43,3 v -45 c 0,-42 2,-45 29,-48 40,-5 76,6 76,23 0,7 5,17 10,20 6,4 10,-8 10,-29 v -36 h -100 c -60,0 -100,4 -100,10 0,6 9,10 20,10 19,0 20,7 20,110 0,103 -1,110 -20,110 -11,0 -20,5 -20,10 0,6 42,10 105,10 h 105 z m 290,5 c 57,-54 57,-149 1,-199 -16,-15 -41,-20 -116,-24 -67,-3 -95,-1 -95,7 0,6 9,11 20,11 19,0 20,7 20,110 0,103 -1,110 -20,110 -11,0 -20,5 -20,11 0,8 27,10 91,7 81,-5 93,-8 119,-33 z m 323,16 c 22,-9 27,-17 27,-45 0,-19 6,-36 13,-39 26,-9 -3,-18 -49,-15 -48,3 -48,4 -21,16 20,9 27,18 27,41 0,23 -5,30 -26,35 -40,10 -81,-2 -104,-31 -27,-35 -27,-105 0,-143 35,-49 114,-52 126,-5 7,28 34,23 34,-7 0,-26 -62,-52 -106,-44 -91,18 -143,127 -93,198 39,54 98,68 172,39 z m 337,-21 c 0,-48 -11,-52 -27,-9 -11,29 -14,30 -60,27 l -48,-3 -3,-53 -3,-53 45,6 c 39,6 46,5 46,-10 0,-13 -8,-16 -42,-13 l -43,3 v -45 c 0,-42 2,-45 29,-48 40,-5 76,6 76,23 0,7 5,17 10,20 6,4 10,-8 10,-29 v -36 h -100 c -60,0 -100,4 -100,10 0,6 9,10 20,10 19,0 20,7 20,110 0,103 -1,110 -20,110 -11,0 -20,5 -20,10 0,6 42,10 105,10 h 105 z M 2285,2700 c -3,-5 -12,-10 -19,-10 -17,0 -155,-71 -198,-101 -81,-58 -170,-147 -161,-162 3,-6 1,-7 -4,-4 -6,4 -124,-61 -263,-143 -139,-83 -255,-148 -257,-146 -7,6 42,90 101,176 86,126 210,236 336,300 25,12 53,26 62,31 10,5 25,9 33,9 8,0 15,5 15,10 0,6 13,10 29,10 17,0 33,5 36,10 3,6 23,10 43,10 20,0 44,5 52,10 20,13 203,13 195,0 z m 249,-57 c 72,-112 111,-193 135,-283 13,-47 27,-96 31,-110 11,-37 9,-272 -2,-322 -14,-59 -47,-179 -57,-203 -19,-45 -77,-154 -114,-213 l -40,-64 -44,69 c -134,207 -191,408 -180,633 7,134 31,235 81,344 43,93 124,216 143,216 2,0 23,-30 47,-67 z m 351,57 c 3,-5 26,-10 50,-10 24,0 47,-4 50,-10 3,-5 17,-10 31,-10 13,0 33,-4 44,-10 11,-5 29,-14 40,-20 11,-5 26,-10 34,-10 8,0 16,-3 18,-7 2,-5 23,-19 48,-32 25,-14 47,-27 50,-30 3,-3 23,-19 46,-34 47,-32 158,-145 194,-197 13,-19 27,-37 30,-40 6,-5 30,-45 72,-119 10,-18 17,-35 15,-37 -2,-3 -118,63 -257,146 -187,111 -270,166 -319,212 -69,66 -88,81 -161,126 -51,31 -135,72 -149,72 -6,0 -13,5 -16,10 -4,6 26,10 84,10 49,0 93,-4 96,-10 z m -475,-17 c -5,-10 -22,-31 -36,-48 l -26,-30 22,38 c 12,20 19,37 16,37 -4,0 -34,-11 -68,-25 -34,-14 -64,-23 -66,-20 -3,3 8,10 24,15 16,6 47,19 69,30 54,25 79,26 65,3 z m 215,-4 c 5,-5 15,-9 23,-9 39,0 196,-90 286,-164 112,-92 240,-281 283,-416 23,-73 35,-129 31,-141 -2,-7 -12,20 -22,60 -66,273 -242,491 -492,610 -90,43 -142,61 -147,48 -2,-7 -8,-3 -15,10 -11,20 -10,21 16,17 15,-3 31,-9 37,-15 z m -390,-59 c -3,-5 -11,-10 -16,-10 -6,0 -7,5 -4,10 3,6 11,10 16,10 6,0 7,-4 4,-10 z m -50,-26 c -25,-20 -75,-46 -75,-40 0,5 82,56 90,56 3,-1 -4,-8 -15,-16 z m 165,2 c 0,-3 -5,-8 -12,-12 -7,-4 -8,-3 -4,4 7,12 16,16 16,8 z m -300,-95 c -30,-27 -79,-76 -109,-108 -38,-40 -44,-45 -22,-16 32,42 168,173 180,173 3,0 -19,-22 -49,-49 z m -160,-175 c 0,-3 -5,-8 -12,-12 -7,-4 -8,-3 -4,4 7,12 16,16 16,8 z m -20,-30 c 0,-3 -5,-8 -12,-12 -7,-4 -8,-3 -4,4 7,12 16,16 16,8 z m -29,-49 c -10,-9 -11,-8 -5,6 3,10 9,15 12,12 3,-3 0,-11 -7,-18 z m -18,-32 c -3,-9 -8,-14 -10,-11 -3,3 -2,9 2,15 9,16 15,13 8,-4 z m -22,-48 c -10,-9 -11,-8 -5,6 3,10 9,15 12,12 3,-3 0,-11 -7,-18 z m -20,-48 c -5,-13 -10,-19 -10,-12 -1,15 10,45 15,40 3,-2 0,-15 -5,-28 z m -20,-66 c -10,-17 -10,-16 -11,3 0,23 13,41 18,25 2,-6 -1,-18 -7,-28 z m -20,-80 c -9,-16 -10,-16 -11,4 0,12 3,30 7,40 7,16 8,16 11,-4 2,-12 -1,-30 -7,-40 z m -17,-112 c -3,-39 -10,-69 -14,-66 -4,2 -6,15 -4,27 2,13 6,45 9,71 10,75 17,48 9,-32 z m 1545,-55 c 1,-108 -5,-93 -12,29 -4,61 -3,90 2,75 5,-14 9,-61 10,-104 z"
       id="path34"
       inkscape:connector-curvature="0" />
    <path
       d="m 2944,3177 c -3,-8 -3,-56 -2,-108 l 3,-94 37,-3 c 20,-2 46,2 57,8 54,28 64,146 16,187 -30,26 -102,32 -111,10 z"
       id="path36"
       inkscape:connector-curvature="0" />
  </g>
  <g
     id="layer110"
     transform="matrix(1.220339,0,0,1.220339,-550.8475,-550.8475)"
     style="fill:#bb794b;stroke:none">
    <path
       d="M 0,2500 V 0 H 2500 5000 V 2500 5000 H 2500 0 Z m 1414,694 c 10,-25 7,-74 -4,-74 -5,0 -10,11 -10,24 0,34 -22,48 -72,44 l -43,-3 -3,-103 c -3,-97 -1,-104 18,-109 39,-10 20,-23 -35,-23 -30,0 -55,5 -55,10 0,6 9,10 20,10 19,0 20,7 20,110 0,103 -1,110 -20,110 -11,0 -20,5 -20,10 0,6 40,10 99,10 81,0 100,-3 105,-16 z m 266,-4 c 34,-24 54,-92 48,-161 -5,-45 -3,-52 16,-59 18,-7 19,-9 5,-15 -9,-3 -34,-5 -55,-2 -34,3 -36,5 -16,12 20,7 22,14 22,79 0,109 -24,144 -91,134 -34,-4 -59,-60 -59,-130 0,-47 4,-60 20,-70 32,-20 24,-28 -30,-28 -27,0 -50,5 -50,10 0,6 7,10 15,10 12,0 15,15 15,74 0,95 14,134 54,152 44,19 73,17 106,-6 z m 321,-1 c 16,-11 29,-25 29,-31 0,-7 -4,-7 -13,0 -7,6 -31,14 -52,17 -78,12 -124,-67 -90,-149 26,-60 125,-72 125,-15 0,12 5,19 13,17 22,-8 14,-52 -13,-65 -77,-39 -171,27 -172,121 -1,60 16,91 61,110 50,21 78,19 112,-5 z m 284,11 c -3,-5 -15,-10 -26,-10 -15,0 -19,-7 -19,-38 0,-21 8,-49 17,-62 23,-32 50,-80 59,-102 3,-10 13,-18 20,-18 8,0 14,-4 14,-10 0,-5 -23,-10 -51,-10 -31,0 -48,4 -44,10 3,6 13,10 21,10 8,0 14,5 14,10 0,13 -50,109 -60,115 -4,3 -15,-12 -24,-33 -9,-20 -23,-47 -33,-60 -15,-22 -15,-23 5,-29 35,-9 14,-23 -34,-23 -42,0 -59,12 -30,23 7,3 22,23 32,44 11,21 28,51 39,67 26,40 28,97 3,104 -38,10 -15,22 43,22 37,0 58,-4 54,-10 z m 505,-30 c 0,-22 -4,-40 -10,-40 -5,0 -10,11 -10,25 0,28 -26,39 -81,33 -34,-3 -34,-4 -37,-56 l -3,-53 45,6 c 39,6 46,5 46,-10 0,-13 -8,-16 -42,-13 l -43,3 v -45 c 0,-42 2,-45 29,-48 40,-5 76,6 76,23 0,7 5,17 10,20 6,4 10,-8 10,-29 v -36 h -100 c -60,0 -100,4 -100,10 0,6 9,10 20,10 19,0 20,7 20,110 0,103 -1,110 -20,110 -11,0 -20,5 -20,10 0,6 42,10 105,10 h 105 z m 290,5 c 57,-54 57,-149 1,-199 -16,-15 -41,-20 -116,-24 -67,-3 -95,-1 -95,7 0,6 9,11 20,11 19,0 20,7 20,110 0,103 -1,110 -20,110 -11,0 -20,5 -20,11 0,8 27,10 91,7 81,-5 93,-8 119,-33 z m 323,16 c 22,-9 27,-17 27,-45 0,-19 6,-36 13,-39 26,-9 -3,-18 -49,-15 -48,3 -48,4 -21,16 20,9 27,18 27,41 0,23 -5,30 -26,35 -40,10 -81,-2 -104,-31 -27,-35 -27,-105 0,-143 35,-49 114,-52 126,-5 7,28 34,23 34,-7 0,-26 -62,-52 -106,-44 -91,18 -143,127 -93,198 39,54 98,68 172,39 z m 337,-21 c 0,-48 -11,-52 -27,-9 -11,29 -14,30 -60,27 l -48,-3 -3,-53 -3,-53 45,6 c 39,6 46,5 46,-10 0,-13 -8,-16 -42,-13 l -43,3 v -45 c 0,-42 2,-45 29,-48 40,-5 76,6 76,23 0,7 5,17 10,20 6,4 10,-8 10,-29 v -36 h -100 c -60,0 -100,4 -100,10 0,6 9,10 20,10 19,0 20,7 20,110 0,103 -1,110 -20,110 -11,0 -20,5 -20,10 0,6 42,10 105,10 h 105 z M 2274,2714 c 16,-2 31,-5 32,-7 2,-2 -27,-16 -64,-32 -37,-16 -89,-42 -115,-57 -72,-42 -185,-136 -200,-167 -7,-14 -18,-25 -24,-24 -6,1 -127,-67 -269,-151 -143,-85 -260,-152 -262,-151 -6,6 40,90 93,170 90,135 253,278 386,338 101,46 223,77 298,77 27,0 53,5 56,11 4,6 14,7 24,4 9,-4 29,-9 45,-11 z m 260,-71 c 72,-112 111,-193 135,-283 13,-47 27,-96 31,-110 11,-37 9,-272 -2,-322 -14,-59 -47,-179 -57,-203 -19,-45 -77,-154 -114,-213 l -40,-64 -44,69 c -134,207 -191,408 -180,633 7,134 31,235 81,344 43,93 124,216 143,216 2,0 23,-30 47,-67 z m 469,38 c 238,-66 446,-238 582,-484 20,-37 36,-70 34,-71 -2,-2 -123,67 -269,154 -146,87 -267,157 -270,156 -3,0 -24,20 -48,45 -70,77 -212,166 -352,223 -8,3 44,4 115,2 93,-3 152,-10 208,-25 z m -593,2 c -5,-10 -22,-31 -36,-48 l -26,-30 22,38 c 12,20 19,37 16,37 -4,0 -34,-11 -68,-25 -34,-14 -64,-23 -66,-20 -3,3 8,10 24,15 16,6 47,19 69,30 54,25 79,26 65,3 z m 215,-4 c 5,-5 15,-9 23,-9 39,0 196,-90 286,-164 112,-92 240,-281 283,-416 23,-73 35,-129 31,-141 -2,-7 -12,20 -22,60 -66,273 -242,491 -492,610 -90,43 -142,61 -147,48 -2,-7 -8,-3 -15,10 -11,20 -10,21 16,17 15,-3 31,-9 37,-15 z m -390,-59 c -3,-5 -11,-10 -16,-10 -6,0 -7,5 -4,10 3,6 11,10 16,10 6,0 7,-4 4,-10 z m -50,-26 c -25,-20 -75,-46 -75,-40 0,5 82,56 90,56 3,-1 -4,-8 -15,-16 z m 165,2 c 0,-3 -5,-8 -12,-12 -7,-4 -8,-3 -4,4 7,12 16,16 16,8 z m -300,-95 c -30,-27 -79,-76 -109,-108 -38,-40 -44,-45 -22,-16 32,42 168,173 180,173 3,0 -19,-22 -49,-49 z m -160,-175 c 0,-3 -5,-8 -12,-12 -7,-4 -8,-3 -4,4 7,12 16,16 16,8 z m -20,-30 c 0,-3 -5,-8 -12,-12 -7,-4 -8,-3 -4,4 7,12 16,16 16,8 z m -29,-49 c -10,-9 -11,-8 -5,6 3,10 9,15 12,12 3,-3 0,-11 -7,-18 z m -18,-32 c -3,-9 -8,-14 -10,-11 -3,3 -2,9 2,15 9,16 15,13 8,-4 z m -22,-48 c -10,-9 -11,-8 -5,6 3,10 9,15 12,12 3,-3 0,-11 -7,-18 z m -20,-48 c -5,-13 -10,-19 -10,-12 -1,15 10,45 15,40 3,-2 0,-15 -5,-28 z m -20,-66 c -10,-17 -10,-16 -11,3 0,23 13,41 18,25 2,-6 -1,-18 -7,-28 z m -20,-80 c -9,-16 -10,-16 -11,4 0,12 3,30 7,40 7,16 8,16 11,-4 2,-12 -1,-30 -7,-40 z m -17,-112 c -3,-39 -10,-69 -14,-66 -4,2 -6,15 -4,27 2,13 6,45 9,71 10,75 17,48 9,-32 z m 1545,-55 c 1,-108 -5,-93 -12,29 -4,61 -3,90 2,75 5,-14 9,-61 10,-104 z"
       id="path39"
       inkscape:connector-curvature="0" />
    <path
       d="m 2944,3177 c -3,-8 -3,-56 -2,-108 l 3,-94 37,-3 c 20,-2 46,2 57,8 54,28 64,146 16,187 -30,26 -102,32 -111,10 z"
       id="path41"
       inkscape:connector-curvature="0" />
  </g>
  <g
     id="layer111"
     transform="matrix(1.220339,0,0,1.220339,-550.8475,-550.8475)"
     style="fill:#c54675;stroke:none">
    <path
       d="M 0,2500 V 0 H 2500 5000 V 2500 5000 H 2500 0 Z m 1414,694 c 10,-25 7,-74 -4,-74 -5,0 -10,11 -10,24 0,34 -22,48 -72,44 l -43,-3 -3,-103 c -3,-97 -1,-104 18,-109 39,-10 20,-23 -35,-23 -30,0 -55,5 -55,10 0,6 9,10 20,10 19,0 20,7 20,110 0,103 -1,110 -20,110 -11,0 -20,5 -20,10 0,6 40,10 99,10 81,0 100,-3 105,-16 z m 266,-4 c 34,-24 54,-92 48,-161 -5,-45 -3,-52 16,-59 18,-7 19,-9 5,-15 -9,-3 -34,-5 -55,-2 -34,3 -36,5 -16,12 20,7 22,14 22,79 0,109 -24,144 -91,134 -34,-4 -59,-60 -59,-130 0,-47 4,-60 20,-70 32,-20 24,-28 -30,-28 -27,0 -50,5 -50,10 0,6 7,10 15,10 12,0 15,15 15,74 0,95 14,134 54,152 44,19 73,17 106,-6 z m 321,-1 c 16,-11 29,-25 29,-31 0,-7 -4,-7 -13,0 -7,6 -31,14 -52,17 -78,12 -124,-67 -90,-149 26,-60 125,-72 125,-15 0,12 5,19 13,17 22,-8 14,-52 -13,-65 -77,-39 -171,27 -172,121 -1,60 16,91 61,110 50,21 78,19 112,-5 z m 284,11 c -3,-5 -15,-10 -26,-10 -15,0 -19,-7 -19,-38 0,-21 8,-49 17,-62 23,-32 50,-80 59,-102 3,-10 13,-18 20,-18 8,0 14,-4 14,-10 0,-5 -23,-10 -51,-10 -31,0 -48,4 -44,10 3,6 13,10 21,10 8,0 14,5 14,10 0,13 -50,109 -60,115 -4,3 -15,-12 -24,-33 -9,-20 -23,-47 -33,-60 -15,-22 -15,-23 5,-29 35,-9 14,-23 -34,-23 -42,0 -59,12 -30,23 7,3 22,23 32,44 11,21 28,51 39,67 26,40 28,97 3,104 -38,10 -15,22 43,22 37,0 58,-4 54,-10 z m 505,-30 c 0,-22 -4,-40 -10,-40 -5,0 -10,11 -10,25 0,28 -26,39 -81,33 -34,-3 -34,-4 -37,-56 l -3,-53 45,6 c 39,6 46,5 46,-10 0,-13 -8,-16 -42,-13 l -43,3 v -45 c 0,-42 2,-45 29,-48 40,-5 76,6 76,23 0,7 5,17 10,20 6,4 10,-8 10,-29 v -36 h -100 c -60,0 -100,4 -100,10 0,6 9,10 20,10 19,0 20,7 20,110 0,103 -1,110 -20,110 -11,0 -20,5 -20,10 0,6 42,10 105,10 h 105 z m 290,5 c 57,-54 57,-149 1,-199 -16,-15 -41,-20 -116,-24 -67,-3 -95,-1 -95,7 0,6 9,11 20,11 19,0 20,7 20,110 0,103 -1,110 -20,110 -11,0 -20,5 -20,11 0,8 27,10 91,7 81,-5 93,-8 119,-33 z m 323,16 c 22,-9 27,-17 27,-45 0,-19 6,-36 13,-39 26,-9 -3,-18 -49,-15 -48,3 -48,4 -21,16 20,9 27,18 27,41 0,23 -5,30 -26,35 -40,10 -81,-2 -104,-31 -27,-35 -27,-105 0,-143 35,-49 114,-52 126,-5 7,28 34,23 34,-7 0,-26 -62,-52 -106,-44 -91,18 -143,127 -93,198 39,54 98,68 172,39 z m 337,-21 c 0,-48 -11,-52 -27,-9 -11,29 -14,30 -60,27 l -48,-3 -3,-53 -3,-53 45,6 c 39,6 46,5 46,-10 0,-13 -8,-16 -42,-13 l -43,3 v -45 c 0,-42 2,-45 29,-48 40,-5 76,6 76,23 0,7 5,17 10,20 6,4 10,-8 10,-29 v -36 h -100 c -60,0 -100,4 -100,10 0,6 9,10 20,10 19,0 20,7 20,110 0,103 -1,110 -20,110 -11,0 -20,5 -20,10 0,6 42,10 105,10 h 105 z M 2352,2715 c -1,-5 -24,-17 -50,-26 -112,-38 -235,-115 -337,-211 -36,-33 -65,-57 -65,-54 0,9 -17,0 -290,-163 -135,-80 -249,-148 -253,-150 -13,-5 61,138 103,199 144,213 368,360 613,405 83,16 283,15 279,0 z m 524,4 c 100,-14 221,-52 306,-96 96,-50 222,-156 298,-249 59,-74 175,-272 154,-263 -5,2 -119,70 -254,150 -254,152 -291,173 -300,174 -3,0 -36,27 -73,60 -82,74 -216,155 -314,191 -50,18 -70,30 -61,35 18,12 153,11 244,-2 z m -342,-76 c 72,-112 111,-193 135,-283 13,-47 27,-96 31,-110 11,-37 9,-272 -2,-322 -14,-59 -47,-179 -57,-203 -19,-45 -77,-154 -114,-213 l -40,-64 -44,69 c -134,207 -191,408 -180,633 7,134 31,235 81,344 43,93 124,216 143,216 2,0 23,-30 47,-67 z m -124,40 c -5,-10 -22,-31 -36,-48 l -26,-30 22,38 c 12,20 19,37 16,37 -4,0 -34,-11 -68,-25 -34,-14 -64,-23 -66,-20 -3,3 8,10 24,15 16,6 47,19 69,30 54,25 79,26 65,3 z m 215,-4 c 5,-5 15,-9 23,-9 39,0 196,-90 286,-164 112,-92 240,-281 283,-416 23,-73 35,-129 31,-141 -2,-7 -12,20 -22,60 -66,273 -242,491 -492,610 -90,43 -142,61 -147,48 -2,-7 -8,-3 -15,10 -11,20 -10,21 16,17 15,-3 31,-9 37,-15 z m -390,-59 c -3,-5 -11,-10 -16,-10 -6,0 -7,5 -4,10 3,6 11,10 16,10 6,0 7,-4 4,-10 z m -50,-26 c -25,-20 -75,-46 -75,-40 0,5 82,56 90,56 3,-1 -4,-8 -15,-16 z m 165,2 c 0,-3 -5,-8 -12,-12 -7,-4 -8,-3 -4,4 7,12 16,16 16,8 z m -300,-95 c -30,-27 -79,-76 -109,-108 -38,-40 -44,-45 -22,-16 32,42 168,173 180,173 3,0 -19,-22 -49,-49 z m -160,-175 c 0,-3 -5,-8 -12,-12 -7,-4 -8,-3 -4,4 7,12 16,16 16,8 z m -20,-30 c 0,-3 -5,-8 -12,-12 -7,-4 -8,-3 -4,4 7,12 16,16 16,8 z m -29,-49 c -10,-9 -11,-8 -5,6 3,10 9,15 12,12 3,-3 0,-11 -7,-18 z m -18,-32 c -3,-9 -8,-14 -10,-11 -3,3 -2,9 2,15 9,16 15,13 8,-4 z m -22,-48 c -10,-9 -11,-8 -5,6 3,10 9,15 12,12 3,-3 0,-11 -7,-18 z m -20,-48 c -5,-13 -10,-19 -10,-12 -1,15 10,45 15,40 3,-2 0,-15 -5,-28 z m -20,-66 c -10,-17 -10,-16 -11,3 0,23 13,41 18,25 2,-6 -1,-18 -7,-28 z m -20,-80 c -9,-16 -10,-16 -11,4 0,12 3,30 7,40 7,16 8,16 11,-4 2,-12 -1,-30 -7,-40 z m -17,-112 c -3,-39 -10,-69 -14,-66 -4,2 -6,15 -4,27 2,13 6,45 9,71 10,75 17,48 9,-32 z m 1545,-55 c 1,-108 -5,-93 -12,29 -4,61 -3,90 2,75 5,-14 9,-61 10,-104 z"
       id="path44"
       inkscape:connector-curvature="0" />
    <path
       d="m 2944,3177 c -3,-8 -3,-56 -2,-108 l 3,-94 37,-3 c 20,-2 46,2 57,8 54,28 64,146 16,187 -30,26 -102,32 -111,10 z"
       id="path46"
       inkscape:connector-curvature="0" />
  </g>
  <g
     id="layer112"
     transform="matrix(1.220339,0,0,1.220339,-550.8475,-550.8475)"
     style="fill:#d36d8f;stroke:none">
    <path
       d="M 0,2500 V 0 H 2500 5000 V 2500 5000 H 2500 0 Z m 1420,665 c 0,-25 -4,-45 -10,-45 -5,0 -10,10 -10,23 0,33 -18,47 -60,47 -53,0 -60,-13 -60,-112 0,-77 2,-89 20,-100 33,-21 23,-28 -35,-28 -54,0 -74,13 -35,23 18,5 20,14 20,107 0,93 -2,102 -20,107 -49,13 -12,23 85,23 h 105 z m 270,16 c 34,-28 34,-29 36,-117 2,-73 5,-90 18,-92 33,-7 3,-22 -41,-22 h -47 l 22,20 c 18,17 22,32 22,83 0,84 -25,127 -75,127 -50,0 -67,-30 -67,-121 0,-56 3,-75 16,-84 26,-20 19,-25 -34,-25 -27,0 -50,5 -50,10 0,6 7,10 15,10 12,0 15,15 15,74 0,95 14,134 54,152 48,20 79,17 116,-15 z m 314,8 c 14,-11 26,-25 26,-31 0,-7 -4,-7 -13,0 -7,6 -31,14 -52,17 -78,12 -124,-66 -89,-150 22,-54 124,-66 124,-14 0,12 5,19 13,17 22,-8 14,-52 -13,-65 -36,-18 -70,-16 -107,7 -45,27 -65,62 -65,115 -1,59 16,90 61,109 50,21 84,19 115,-5 z m 264,0 c -33,-24 -36,-58 -10,-97 37,-58 43,-68 55,-94 6,-16 17,-28 24,-28 7,0 13,-4 13,-10 0,-5 -23,-10 -51,-10 -31,0 -48,4 -44,10 3,6 13,10 21,10 8,0 14,5 14,12 0,21 -51,99 -63,95 -13,-4 -56,-76 -57,-94 0,-7 7,-13 16,-13 8,0 12,-4 9,-10 -3,-5 -26,-10 -51,-10 -24,0 -44,5 -44,10 0,6 5,10 10,10 6,0 15,10 20,23 6,12 19,36 30,52 26,39 36,63 43,103 6,28 4,35 -13,39 -41,11 -18,23 43,23 l 62,-1 z m 522,-19 c 0,-47 -11,-52 -27,-10 -10,27 -15,30 -57,30 -40,0 -46,-3 -52,-24 -3,-13 -4,-37 -2,-52 3,-27 5,-29 46,-26 33,3 42,0 42,-12 0,-12 -11,-16 -45,-16 -44,0 -45,-1 -45,-33 0,-40 15,-57 51,-57 37,0 59,9 59,25 0,8 5,17 10,20 6,4 10,-8 10,-29 v -36 h -100 c -92,0 -128,10 -80,23 18,5 20,14 20,107 0,93 -2,102 -20,107 -49,13 -12,23 85,23 h 105 z m 297,-2 c 32,-32 35,-41 35,-92 1,-51 -2,-61 -30,-88 -28,-29 -35,-31 -126,-36 -65,-3 -96,-1 -96,6 0,6 9,14 20,17 18,6 20,15 20,107 0,91 -2,100 -20,105 -11,3 -20,10 -20,16 0,6 32,8 91,5 88,-5 93,-7 126,-40 z m 316,23 c 22,-9 27,-17 27,-45 0,-19 6,-36 13,-39 26,-9 -3,-18 -49,-15 -48,3 -48,4 -21,16 37,16 38,58 1,72 -87,33 -162,-89 -104,-170 34,-48 103,-51 120,-4 11,28 40,23 40,-8 0,-13 -12,-24 -37,-34 -121,-51 -238,102 -153,200 41,47 91,55 163,27 z m 337,-21 c 0,-47 -11,-52 -27,-10 -10,27 -15,30 -57,30 -40,0 -46,-3 -52,-24 -3,-13 -4,-37 -2,-52 3,-27 5,-29 46,-26 33,3 42,0 42,-12 0,-12 -11,-16 -45,-16 -44,0 -45,-1 -45,-33 0,-40 15,-57 51,-57 37,0 59,9 59,25 0,8 5,17 10,20 6,4 10,-8 10,-29 v -36 h -100 c -92,0 -128,10 -80,23 18,5 20,14 20,107 0,93 -2,102 -20,107 -49,13 -12,23 85,23 h 105 z M 2352,2715 c -1,-5 -24,-17 -50,-26 -112,-38 -235,-115 -337,-211 -36,-33 -65,-57 -65,-54 0,9 -17,0 -290,-163 -135,-80 -249,-148 -253,-150 -13,-5 61,138 103,199 144,213 368,360 613,405 83,16 283,15 279,0 z m 524,4 c 100,-14 221,-52 306,-96 96,-50 222,-156 298,-249 59,-74 175,-272 154,-263 -5,2 -119,70 -254,150 -254,152 -291,173 -300,174 -3,0 -36,27 -73,60 -82,74 -216,155 -314,191 -50,18 -70,30 -61,35 18,12 153,11 244,-2 z m -344,-71 c 66,-97 112,-194 144,-303 47,-163 42,-399 -12,-555 -37,-105 -107,-246 -154,-308 l -24,-32 -44,67 c -133,207 -190,408 -179,633 7,134 31,235 81,344 43,92 124,216 142,216 2,0 22,-28 46,-62 z m -123,33 c -8,-10 -36,-50 -64,-88 -256,-355 -641,-863 -643,-849 -6,29 21,209 48,316 16,66 102,238 147,295 68,86 189,199 233,219 8,3 31,16 50,28 50,31 202,97 224,97 16,1 17,-1 5,-18 z m 290,-29 c 48,-21 120,-60 159,-86 125,-83 286,-276 324,-389 6,-18 15,-37 19,-43 24,-30 69,-253 69,-338 v -69 l -23,34 c -40,60 -589,802 -627,849 -21,25 -42,55 -49,67 -10,20 -9,21 15,17 14,-2 65,-22 113,-42 z"
       id="path49"
       inkscape:connector-curvature="0" />
    <path
       d="m 2951,3176 c -8,-9 -11,-46 -9,-101 4,-104 13,-116 77,-96 32,9 44,19 55,45 21,51 13,116 -19,143 -30,26 -86,31 -104,9 z"
       id="path51"
       inkscape:connector-curvature="0" />
  </g>
  <g
     id="layer113"
     transform="matrix(1.220339,0,0,1.220339,-550.8475,-550.8475)"
     style="fill:#e26391;stroke:none">
    <path
       d="M 0,2500 V 0 H 2500 5000 V 2500 5000 H 2500 0 Z m 1420,665 c 0,-53 -13,-59 -26,-12 -9,30 -13,32 -54,32 h -45 l -3,-103 c -2,-85 0,-103 13,-108 32,-13 13,-24 -40,-24 -54,0 -74,13 -35,23 18,5 20,14 20,107 0,93 -2,102 -20,107 -49,13 -12,23 85,23 h 105 z m 271,17 c 30,-27 32,-32 37,-120 4,-70 8,-92 19,-92 8,0 11,-4 8,-10 -3,-5 -27,-10 -52,-10 h -47 l 22,20 c 25,23 30,87 12,152 -17,58 -71,77 -110,38 -17,-17 -20,-33 -20,-100 0,-62 3,-82 15,-86 31,-12 13,-24 -35,-24 -27,0 -50,5 -50,10 0,6 7,10 15,10 12,0 15,17 15,91 0,87 1,92 29,120 40,40 98,41 142,1 z m 304,18 c 24,-9 43,-35 33,-45 -3,-3 -19,2 -36,11 -41,20 -94,5 -111,-32 -20,-44 -14,-102 14,-129 33,-34 81,-34 97,0 6,14 16,24 22,22 19,-6 19,-38 0,-58 -35,-39 -131,-14 -169,45 -20,30 -23,107 -6,139 26,49 96,70 156,47 z m 271,-13 c -25,-20 -28,-28 -22,-53 9,-35 73,-144 94,-161 23,-19 10,-25 -44,-20 -39,3 -44,5 -26,11 12,5 22,10 22,12 0,13 -52,104 -59,104 -10,0 -61,-83 -61,-99 0,-6 7,-11 16,-11 8,0 12,-4 9,-10 -8,-13 -95,-13 -95,-1 0,6 4,13 10,16 18,11 88,140 94,173 5,28 3,35 -14,39 -41,11 -18,23 43,23 h 62 z m 524,-17 c 0,-44 -14,-54 -24,-16 -3,13 -16,26 -28,30 -38,10 -78,7 -79,-6 0,-7 -1,-30 -3,-50 l -3,-38 h 44 c 32,0 43,-4 43,-15 0,-11 -11,-15 -43,-15 h -43 l 5,-42 c 5,-35 10,-44 30,-46 38,-6 68,6 75,30 l 7,23 11,-22 c 22,-45 7,-53 -102,-53 -92,0 -128,10 -80,23 18,5 20,14 20,107 0,93 -2,102 -20,107 -49,13 -12,23 85,23 h 105 z m 265,26 c 47,-20 69,-58 69,-122 1,-47 -3,-57 -32,-86 -31,-32 -35,-33 -127,-36 -61,-3 -95,0 -95,6 0,6 9,14 20,17 18,6 20,15 20,107 0,91 -2,100 -20,105 -11,3 -20,9 -20,14 0,15 148,10 185,-5 z m 345,-1 c 24,-13 30,-22 30,-49 0,-19 6,-36 13,-39 26,-9 -3,-18 -49,-14 -39,3 -44,5 -26,11 16,6 22,16 22,37 0,33 -12,42 -53,41 -95,-3 -117,-176 -25,-200 44,-11 68,-4 78,24 11,27 40,23 40,-7 0,-44 -91,-65 -151,-34 -58,30 -85,112 -59,179 21,57 117,84 180,51 z m 340,-25 c 0,-47 -11,-52 -27,-10 -10,27 -15,30 -57,30 h -46 v -50 -50 h 40 c 29,0 40,-4 40,-15 0,-11 -11,-15 -41,-15 h -40 l 3,-42 c 3,-36 7,-44 27,-46 38,-6 68,6 75,30 l 7,23 11,-22 c 22,-45 7,-53 -102,-53 -92,0 -128,10 -80,23 18,5 20,14 20,107 0,93 -2,102 -20,107 -49,13 -12,23 85,23 h 105 z M 2352,2715 c -1,-5 -24,-17 -50,-26 -112,-38 -235,-115 -337,-211 -36,-33 -65,-57 -65,-54 0,9 -17,0 -290,-163 -135,-80 -249,-148 -253,-150 -13,-5 61,138 103,199 144,213 368,360 613,405 83,16 283,15 279,0 z m 524,4 c 100,-14 221,-52 306,-96 96,-50 222,-156 298,-249 59,-74 175,-272 154,-263 -5,2 -119,70 -254,150 -254,152 -291,173 -300,174 -3,0 -36,27 -73,60 -82,74 -216,155 -314,191 -50,18 -70,30 -61,35 18,12 153,11 244,-2 z m -266,-203 c 86,-175 95,-216 94,-426 0,-161 -2,-182 -27,-265 -31,-103 -109,-269 -157,-334 l -32,-44 -45,69 c -125,193 -183,381 -183,587 0,131 23,248 70,361 32,77 95,182 134,224 l 21,24 33,-38 c 18,-21 59,-92 92,-158 z m -196,172 c -5,-7 -27,-42 -51,-77 -24,-36 -43,-69 -43,-73 0,-5 -5,-6 -12,-2 -8,5 -9,2 -5,-10 4,-9 3,-14 -2,-11 -5,3 -141,-173 -302,-391 -162,-218 -295,-391 -297,-385 -7,21 19,211 39,289 27,107 106,264 176,353 100,125 211,206 393,285 80,35 116,42 104,22 z m 283,-36 c 49,-21 121,-59 160,-85 91,-60 219,-195 272,-284 86,-148 141,-335 141,-482 v -74 l -23,34 c -32,47 -588,802 -600,814 -5,6 -4,0 2,-12 27,-53 7,-31 -30,32 -22,39 -48,79 -57,89 -16,18 -16,19 14,13 17,-3 72,-23 121,-45 z m -19,-157 c -3,-3 -9,2 -12,12 -6,14 -5,15 5,6 7,-7 10,-15 7,-18 z m -391,-32 c -4,-3 -7,0 -7,7 0,7 3,10 7,7 3,-4 3,-10 0,-14 z m 411,-18 c -3,-3 -9,2 -12,12 -6,14 -5,15 5,6 7,-7 10,-15 7,-18 z m -431,-42 c -4,-3 -7,0 -7,7 0,7 3,10 7,7 3,-4 3,-10 0,-14 z m 451,-8 c -3,-3 -9,2 -12,12 -6,14 -5,15 5,6 7,-7 10,-15 7,-18 z m -471,-52 c -4,-3 -7,0 -7,7 0,7 3,10 7,7 3,-4 3,-10 0,-14 z m 490,-20 c -4,-3 -7,0 -7,7 0,7 3,10 7,7 3,-4 3,-10 0,-14 z m -510,-75 c -3,-8 -6,-5 -6,6 -1,11 2,17 5,13 3,-3 4,-12 1,-19 z m 530,-20 c -3,-7 -5,-2 -5,12 0,14 2,19 5,13 2,-7 2,-19 0,-25 z m -572,-226 -39,-37 35,41 c 19,22 36,39 39,37 2,-2 -13,-20 -35,-41 z m 582,21 c -4,-3 -7,0 -7,7 0,7 3,10 7,7 3,-4 3,-10 0,-14 z m 133,-110 c 0,-7 -56,35 -71,54 -8,9 5,2 29,-17 23,-18 42,-35 42,-37 z m -780,33 c 0,-2 -8,-10 -17,-17 -16,-13 -17,-12 -4,4 13,16 21,21 21,13 z m -50,-40 c 0,-3 -5,-8 -12,-12 -7,-4 -8,-3 -4,4 7,12 16,16 16,8 z m 855,-6 c 3,-5 4,-10 1,-10 -3,0 -8,5 -11,10 -3,6 -4,10 -1,10 3,0 8,-4 11,-10 z m -885,-14 c 0,-3 -5,-8 -12,-12 -7,-4 -8,-3 -4,4 7,12 16,16 16,8 z m 915,-6 c 3,-5 4,-10 1,-10 -3,0 -8,5 -11,10 -3,6 -4,10 -1,10 3,0 8,-4 11,-10 z m -950,-20 c -3,-5 -12,-10 -18,-10 -7,0 -6,4 3,10 19,12 23,12 15,0 z m 1005,-16 c 0,-2 -9,0 -20,6 -11,6 -20,13 -20,16 0,2 9,0 20,-6 11,-6 20,-13 20,-16 z m -1093,-31 c -4,-3 -10,-3 -14,0 -3,4 0,7 7,7 7,0 10,-3 7,-7 z m -40,-20 c -4,-3 -10,-3 -14,0 -3,4 0,7 7,7 7,0 10,-3 7,-7 z m 1240,0 c -4,-3 -10,-3 -14,0 -3,4 0,7 7,7 7,0 10,-3 7,-7 z m -1280,-20 c -4,-3 -10,-3 -14,0 -3,4 0,7 7,7 7,0 10,-3 7,-7 z m 1320,0 c -4,-3 -10,-3 -14,0 -3,4 0,7 7,7 7,0 10,-3 7,-7 z m -1370,-20 c -4,-3 -10,-3 -14,0 -3,4 0,7 7,7 7,0 10,-3 7,-7 z m 1420,0 c -4,-3 -10,-3 -14,0 -3,4 0,7 7,7 7,0 10,-3 7,-7 z"
       id="path54"
       inkscape:connector-curvature="0" />
    <path
       d="m 2958,3184 c -5,-4 -8,-52 -8,-106 0,-109 5,-118 62,-102 45,13 70,52 70,109 0,37 -6,53 -24,72 -24,24 -87,41 -100,27 z"
       id="path56"
       inkscape:connector-curvature="0" />
  </g>
  <g
     id="layer114"
     transform="matrix(1.220339,0,0,1.220339,-550.8475,-550.8475)"
     style="fill:#f8944e;stroke:none">
    <path
       d="M 0,2500 V 0 H 2500 5000 V 2500 5000 H 2500 0 Z m 1420,665 c 0,-51 -15,-60 -25,-15 -7,32 -33,45 -76,38 -23,-3 -24,-6 -27,-106 -2,-85 0,-103 13,-108 32,-13 13,-24 -40,-24 -54,0 -74,13 -35,23 18,5 20,14 20,107 0,93 -2,102 -20,107 -49,13 -12,23 85,23 h 105 z m 271,17 c 30,-27 32,-32 37,-120 4,-70 8,-92 19,-92 8,0 11,-4 8,-10 -3,-5 -27,-10 -52,-10 h -47 l 22,20 c 25,23 30,87 12,152 -17,58 -71,77 -110,38 -17,-17 -20,-33 -20,-100 0,-62 3,-82 15,-86 31,-12 13,-24 -35,-24 -27,0 -50,5 -50,10 0,6 7,10 15,10 12,0 15,17 15,91 0,87 1,92 29,120 40,40 98,41 142,1 z m 304,18 c 24,-9 43,-35 33,-45 -3,-3 -19,2 -36,11 -41,20 -94,5 -111,-32 -20,-44 -14,-102 14,-129 33,-34 81,-34 97,0 6,14 16,24 22,22 19,-6 19,-38 0,-58 -35,-39 -131,-14 -169,45 -20,30 -23,107 -6,139 26,49 96,70 156,47 z m 271,-13 c -24,-20 -28,-28 -22,-52 9,-36 85,-165 97,-165 5,0 9,-4 9,-10 0,-5 -24,-10 -52,-9 -51,0 -52,1 -31,16 l 22,15 -25,49 c -13,27 -28,49 -33,49 -10,0 -61,-83 -61,-99 0,-6 7,-11 16,-11 8,0 12,-4 9,-10 -8,-13 -95,-13 -95,-1 0,6 4,13 10,16 5,3 28,36 50,74 42,71 52,127 25,137 -33,13 -11,24 48,24 h 62 z m 524,-17 c 0,-44 -14,-54 -24,-16 -7,27 -50,42 -86,31 -16,-5 -20,-15 -20,-51 v -44 h 40 c 29,0 40,-4 40,-15 0,-11 -11,-15 -41,-15 h -40 l 3,-42 c 3,-36 7,-44 27,-46 38,-6 68,6 75,30 l 7,23 11,-22 c 22,-45 7,-53 -102,-53 -92,0 -128,10 -80,23 18,5 20,14 20,107 0,93 -2,102 -20,107 -49,13 -12,23 85,23 h 105 z m 265,26 c 47,-20 69,-58 69,-122 1,-47 -3,-57 -32,-86 -31,-32 -35,-33 -127,-36 -61,-3 -95,0 -95,6 0,6 9,14 20,17 18,6 20,15 20,107 0,91 -2,100 -20,105 -11,3 -20,9 -20,14 0,15 148,10 185,-5 z m 345,-1 c 24,-13 30,-22 30,-49 0,-19 6,-36 13,-39 26,-9 -3,-18 -49,-14 -40,3 -45,5 -26,12 19,6 22,14 20,39 -3,28 -7,31 -42,34 -69,6 -112,-65 -86,-144 14,-40 35,-54 85,-54 29,0 37,5 45,25 11,28 40,24 40,-6 0,-44 -91,-65 -151,-34 -58,30 -85,112 -59,179 21,57 117,84 180,51 z m 340,-25 c 0,-44 -14,-54 -24,-16 -7,27 -50,42 -86,31 -16,-5 -20,-15 -20,-51 v -44 h 40 c 29,0 40,-4 40,-15 0,-11 -11,-15 -41,-15 h -40 l 3,-42 c 3,-36 7,-44 27,-46 38,-6 68,6 75,30 l 7,23 11,-22 c 22,-45 7,-53 -102,-53 -92,0 -128,10 -80,23 18,5 20,14 20,107 0,93 -2,102 -20,107 -49,13 -12,23 85,23 h 105 z M 2352,2715 c -1,-5 -24,-17 -50,-26 -112,-38 -235,-115 -337,-211 -36,-33 -65,-57 -65,-54 0,9 -17,0 -290,-163 -135,-80 -249,-148 -253,-150 -13,-5 61,138 103,199 144,213 368,360 613,405 83,16 283,15 279,0 z m 524,4 c 100,-14 221,-52 306,-96 96,-50 222,-156 298,-249 59,-74 175,-272 154,-263 -5,2 -119,70 -254,150 -254,152 -291,173 -300,174 -3,0 -36,27 -73,60 -82,74 -216,155 -314,191 -50,18 -70,30 -61,35 18,12 153,11 244,-2 z m -266,-203 c 86,-175 95,-216 94,-426 0,-161 -2,-182 -27,-265 -31,-103 -109,-269 -157,-334 l -32,-44 -45,69 c -125,193 -183,381 -183,587 0,131 23,248 70,361 32,77 95,182 134,224 l 21,24 33,-38 c 18,-21 59,-92 92,-158 z m -196,172 c -5,-7 -27,-42 -51,-77 -71,-107 -123,-262 -142,-424 l -8,-72 -2,67 c -1,70 9,123 41,219 37,113 54,132 -325,-381 -72,-96 -145,-195 -163,-219 -19,-24 -32,-46 -31,-48 11,-10 287,125 332,162 114,94 143,123 148,145 l 4,25 2,-26 c 2,-48 -144,-166 -304,-246 -95,-48 -203,-88 -212,-80 -9,10 16,209 37,294 28,108 106,265 177,354 100,125 211,206 393,285 80,35 116,42 104,22 z m 283,-36 c 124,-53 215,-117 310,-215 125,-130 204,-283 243,-469 18,-83 27,-238 15,-238 -2,0 -33,11 -67,24 -137,51 -278,133 -384,223 l -51,43 -6,117 c -10,189 -65,355 -171,512 l -36,54 28,-6 c 16,-3 70,-23 119,-45 z"
       id="path59"
       inkscape:connector-curvature="0" />
    <path
       d="m 2958,3184 c -5,-4 -8,-52 -8,-106 0,-109 5,-118 62,-102 45,13 70,52 70,109 0,37 -6,53 -24,72 -24,24 -87,41 -100,27 z"
       id="path61"
       inkscape:connector-curvature="0" />
    <path
       d="m 2690,2490 c 0,-6 4,-18 9,-28 15,-30 28,-66 39,-107 6,-22 15,-59 21,-81 6,-23 11,-87 11,-142 v -101 l 73,-59 c 59,-49 199,-142 213,-142 3,0 98,-43 161,-73 13,-6 25,-8 27,-6 3,2 -26,45 -62,94 -37,50 -117,158 -178,240 -60,83 -154,210 -208,283 -54,72 -100,132 -102,132 -2,0 -4,-5 -4,-10 z"
       id="path63"
       inkscape:connector-curvature="0" />
  </g>
  <g
     id="layer115"
     transform="matrix(1.220339,0,0,1.220339,-550.8475,-550.8475)"
     style="fill:#f65a93;stroke:none">
    <path
       d="M 0,2500 V 0 H 2500 5000 V 2500 5000 H 2500 0 Z m 1420,665 c 0,-51 -15,-60 -25,-15 -7,32 -33,45 -76,38 -23,-3 -24,-6 -27,-106 -2,-85 0,-103 13,-108 32,-13 13,-24 -40,-24 -54,0 -74,13 -35,23 18,5 20,14 20,107 0,93 -2,102 -20,107 -49,13 -12,23 85,23 h 105 z m 271,17 c 30,-27 32,-32 37,-120 4,-70 8,-92 19,-92 8,0 11,-4 8,-10 -3,-5 -27,-10 -52,-10 h -47 l 22,20 c 25,23 30,87 12,152 -17,58 -71,77 -110,38 -17,-17 -20,-33 -20,-100 0,-62 3,-82 15,-86 31,-12 13,-24 -35,-24 -27,0 -50,5 -50,10 0,6 7,10 15,10 12,0 15,17 15,91 0,87 1,92 29,120 40,40 98,41 142,1 z m 304,18 c 24,-9 43,-35 33,-45 -3,-3 -19,2 -36,11 -41,20 -94,5 -111,-32 -20,-44 -14,-102 14,-129 33,-34 81,-34 97,0 6,14 16,24 22,22 19,-6 19,-38 0,-58 -35,-39 -131,-14 -169,45 -20,30 -23,107 -6,139 26,49 96,70 156,47 z m 271,-13 c -24,-20 -28,-28 -22,-52 9,-36 85,-165 97,-165 5,0 9,-4 9,-10 0,-5 -24,-10 -52,-9 -51,0 -52,1 -31,16 l 22,15 -25,49 c -13,27 -28,49 -33,49 -10,0 -61,-83 -61,-99 0,-6 7,-11 16,-11 8,0 12,-4 9,-10 -8,-13 -95,-13 -95,-1 0,6 4,13 10,16 5,3 28,36 50,74 42,71 52,127 25,137 -33,13 -11,24 48,24 h 62 z m 524,-17 c 0,-44 -14,-54 -24,-16 -7,27 -50,42 -86,31 -16,-5 -20,-15 -20,-51 v -44 h 40 c 29,0 40,-4 40,-15 0,-11 -11,-15 -41,-15 h -40 l 3,-42 c 3,-36 7,-44 27,-46 38,-6 68,6 75,30 l 7,23 11,-22 c 22,-45 7,-53 -102,-53 -92,0 -128,10 -80,23 18,5 20,14 20,107 0,93 -2,102 -20,107 -49,13 -12,23 85,23 h 105 z m 265,26 c 47,-20 69,-58 69,-122 1,-47 -3,-57 -32,-86 -31,-32 -35,-33 -127,-36 -61,-3 -95,0 -95,6 0,6 9,14 20,17 18,6 20,15 20,107 0,91 -2,100 -20,105 -11,3 -20,9 -20,14 0,15 148,10 185,-5 z m 345,-1 c 24,-13 30,-22 30,-49 0,-19 6,-36 13,-39 26,-9 -3,-18 -49,-14 -40,3 -45,5 -26,12 19,6 22,14 20,39 -3,28 -7,31 -42,34 -69,6 -112,-65 -86,-144 14,-40 35,-54 85,-54 29,0 37,5 45,25 11,28 40,24 40,-6 0,-44 -91,-65 -151,-34 -58,30 -85,112 -59,179 21,57 117,84 180,51 z m 340,-25 c 0,-44 -14,-54 -24,-16 -7,27 -50,42 -86,31 -16,-5 -20,-15 -20,-51 v -44 h 40 c 29,0 40,-4 40,-15 0,-11 -11,-15 -41,-15 h -40 l 3,-42 c 3,-36 7,-44 27,-46 38,-6 68,6 75,30 l 7,23 11,-22 c 22,-45 7,-53 -102,-53 -92,0 -128,10 -80,23 18,5 20,14 20,107 0,93 -2,102 -20,107 -49,13 -12,23 85,23 h 105 z M 2352,2715 c -1,-5 -24,-17 -50,-26 -227,-77 -460,-293 -546,-506 l -24,-58 -64,-12 c -70,-13 -185,-16 -265,-7 l -52,7 36,71 c 144,286 391,477 686,531 83,16 283,15 279,0 z m 524,4 c 100,-14 221,-52 306,-96 158,-83 319,-248 411,-421 46,-88 47,-90 25,-96 -38,-10 -215,-7 -288,5 l -69,12 -38,81 c -101,215 -304,400 -530,482 -50,18 -70,30 -61,35 18,12 153,11 244,-2 z m -266,-203 c 86,-175 95,-216 94,-426 0,-161 -2,-182 -27,-265 -31,-103 -109,-269 -157,-334 l -32,-44 -45,69 c -125,193 -183,381 -183,587 0,131 23,248 70,361 32,77 95,182 134,224 l 21,24 33,-38 c 18,-21 59,-92 92,-158 z m -196,172 c -5,-7 -27,-42 -51,-77 -71,-107 -123,-262 -142,-424 l -8,-72 -2,67 c -1,70 9,123 41,219 37,113 54,132 -325,-381 -72,-96 -145,-195 -163,-219 -19,-24 -32,-46 -31,-48 11,-10 287,125 332,162 114,94 143,123 148,145 l 4,25 2,-26 c 2,-48 -144,-166 -304,-246 -95,-48 -203,-88 -212,-80 -9,10 16,209 37,294 28,108 106,265 177,354 100,125 211,206 393,285 80,35 116,42 104,22 z m 283,-36 c 124,-53 215,-117 310,-215 125,-130 204,-283 243,-469 18,-83 27,-238 15,-238 -2,0 -33,11 -67,24 -137,51 -278,133 -384,223 l -51,43 -6,117 c -10,189 -65,355 -171,512 l -36,54 28,-6 c 16,-3 70,-23 119,-45 z"
       id="path66"
       inkscape:connector-curvature="0" />
    <path
       d="m 2958,3184 c -5,-4 -8,-52 -8,-106 0,-109 5,-118 62,-102 45,13 70,52 70,109 0,37 -6,53 -24,72 -24,24 -87,41 -100,27 z"
       id="path68"
       inkscape:connector-curvature="0" />
    <path
       d="m 2690,2490 c 0,-6 4,-18 9,-28 15,-30 28,-66 39,-107 6,-22 15,-59 21,-81 6,-23 11,-87 11,-142 v -101 l 73,-59 c 59,-49 199,-142 213,-142 3,0 98,-43 161,-73 13,-6 25,-8 27,-6 3,2 -26,45 -62,94 -37,50 -117,158 -178,240 -60,83 -154,210 -208,283 -54,72 -100,132 -102,132 -2,0 -4,-5 -4,-10 z"
       id="path70"
       inkscape:connector-curvature="0" />
  </g>
  <g
     id="layer116"
     transform="matrix(1.220339,0,0,1.220339,-550.8475,-550.8475)"
     style="fill:#feecd5;stroke:none">
    <path
       d="M 0,2500 V 0 H 2500 5000 V 2500 5000 H 2500 0 Z m 1420,665 c 0,-51 -15,-60 -25,-15 -7,32 -33,45 -76,38 -23,-3 -24,-6 -27,-106 -2,-85 0,-103 13,-108 32,-13 13,-24 -40,-24 -54,0 -74,13 -35,23 18,5 20,14 20,107 0,93 -2,102 -20,107 -49,13 -12,23 85,23 h 105 z m 271,17 c 30,-27 32,-32 37,-120 4,-70 8,-92 19,-92 8,0 11,-4 8,-10 -3,-5 -27,-10 -52,-10 h -47 l 22,20 c 25,23 30,87 12,152 -17,58 -71,77 -110,38 -17,-17 -20,-33 -20,-100 0,-62 3,-82 15,-86 31,-12 13,-24 -35,-24 -27,0 -50,5 -50,10 0,6 7,10 15,10 12,0 15,17 15,91 0,87 1,92 29,120 40,40 98,41 142,1 z m 304,18 c 24,-9 43,-35 33,-45 -3,-3 -19,2 -36,11 -41,20 -94,5 -111,-32 -20,-44 -14,-102 14,-129 33,-34 81,-34 97,0 6,14 16,24 22,22 19,-6 19,-38 0,-58 -35,-39 -131,-14 -169,45 -20,30 -23,107 -6,139 26,49 96,70 156,47 z m 271,-13 c -24,-20 -28,-28 -22,-52 9,-36 85,-165 97,-165 5,0 9,-4 9,-10 0,-5 -24,-10 -52,-9 -51,0 -52,1 -31,16 l 22,15 -25,49 c -13,27 -28,49 -33,49 -10,0 -61,-83 -61,-99 0,-6 7,-11 16,-11 8,0 12,-4 9,-10 -8,-13 -95,-13 -95,-1 0,6 4,13 10,16 5,3 28,36 50,74 42,71 52,127 25,137 -33,13 -11,24 48,24 h 62 z m 524,-17 c 0,-44 -14,-54 -24,-16 -7,27 -50,42 -86,31 -16,-5 -20,-15 -20,-51 v -44 h 40 c 29,0 40,-4 40,-15 0,-11 -11,-15 -41,-15 h -40 l 3,-42 c 3,-36 7,-44 27,-46 38,-6 68,6 75,30 l 7,23 11,-22 c 22,-45 7,-53 -102,-53 -92,0 -128,10 -80,23 18,5 20,14 20,107 0,93 -2,102 -20,107 -49,13 -12,23 85,23 h 105 z m 265,26 c 47,-20 69,-58 69,-122 1,-47 -3,-57 -32,-86 -31,-32 -35,-33 -127,-36 -61,-3 -95,0 -95,6 0,6 9,14 20,17 18,6 20,15 20,107 0,91 -2,100 -20,105 -11,3 -20,9 -20,14 0,15 148,10 185,-5 z m 345,-1 c 24,-13 30,-22 30,-49 0,-19 6,-36 13,-39 26,-9 -3,-18 -49,-14 -40,3 -45,5 -26,12 19,6 22,14 20,39 -3,28 -7,31 -42,34 -69,6 -112,-65 -86,-144 14,-40 35,-54 85,-54 29,0 37,5 45,25 11,28 40,24 40,-6 0,-44 -91,-65 -151,-34 -58,30 -85,112 -59,179 21,57 117,84 180,51 z m 340,-25 c 0,-44 -14,-54 -24,-16 -7,27 -50,42 -86,31 -16,-5 -20,-15 -20,-51 v -44 h 40 c 29,0 40,-4 40,-15 0,-11 -11,-15 -41,-15 h -40 l 3,-42 c 3,-36 7,-44 27,-46 38,-6 68,6 75,30 l 7,23 11,-22 c 22,-45 7,-53 -102,-53 -92,0 -128,10 -80,23 18,5 20,14 20,107 0,93 -2,102 -20,107 -49,13 -12,23 85,23 h 105 z M 2352,2715 c -1,-5 -24,-17 -50,-26 -227,-77 -460,-293 -546,-506 l -24,-58 -64,-12 c -70,-13 -185,-16 -265,-7 l -52,7 36,71 c 144,286 391,477 686,531 83,16 283,15 279,0 z m 524,4 c 100,-14 221,-52 306,-96 158,-83 319,-248 411,-421 46,-88 47,-90 25,-96 -38,-10 -215,-7 -288,5 l -69,12 -38,81 c -101,215 -304,400 -530,482 -50,18 -70,30 -61,35 18,12 153,11 244,-2 z m -266,-203 c 86,-175 95,-216 94,-426 0,-161 -2,-182 -27,-265 -31,-103 -109,-269 -157,-334 l -32,-44 -45,69 c -125,193 -183,381 -183,587 0,131 23,248 70,361 32,77 95,182 134,224 l 21,24 33,-38 c 18,-21 59,-92 92,-158 z m -196,172 c -5,-7 -27,-42 -51,-77 -84,-126 -143,-328 -143,-492 v -87 l -57,-52 c -72,-66 -148,-117 -248,-167 -95,-48 -203,-88 -212,-80 -9,10 16,209 37,294 28,108 106,265 177,354 100,125 211,206 393,285 80,35 116,42 104,22 z m 283,-36 c 124,-53 215,-117 310,-215 125,-130 204,-283 243,-469 18,-83 27,-238 15,-238 -2,0 -33,11 -67,24 -137,51 -278,133 -384,223 l -51,43 -6,117 c -10,189 -65,355 -171,512 l -36,54 28,-6 c 16,-3 70,-23 119,-45 z"
       id="path73"
       inkscape:connector-curvature="0" />
    <path
       d="m 2958,3184 c -5,-4 -8,-52 -8,-106 0,-109 5,-118 62,-102 45,13 70,52 70,109 0,37 -6,53 -24,72 -24,24 -87,41 -100,27 z"
       id="path75"
       inkscape:connector-curvature="0" />
  </g>
  <g
     id="layer117"
     transform="matrix(1.220339,0,0,1.220339,-550.8475,-550.8475)"
     style="fill:#ffffff;stroke:none">
    <path
       d="M 0,2500 V 0 H 2500 5000 V 2500 5000 H 2500 0 Z m 1420,665 c 0,-51 -15,-60 -25,-15 -7,32 -33,45 -76,38 -23,-3 -24,-6 -27,-106 -2,-85 0,-103 13,-108 32,-13 13,-24 -40,-24 -54,0 -74,13 -35,23 18,5 20,14 20,107 0,93 -2,102 -20,107 -49,13 -12,23 85,23 h 105 z m 271,17 c 30,-27 32,-32 37,-120 4,-70 8,-92 19,-92 8,0 11,-4 8,-10 -3,-5 -27,-10 -52,-10 h -47 l 22,20 c 25,23 30,87 12,152 -17,58 -71,77 -110,38 -17,-17 -20,-33 -20,-100 0,-62 3,-82 15,-86 31,-12 13,-24 -35,-24 -27,0 -50,5 -50,10 0,6 7,10 15,10 12,0 15,17 15,91 0,87 1,92 29,120 40,40 98,41 142,1 z m 304,18 c 24,-9 43,-35 33,-45 -3,-3 -19,2 -36,11 -41,20 -94,5 -111,-32 -20,-44 -14,-102 14,-129 33,-34 81,-34 97,0 6,14 16,24 22,22 19,-6 19,-38 0,-58 -35,-39 -131,-14 -169,45 -20,30 -23,107 -6,139 26,49 96,70 156,47 z m 271,-13 c -24,-20 -28,-28 -22,-52 9,-36 85,-165 97,-165 5,0 9,-4 9,-10 0,-5 -24,-10 -52,-9 -51,0 -52,1 -31,16 l 22,15 -25,49 c -13,27 -28,49 -33,49 -10,0 -61,-83 -61,-99 0,-6 7,-11 16,-11 8,0 12,-4 9,-10 -8,-13 -95,-13 -95,-1 0,6 4,13 10,16 5,3 28,36 50,74 42,71 52,127 25,137 -33,13 -11,24 48,24 h 62 z m 524,-17 c 0,-44 -14,-54 -24,-16 -7,27 -50,42 -86,31 -16,-5 -20,-15 -20,-51 v -44 h 40 c 29,0 40,-4 40,-15 0,-11 -11,-15 -41,-15 h -40 l 3,-42 c 3,-36 7,-44 27,-46 38,-6 68,6 75,30 l 7,23 11,-22 c 22,-45 7,-53 -102,-53 -92,0 -128,10 -80,23 18,5 20,14 20,107 0,93 -2,102 -20,107 -49,13 -12,23 85,23 h 105 z m 265,26 c 47,-20 69,-58 69,-122 1,-47 -3,-57 -32,-86 -31,-32 -35,-33 -127,-36 -61,-3 -95,0 -95,6 0,6 9,14 20,17 18,6 20,15 20,107 0,91 -2,100 -20,105 -11,3 -20,9 -20,14 0,15 148,10 185,-5 z m 345,-1 c 24,-13 30,-22 30,-49 0,-19 6,-36 13,-39 26,-9 -3,-18 -49,-14 -40,3 -45,5 -26,12 19,6 22,14 20,39 -3,28 -7,31 -42,34 -69,6 -112,-65 -86,-144 14,-40 35,-54 85,-54 29,0 37,5 45,25 11,28 40,24 40,-6 0,-44 -91,-65 -151,-34 -58,30 -85,112 -59,179 21,57 117,84 180,51 z m 340,-25 c 0,-44 -14,-54 -24,-16 -7,27 -50,42 -86,31 -16,-5 -20,-15 -20,-51 v -44 h 40 c 29,0 40,-4 40,-15 0,-11 -11,-15 -41,-15 h -40 l 3,-42 c 3,-36 7,-44 27,-46 38,-6 68,6 75,30 l 7,23 11,-22 c 22,-45 7,-53 -102,-53 -92,0 -128,10 -80,23 18,5 20,14 20,107 0,93 -2,102 -20,107 -49,13 -12,23 85,23 h 105 z M 2368,2728 c 38,0 24,-16 -30,-34 -77,-24 -204,-89 -273,-139 -119,-84 -229,-220 -300,-372 -41,-86 -37,-84 -262,-81 l -152,2 6,26 c 24,102 169,294 310,410 69,57 225,140 263,140 10,0 21,4 24,9 3,5 23,12 43,17 42,9 52,11 133,19 30,4 57,9 60,12 3,3 39,2 80,-2 41,-3 85,-6 98,-7 z m 642,-30 c 47,-14 114,-40 150,-58 76,-38 190,-117 190,-131 0,-5 6,-9 13,-9 16,0 97,-84 97,-99 0,-6 4,-11 9,-11 22,0 171,-237 171,-272 0,-11 -14,-16 -52,-18 -106,-7 -306,2 -325,13 -6,4 -27,41 -46,82 -53,112 -168,270 -221,305 -13,8 -45,32 -72,52 -54,41 -203,118 -276,144 -27,9 -48,21 -48,25 0,5 73,7 163,5 136,-3 176,-7 247,-28 z m -400,-182 c 86,-175 95,-216 94,-426 0,-161 -2,-182 -27,-265 -31,-103 -109,-269 -157,-334 l -32,-44 -45,69 c -125,193 -183,381 -183,587 0,131 23,248 70,361 32,77 95,182 134,224 l 21,24 33,-38 c 18,-21 59,-92 92,-158 z m -196,172 c -5,-7 -27,-42 -51,-77 -84,-126 -143,-328 -143,-492 v -87 l -57,-52 c -72,-66 -148,-117 -248,-167 -95,-48 -203,-88 -212,-80 -9,10 16,209 37,294 11,42 42,122 68,177 93,194 238,338 432,428 58,27 112,53 120,58 24,14 63,12 54,-2 z m 283,-36 c 124,-53 215,-117 310,-215 125,-130 204,-283 243,-469 18,-83 27,-238 15,-238 -2,0 -33,11 -67,24 -137,51 -278,133 -384,223 l -51,43 -6,117 c -10,189 -65,355 -171,512 l -36,54 28,-6 c 16,-3 70,-23 119,-45 z"
       id="path78"
       inkscape:connector-curvature="0" />
    <path
       d="m 2958,3184 c -5,-4 -8,-52 -8,-106 0,-109 5,-118 62,-102 45,13 70,52 70,109 0,37 -6,53 -24,72 -24,24 -87,41 -100,27 z"
       id="path80"
       inkscape:connector-curvature="0" />
  </g>
</svg>
