<svg xmlns="http://www.w3.org/2000/svg" id="svg2" version="1" viewBox="0 0 1000 1000"><style id="style4">.st0{fill:#7e9da0}.st1{fill:#bcd8d9}</style><path id="path7" d="M476 593c-25-5-88-22-142-79-72-78-72-172-71-192a242 242 0 0 1 151 90c1 34 7 105 54 172" class="st0" fill="#7e9da0"/><path id="path11" d="M454 595c-22 3-103 11-182-41-68-45-96-107-105-130l105 4a264 264 0 0 0 169 163" class="st1" fill="#bcd8d9"/><path id="rect15" d="M129 651h719v151H129z" fill="none"/><text id="text17" class="st0" font-size="120" x="168" y="743" font-family="'Open Sans',Arial,sans-serif" fill="#7e9da0">LUCY EDGE</text><g id="Layer_2"><path d="M488 595c-22-29-48-72-60-128-6-31-5-55-5-61a394 394 0 0 1 64-166 294 294 0 0 1 65 171c0 7 1 30-6 62-11 47-31 85-52 114" id="path20" fill="#ad245f"/></g><path id="path7-6" d="M499.01 595.807c25-5 88-22 142-79 72-78 72-172 71-192a242 242 0 0 0-151 90c-1 34-7 105-54 172" class="st0" fill="#7e9da0"/><path id="path11-4" d="M522.409 596.718c22 3 103 11 182-41 68-45 96-107 105-130l-105 4a264 264 0 0 1-169 163" class="st1" fill="#bcd8d9"/></svg>