<svg xmlns="http://www.w3.org/2000/svg" width="1356.013" height="1356.013" viewBox="0 0 1356.013 1356.013"><defs><clipPath clipPathUnits="userSpaceOnUse" id="a"><path d="M0 1017.008h1017.008V0H0z"/></clipPath><clipPath clipPathUnits="userSpaceOnUse" id="b"><path d="M0 1017.008h1017.008V0H0z"/></clipPath></defs><g clip-path="url(#a)" transform="matrix(1.4198 0 0 -1.4198 -31.223 1411.234)" fill="#d32556"><path d="M484.369 415.29c-24.64 5.212-88.32 22.162-141.706 79.522-72.068 77.434-72.162 171.334-71.701 191.795 49.99-10.117 106.99-32.364 145.739-81.36a188.985 188.985 0 0 0 6.25-8.371c.388-34.51 6.366-105.466 53.822-172.604m31.717-8.642c24.663 5.097 88.424 21.744 142.081 78.85 72.435 77.092 72.973 170.99 72.61 191.454-50.04-9.88-107.144-31.857-146.124-80.67a190.308 190.308 0 0 1-6.29-8.34c-.55-34.507-6.865-105.435-54.638-172.347"/><path d="M462.784 413.164c-22.026-2.839-102.994-10.57-182.583 41.487-67.898 44.412-95.512 106.648-104.333 129.342l104.94-3.66c7.894-21.977 24.096-58.087 57.019-92.736 41.779-43.97 88.234-62.17 111.612-69.552m78.2-6.342c22.335-2.862 104.437-10.657 185.14 41.826 68.849 44.775 96.85 107.518 105.794 130.397l-106.41-3.69c-8.004-22.156-24.433-58.56-57.817-93.493-42.364-44.329-89.47-62.678-113.175-70.119"/></g><text y="-266.82" x="191.86" style="-inkscape-font-specification:'sans-serif, Normal';font-variant-ligatures:normal;font-variant-caps:normal;font-variant-numeric:normal;font-feature-settings:normal;text-align:start" transform="translate(18.581 1336.315) scale(1.1366)" font-weight="400" font-size="149.899" font-family="sans-serif" fill="#d32556" stroke-width="1.249"><tspan y="-266.82" x="191.85963 266.80896 369.93918 471.27066 563.30841 607.3786 689.22327 791.15436 898.03204">LUCY EDGE</tspan></text><g clip-path="url(#b)" transform="matrix(1.4198 0 0 -1.4198 -31.223 1411.234)"><path d="M496.495 413.48c-22.328 29.158-48.402 72.471-59.57 127.557-6.44 31.766-5.461 55.301-5.18 60.865 1.74 34.477 11.003 59.564 20.072 83.527 8.164 21.572 21.47 50.888 43.383 82.882 17.916-22.034 39.027-54.204 52.448-96.478 11.912-37.525 12.809-67.401 12.95-74.463.127-6.4.352-30.222-6.476-61.513-10.322-47.307-31.087-85.667-51.152-113.96" fill="#d32556"/></g></svg>