<svg xmlns="http://www.w3.org/2000/svg" viewBox="0 0 1000 1000"><style>.st0{fill:#d32455}</style><g id="Layer_1"><path class="st0" d="M475.9 593.2c-24.6-5.2-88.3-22.2-141.7-79.5-72.1-77.4-72.2-171.3-71.7-191.8 50 10.1 107 32.4 145.7 81.4 2.2 2.8 4.3 5.6 6.3 8.4.4 34.5 6.4 105.5 53.8 172.6m31.7 8.6c24.7-5.1 88.4-21.7 142.1-78.9 72.4-77.1 73-171 72.6-191.5-50 9.9-107.1 31.9-146.1 80.7-2.2 2.8-4.3 5.5-6.3 8.3-.5 34.5-6.9 105.4-54.6 172.3"/><path class="st0" d="M454.3 595.3c-22 2.8-103 10.6-182.6-41.5-67.9-44.4-95.5-106.6-104.3-129.3 35 1.2 70 2.4 104.9 3.7 7.9 22 24.1 58.1 57 92.7 41.8 44 88.2 62.2 111.6 69.6m78.2 6.3c22.3 2.9 104.4 10.7 185.1-41.8C773 510.2 801.1 447.5 810 424.6c-35.5 1.2-70.9 2.5-106.4 3.7-8 22.2-24.4 58.6-57.8 93.5-42.4 44.3-89.5 62.7-113.2 70.1"/><path fill="none" d="M129.3 651.4h718.5v150.5H129.3z"/><text transform="translate(173.166 742.137)" class="st0" font-size="120" font-family="Europa-Bold">LUCY EDGE</text></g><path class="st0" d="M488 595c-22.3-29.2-48.4-72.5-59.6-127.6-6.4-31.8-5.5-55.3-5.2-60.9 1.7-34.5 11-59.6 20.1-83.5 8.2-21.6 21.5-50.9 43.4-82.9 17.9 22 39 54.2 52.4 96.5 11.9 37.5 12.8 67.4 13 74.5.1 6.4.4 30.2-6.5 61.5-10.3 47.3-31.1 85.7-51.2 114" id="Layer_2"/></svg>