<svg xmlns="http://www.w3.org/2000/svg" version="1.1" x="0" y="0" viewBox="0 0 30 30" xml:space="preserve" id="svg20" width="30" height="30"><style type="text/css" id="style2">.st0{fill:#d32455}.st1{fill:none}</style><path id="path7" d="M14.88 18.726a11.885 11.885 0 0 1-6.203-3.451C5.53 11.867 5.53 7.76 5.575 6.886a10.573 10.573 0 0 1 6.597 3.932c.044 1.486.306 4.588 2.36 7.515" class="st0" fill="#7e9da0"/><path id="path11" d="M13.92 18.814c-.962.13-4.5.48-7.952-1.792-2.971-1.966-4.194-4.674-4.588-5.68l4.588.176a11.534 11.534 0 0 0 7.384 7.121" class="st1" fill="#bcd8d9"/><path id="rect15" d="M-.28 21.26h31.414v6.598H-.28z" fill="none"/><text id="text17" class="st0" font-size="5.243" x="1.424" y="25.28" font-family="'Open Sans',Arial,sans-serif" fill="#7e9da0">LUCY EDGE</text><g transform="translate(-5.916 -7.182) scale(.04369)" id="Layer_2"><path d="M488 595c-22-29-48-72-60-128-6-31-5-55-5-61a394 394 0 0 1 64-166 294 294 0 0 1 65 171c0 7 1 30-6 62-11 47-31 85-52 114" id="path20" fill="#ad245f"/></g><path id="path7-6" d="M15.886 18.849a11.885 11.885 0 0 0 6.204-3.451c3.146-3.408 3.146-7.515 3.102-8.389a10.573 10.573 0 0 0-6.597 3.932c-.044 1.486-.306 4.588-2.36 7.515" class="st0" fill="#7e9da0"/><path id="path11-4" d="M16.908 18.889c.962.13 4.5.48 7.952-1.791 2.971-1.967 4.194-4.675 4.587-5.68l-4.587.175a11.534 11.534 0 0 1-7.384 7.121" class="st1" fill="#bcd8d9"/></svg>