<svg xmlns="http://www.w3.org/2000/svg" version="1.1" x="0" y="0" viewBox="0 0 30 30" xml:space="preserve" id="svg20" width="30" height="30"><style type="text/css" id="style2">.st0{fill:#d32455}</style><g id="g19" transform="translate(1.26 .521) scale(.91006)"><path class="st0" d="M14.517 23.591c-1.116-.235-4.005-1.007-6.427-3.606-3.27-3.51-3.275-7.77-3.253-8.7 2.268.458 4.854 1.47 6.61 3.693.1.127.194.254.285.38.018 1.565.29 4.786 2.44 7.83" id="path4" fill="#d32455" stroke-width=".045"/><path class="st0" d="M15.61 23.578c1.12-.232 4.01-.985 6.446-3.58 3.284-3.496 3.311-7.756 3.293-8.686-2.268.45-4.858 1.447-6.627 3.661-.1.127-.195.25-.286.376-.022 1.565-.313 4.781-2.476 7.816" id="path6" fill="#d32455" stroke-width=".045"/><path class="st0" d="M13.537 23.687c-.997.127-4.672.48-8.282-1.883C2.175 19.79.923 16.97.524 15.94c1.587.055 3.175.109 4.758.168a11.987 11.987 0 0 0 2.585 4.205 11.976 11.976 0 0 0 5.063 3.157" id="path8" fill="#d32455" stroke-width=".045"/><path class="st0" d="M16.477 23.755c1.011.131 4.735.485 8.396-1.896 3.12-2.032 4.395-4.877 4.799-5.915-1.61.054-3.216.113-4.826.168a12.04 12.04 0 0 1-2.622 4.24 12.157 12.157 0 0 1-5.135 3.18" id="path10" fill="#d32455" stroke-width=".045"/><g transform="translate(-6.816 -3.03) scale(.04536)" id="Layer_2"><path id="path17" d="M488 595c-22.3-29.2-48.4-72.5-59.6-127.6-6.4-31.8-5.5-55.3-5.2-60.9 1.7-34.5 11-59.6 20.1-83.5 8.2-21.6 21.5-50.9 43.4-82.9 17.9 22 39 54.2 52.4 96.5 11.9 37.5 12.8 67.4 13 74.5.1 6.4.4 30.2-6.5 61.5-10.3 47.3-31.1 85.7-51.2 114" class="st0" fill="#d32455"/></g></g></svg>