<svg xmlns="http://www.w3.org/2000/svg" version="1.0" width="30" height="30" viewBox="0 0 300 300"><path d="M.935 149.233V-.785h300.036v300.036H.935z" fill="#942e50"/><path d="M.935 149.233V-.785h300.036v300.036H.935zm146.317 59.807c-11.6-15.302-19.302-41.105-17.702-59.807.7-8.101 3-20.103 5.101-26.003 2.9-8.101 12.301-26.803 15.502-30.804.6-.7.8-1.5.5-1.8-.8-.8-6.5 8.3-11.401 18.102-7.901 15.802-11.302 29.404-11.302 45.405 0 15.302 2.7 27.004 9.601 41.705 3.5 7.501 12.102 20.003 13.102 19.003.3-.3-1.2-2.9-3.4-5.801z" fill="#ac224e"/><path d="M.935 149.233V-.785h300.036v300.036H.935zm150.018 3.3l-.1-62.807-2.4 3c-3.4 4.1-12.802 22.703-15.502 30.504-3.3 9.901-5 20.102-5 30.903 0 15.302 2.7 27.004 9.6 41.705 3 6.401 11.602 19.403 12.902 19.403.3 0 .5-28.204.5-62.708z" fill="#b73b64"/><path d="M.935 149.233V-.785h300.036v300.036H.935zm157.419 54.906c10.701-19.002 14.301-31.903 14.301-50.206 0-6.7-.3-13.101-.7-14.201-.4-1.1-.7 4.8-.7 13.001.1 16.902-1.7 25.703-7.9 39.205-3.501 7.5-9.702 17.702-11.402 18.802-.7.4-1-18.902-1-58.607 0-59.207 0-59.207 2-57.407 2 1.8 2 1.8.4-1.3-.8-1.8-2-3.2-2.5-3.2-2.3 0-13.902 21.402-17.802 33.004-6.601 18.902-6.901 40.405-.9 59.007 3.1 9.6 8.2 19.902 13.301 26.903l4.5 6.1 3.001-3.3c1.6-1.8 4-5.3 5.4-7.8zm12.201-71.108c-.7-4.3-3.6-13.502-6.1-19.302-.7-1.6-2.1-4.8-3-7.001-.9-2.2-2.801-5.3-4.201-7.001-2.2-2.6-2-2 1 3.5 3.8 7.201 10.201 24.403 11.201 30.304.3 2 .9 3.7 1.2 3.7.3 0 .3-1.9-.1-4.2z" fill="#d52c61"/><path d="M.935 149.233V-.785h300.036v300.036H.935zm157.419 54.906c6.8-12.101 8.7-16.702 11.901-28.803 2.1-8.001 2.5-11.201 2.3-22.003-.4-15.902-2.6-26.703-8.1-39.604-.7-1.6-2.1-4.9-3-7.101-.9-2.3-3.101-5.7-4.801-7.501-1.7-1.9-3-3.6-3-3.9.2-1.4-1.801-5.001-2.701-5.001-2.4 0-13.902 21.202-17.902 33.004-6.601 18.902-6.901 40.405-.9 59.007 3.1 9.6 8.2 19.902 13.301 26.903l4.5 6.1 3.001-3.3c1.6-1.8 4-5.3 5.4-7.8z" fill="#b64d74"/><path d="M.935 149.233V-.785h300.036v300.036H.935zm156.519 56.607c19.602-31.404 20.902-65.808 3.8-99.612-2.7-5.2-5.4-9.401-6-9.301-.7.2-1-.3-.8-1 .3-.6-.4-2.3-1.5-3.7l-2.001-2.501-2.5 3c-3.4 4.1-12.802 22.703-15.502 30.504-6.501 19.102-6.801 40.505-.8 59.007 3.1 9.6 8.2 19.902 13.301 26.903 5.4 7.3 5.3 7.3 12.002-3.3zm-15.502 6.5c0-1.8-8.301-14.001-9.201-13.501-.4.3.1 1.8 1.2 3.4 1.1 1.5 2 3.1 2 3.5 0 .3.7 1.3 1.5 2.2.9.8 1.4 1.801 1.1 2.101-.8.7-6.6-1.9-6.6-3 0-.6-1.1-.7-2.4-.4-1.6.4-3.501-.3-6.301-2.3-2.2-1.6-4.901-3.201-6.101-3.501-1.2-.4-2.2-1.2-2.2-1.7s-.6-.9-1.2-.9c-.7 0-2.8-1.6-4.701-3.5-1.9-1.901-4-3.501-4.7-3.501-.8 0-1.4-.7-1.4-1.6 0-.9-.9-1.8-1.901-2.1-4.5-1.2-18.802-25.504-22.603-38.305-1.8-6.3-4.8-28.704-4.1-30.704.3-.7-.1-1.3-1-1.3-2.9 0-.5 19.502 4.2 34.504 8.401 26.803 26.403 46.406 53.307 58.207 7.7 3.3 11.1 4.1 11.1 2.4zm26.603-1.6c34.204-12.901 58.307-46.305 59.907-83.01.3-7.7.2-9-.5-5.7-.5 2.3-1.2 7.1-1.5 10.6-.3 3.501-1.2 8.302-2 10.602-.8 2.3-1.5 5-1.5 5.9 0 .901-.7 3.001-1.6 4.601-.9 1.7-2.301 5.001-3.101 7.401-.8 2.5-2.3 5.6-3.3 7.001-1 1.4-3.4 5.1-5.301 8.101-5.5 8.401-19.302 22.003-22.303 22.003-.8 0-1.4.5-1.4 1.2 0 .6-.3.9-.6.5-.3-.3-2.6 1-5.1 2.9-2.4 1.9-5.201 3.4-6.201 3.4-.9 0-2.1.4-2.6.8-1.4 1.3-9.502 4.301-9.502 3.601 0-.3.9-1.8 2-3.4 1.1-1.5 1.7-3 1.3-3.4-.6-.6-6.3 7.2-6.3 8.7 0 1.3 2.8.8 9.601-1.8zm-63.608-24.503c0-.5-.4-1-1-1-.5 0-1 .5-1 1 0 .6.5 1 1 1 .6 0 1-.4 1-1z" fill="#c7753d"/><path d="M.935 149.233V-.785h300.036v300.036H.935zM129.95 214.74c0-.2-3-1.9-6.7-3.8-14.602-7.302-28.104-17.803-30.404-23.504-.5-1.3-1.3-2-1.9-1.7-.9.6-6.1-2.3-35.204-19.602-12.002-7.201-15.802-9.101-15.802-8.301 0 1.4 7.5 14.002 11.701 19.902 4.3 5.901 20.002 21.503 21.603 21.503.5 0 2.3 1.1 4.1 2.5 4.9 3.7 17.402 9.101 25.703 11.001 4.1.9 7.901 1.8 8.401 2 1.6.5 18.502.5 18.502 0zm27.504-8.901c19.602-31.404 20.902-65.808 3.8-99.612-2.7-5.2-5.4-9.401-6-9.301-.7.2-1-.3-.8-1 .3-.6-.4-2.3-1.5-3.7l-2.001-2.501-2.5 3c-3.4 4.1-12.802 22.703-15.502 30.504-6.501 19.102-6.801 40.505-.8 59.007 3.1 9.6 8.2 19.902 13.301 26.903 5.4 7.3 5.3 7.3 12.002-3.3zm36.604 7.9c4.2-.8 9.601-2.1 12.001-3 2.4-.9 5.301-1.9 6.401-2.2 3.1-1 12.502-6.3 18.502-10.601 5.601-4 19.003-17.302 19.003-18.803 0-.4 1.1-2 2.5-3.5 2.8-3 10.901-17.302 10.201-18.002-.2-.3-6 2.8-12.801 6.9-27.804 16.603-36.805 21.703-38.305 21.703-.9 0-1.6.7-1.6 1.5s-.7 1.5-1.5 1.5-1.5.5-1.5 1.1c0 2.801-17.703 16.003-26.704 19.903-8.6 3.7-8.8 5-.7 5 3.8 0 10.302-.7 14.502-1.5zm-52.106-1.4c0-1.8-8.301-14.001-9.201-13.501-.4.3.1 1.8 1.2 3.4 1.1 1.5 2 3.1 2 3.5 0 .3.7 1.3 1.5 2.2.9.8 1.4 1.801 1.1 2.101-.8.7-6.6-1.9-6.6-3 0-.6-1.1-.7-2.4-.4-1.6.4-3.501-.3-6.301-2.3-2.2-1.6-4.901-3.201-6.101-3.501-1.2-.4-2.2-1.2-2.2-1.7s-.6-.9-1.2-.9c-.7 0-2.8-1.6-4.701-3.5-1.9-1.901-4-3.501-4.7-3.501-.8 0-1.4-.7-1.4-1.6 0-.9-.9-1.8-1.901-2.1-4.5-1.2-18.802-25.504-22.603-38.305-1.8-6.3-4.8-28.704-4.1-30.704.3-.7-.1-1.3-1-1.3-2.9 0-.5 19.502 4.2 34.504 8.401 26.803 26.403 46.406 53.307 58.207 7.7 3.3 11.1 4.1 11.1 2.4zm26.603-1.6c34.204-12.901 58.307-46.305 59.907-83.01.3-7.7.2-9-.5-5.7-.5 2.3-1.2 7.1-1.5 10.6-.3 3.501-1.2 8.302-2 10.602-.8 2.3-1.5 5-1.5 5.9 0 .901-.7 3.001-1.6 4.601-.9 1.7-2.301 5.001-3.101 7.401-.8 2.5-2.3 5.6-3.3 7.001-1 1.4-3.4 5.1-5.301 8.101-5.5 8.401-19.302 22.003-22.303 22.003-.8 0-1.4.5-1.4 1.2 0 .6-.3.9-.6.5-.3-.3-2.6 1-5.1 2.9-2.4 1.9-5.201 3.4-6.201 3.4-.9 0-2.1.4-2.6.8-1.4 1.3-9.502 4.301-9.502 3.601 0-.3.9-1.8 2-3.4 1.1-1.5 1.7-3 1.3-3.4-.6-.6-6.3 7.2-6.3 8.7 0 1.3 2.8.8 9.601-1.8zm-63.608-24.503c0-.5-.4-1-1-1-.5 0-1 .5-1 1 0 .6.5 1 1 1 .6 0 1-.4 1-1z" fill="#b8794e"/><path d="M.935 149.233V-.785h300.036v300.036H.935zm136.016 66.708c0-.8-1.9-2-4.2-2.7-10.602-3.1-24.703-11.902-34.904-21.703-3.6-3.5-6.801-6-7.201-5.7-.3.3-6.101-2.701-12.902-6.702-6.8-4-17.502-10.3-23.803-14.001-6.3-3.7-12.301-7.401-13.301-8.401-3.6-3.2-3.6-.9 0 6 14.602 28.604 39.304 47.606 68.808 53.007 9.901 1.8 27.503 1.9 27.503.2zm54.607-.2c24.103-4.2 43.005-15.202 58.407-34.204 7.5-9.301 17.002-26.303 14.701-26.303-.9 0-1.7.4-1.9.9-.5 1.4-49.006 30.103-50.806 30.103-.7 0-4.1 2.7-7.7 6.001-9.802 8.901-20.203 15.402-33.105 20.802-3 1.2-5.1 2.6-4.7 3.2.9 1.501 15.002 1.201 25.103-.5zm-34.104-9.901c19.602-31.404 20.902-65.808 3.8-99.612-2.7-5.2-5.4-9.401-6-9.301-.7.2-1-.3-.8-1 .3-.6-.4-2.3-1.5-3.7l-2.001-2.501-2.5 3c-3.4 4.1-12.802 22.703-15.502 30.504-6.501 19.102-6.801 40.505-.8 59.007 3.1 9.6 8.2 19.902 13.301 26.903 5.4 7.3 5.3 7.3 12.002-3.3zm-15.502 6.5c0-1.8-8.301-14.001-9.201-13.501-.4.3.1 1.8 1.2 3.4 1.1 1.5 2 3.1 2 3.5 0 .3.7 1.3 1.5 2.2.9.8 1.4 1.801 1.1 2.101-.8.7-6.6-1.9-6.6-3 0-.6-1.1-.7-2.4-.4-1.6.4-3.501-.3-6.301-2.3-2.2-1.6-4.901-3.201-6.101-3.501-1.2-.4-2.2-1.2-2.2-1.7s-.6-.9-1.2-.9c-.7 0-2.8-1.6-4.701-3.5-1.9-1.901-4-3.501-4.7-3.501-.8 0-1.4-.7-1.4-1.6 0-.9-.9-1.8-1.901-2.1-4.5-1.2-18.802-25.504-22.603-38.305-1.8-6.3-4.8-28.704-4.1-30.704.3-.7-.1-1.3-1-1.3-2.9 0-.5 19.502 4.2 34.504 8.401 26.803 26.403 46.406 53.307 58.207 7.7 3.3 11.1 4.1 11.1 2.4zm26.603-1.6c34.204-12.901 58.307-46.305 59.907-83.01.3-7.7.2-9-.5-5.7-.5 2.3-1.2 7.1-1.5 10.6-.3 3.501-1.2 8.302-2 10.602-.8 2.3-1.5 5-1.5 5.9 0 .901-.7 3.001-1.6 4.601-.9 1.7-2.301 5.001-3.101 7.401-.8 2.5-2.3 5.6-3.3 7.001-1 1.4-3.4 5.1-5.301 8.101-5.5 8.401-19.302 22.003-22.303 22.003-.8 0-1.4.5-1.4 1.2 0 .6-.3.9-.6.5-.3-.3-2.6 1-5.1 2.9-2.4 1.9-5.201 3.4-6.201 3.4-.9 0-2.1.4-2.6.8-1.4 1.3-9.502 4.301-9.502 3.601 0-.3.9-1.8 2-3.4 1.1-1.5 1.7-3 1.3-3.4-.6-.6-6.3 7.2-6.3 8.7 0 1.3 2.8.8 9.601-1.8zm-63.608-24.503c0-.5-.4-1-1-1-.5 0-1 .5-1 1 0 .6.5 1 1 1 .6 0 1-.4 1-1z" fill="#c54675"/><path d="M.935 149.233V-.785h300.036v300.036H.935zm136.016 66.708c0-.8-1.9-2-4.2-2.7-10.602-3.1-24.703-11.902-34.904-21.703-3.6-3.5-6.801-6-7.201-5.7-.3.3-6.101-2.701-12.902-6.702-6.8-4-17.502-10.3-23.803-14.001-6.3-3.7-12.301-7.401-13.301-8.401-3.6-3.2-3.6-.9 0 6 14.602 28.604 39.304 47.606 68.808 53.007 9.901 1.8 27.503 1.9 27.503.2zm54.607-.2c24.103-4.2 43.005-15.202 58.407-34.204 7.5-9.301 17.002-26.303 14.701-26.303-.9 0-1.7.4-1.9.9-.5 1.4-49.006 30.103-50.806 30.103-.7 0-4.1 2.7-7.7 6.001-9.802 8.901-20.203 15.402-33.105 20.802-3 1.2-5.1 2.6-4.7 3.2.9 1.501 15.002 1.201 25.103-.5zm-34.004-10.101c6.3-10.202 11.001-21.203 13.501-32.204 1.8-7.901 2.1-11.202 1.6-23.003-.6-15.702-2.6-24.603-8.7-38.605-4.101-9.2-11.602-21.602-13.102-21.602-2.3 0-13.902 21.602-17.802 33.004-6.601 18.902-6.901 40.405-.9 59.007 3.1 9.6 8.2 19.902 13.301 26.903 5.4 7.3 5.3 7.4 12.102-3.5zm-15.602 6.6c0-1.4-7.601-13.101-10.401-16.002-1.3-1.4-9.001-11.5-17.202-22.502-8.101-11.002-19.703-26.703-25.904-35.004-13.401-17.903-14.701-20.003-13.801-20.803.3-.4-.2-.7-1.2-.7-1.6 0-1.7.7-1.1 7.801 1.4 16.302 5.3 30.104 12.201 43.005 10.201 19.302 24.703 32.404 46.306 41.905 7.8 3.3 11.1 4.1 11.1 2.3zm26.603-1.5c34.104-12.801 57.807-45.505 60.107-82.71.3-5.4.3-9.8 0-9.8s-3.1 3.7-6.3 8.3c-3.201 4.5-6.201 8.701-6.701 9.201-.9 1.1-9.302 12.302-22.303 30.004-4.5 6.1-12.001 16.302-16.802 22.803-4.7 6.4-9.001 11.7-9.501 11.7-.8 0-8.101 11.202-8.101 12.402 0 1.2 3 .6 9.601-1.9z" fill="#e35e90"/><path d="M.935 149.233V-.785h300.036v300.036H.935zm136.016 66.708c0-.8-1.9-2-4.2-2.7-10.602-3.1-24.703-11.902-34.904-21.703-3.6-3.5-6.801-6-7.201-5.7-.3.3-6.101-2.701-12.902-6.702-6.8-4-17.502-10.3-23.803-14.001-6.3-3.7-12.301-7.401-13.301-8.401-3.6-3.2-3.6-.9 0 6 14.602 28.604 39.304 47.606 68.808 53.007 9.901 1.8 27.503 1.9 27.503.2zm54.607-.2c24.103-4.2 43.005-15.202 58.407-34.204 7.5-9.301 17.002-26.303 14.701-26.303-.9 0-1.7.4-1.9.9-.5 1.4-49.006 30.103-50.806 30.103-.7 0-4.1 2.7-7.7 6.001-9.802 8.901-20.203 15.402-33.105 20.802-3 1.2-5.1 2.6-4.7 3.2.9 1.501 15.002 1.201 25.103-.5zm-34.004-10.101c6.3-10.202 11.001-21.203 13.501-32.204 1.8-7.901 2.1-11.202 1.6-23.003-.6-15.702-2.6-24.603-8.7-38.605-4.101-9.2-11.602-21.602-13.102-21.602-2.3 0-13.902 21.602-17.802 33.004-6.601 18.902-6.901 40.405-.9 59.007 3.1 9.6 8.2 19.902 13.301 26.903 5.4 7.3 5.3 7.4 12.102-3.5zm-15.602 6.5c0-.6-1.3-2.9-2.9-5.2-6.101-9.001-10.902-20.903-13.102-32.704-1.3-6.6-3-10.201-3-6.3 0 3.3 2.9 16.201 4.1 18.401.6 1.1.9 2.5.7 3.1-.2.6-3.3-2.9-6.8-7.8-3.601-4.9-9.302-12.602-12.702-17.102-3.5-4.6-6.1-8.301-5.9-8.301.3 0-.5-1.1-1.701-2.4-1.2-1.3-5.3-6.801-9.201-12.202-3.8-5.4-8.901-12.301-11.301-15.302-2.4-2.9-4.101-5.5-3.8-5.8.5-.5 3.9.9 18.101 7.9 7.901 3.8 11.502 5.801 12.502 6.801.3.3 2.3 1.8 4.5 3.5 5 3.701 8.101 6.801 7.701 7.802-.1.4.5.7 1.3.7 1.2 0 1.5 1.5 1.5 7.4 0 4.101.5 7.801 1 8.101.6.4 1-2.3 1-7.3v-7.901l-4.2-3.9c-6.3-5.801-14.301-11.502-22.802-16.203-7.601-4.2-21.903-10.2-24.003-10.2-2.5 0 .3 20.802 4.6 34.503 8.401 26.803 26.403 46.406 53.307 58.207 7.9 3.4 11.1 4.1 11.1 2.2zm26.603-1.4c34.104-12.801 57.807-45.505 60.107-82.71l.6-9.8h-2.4c-3 0-19.502 7.4-27.903 12.5-3.4 2.1-9.602 6.501-13.602 9.702l-7.4 6v8.402c0 5.8.3 8.3 1.1 7.9.6-.4.9-3.6.8-7.6-.2-6.801-.2-6.901 3.7-10.602 2.2-2.1 5.3-4.7 6.9-5.8 1.5-1.1 3.301-2.5 3.901-3.1.6-.5 1.8-1.3 2.6-1.7.8-.401 3.3-1.801 5.501-3.201 4.3-2.6 5.7-3.3 15.502-7.601 7.1-3.1 8.8-2.4 4.8 1.9-1.4 1.5-7.8 10.101-14.401 19.002-6.501 9.001-15.102 20.703-19.103 26.003-4 5.401-9.1 12.602-11.5 16.002-4.501 6.701-6.102 6.801-3.401.1.9-2.1 1.6-4.8 1.6-5.8 0-1.1.4-2.1.9-2.3 1.3-.5 2.5-13.802 1.2-13.802-.6 0-1.1 1.2-1.1 2.8-.1 8.301-7 27.403-14.202 38.805-2.1 3.4-3.8 6.4-3.8 6.8 0 1.2 3 .6 9.601-1.9z" fill="#f7944f"/><path d="M.935 149.233V-.785h300.036v300.036H.935zm136.016 66.708c0-.8-1.9-2-4.2-2.7-21.703-6.401-46.606-29.204-55.107-50.307-1.1-2.9-2.3-5.5-2.6-5.9-1.3-1.4-20.803-2.9-29.304-2.1l-8.7.8 3.6 7c14.602 28.604 39.304 47.606 68.808 53.007 9.901 1.8 27.503 1.9 27.503.2zm54.607-.2c4.9-.9 11.801-2.5 15.402-3.6 21.702-7.001 42.505-25.304 54.306-47.706l4.7-8.901-4.6-.7c-6.8-.9-15.802-.6-24.903.7l-8 1.2-5.001 9.6c-2.8 5.302-6.501 11.402-8.301 13.603-1.8 2.3-3.2 4.5-3.3 4.9-.1 1.4-14.103 13.402-20.603 17.602-5.601 3.8-13.702 7.901-21.603 11.202-2.1.9-3.6 2-3.2 2.6.9 1.5 15.002 1.2 25.103-.5zm-34.004-10.101c6.3-10.202 11.001-21.203 13.501-32.204 1.8-7.901 2.1-11.202 1.6-23.003-.6-15.702-2.6-24.603-8.7-38.605-4.101-9.2-11.602-21.602-13.102-21.602-2.3 0-13.902 21.602-17.802 33.004-6.601 18.902-6.901 40.405-.9 59.007 3.1 9.6 8.2 19.902 13.301 26.903 5.4 7.3 5.3 7.4 12.102-3.5zm-15.602 6.5c0-.6-1.3-2.9-2.9-5.2-6.101-9.001-10.902-20.903-13.102-32.704-1.3-6.6-3-10.201-3-6.3 0 3.3 2.9 16.201 4.1 18.401.6 1.1.9 2.5.7 3.1-.2.6-3.3-2.9-6.8-7.8-3.601-4.9-9.302-12.602-12.702-17.102-3.5-4.6-6.1-8.301-5.9-8.301.3 0-.5-1.1-1.701-2.4-1.2-1.3-5.3-6.801-9.201-12.202-3.8-5.4-8.901-12.301-11.301-15.302-2.4-2.9-4.101-5.5-3.8-5.8.5-.5 3.9.9 18.101 7.9 7.901 3.8 11.502 5.801 12.502 6.801.3.3 2.3 1.8 4.5 3.5 5 3.701 8.101 6.801 7.701 7.802-.1.4.5.7 1.3.7 1.2 0 1.5 1.5 1.5 7.4 0 4.101.5 7.801 1 8.101.6.4 1-2.3 1-7.3v-7.901l-4.2-3.9c-6.3-5.801-14.301-11.502-22.802-16.203-7.601-4.2-21.903-10.2-24.003-10.2-2.5 0 .3 20.802 4.6 34.503 8.401 26.803 26.403 46.406 53.307 58.207 7.9 3.4 11.1 4.1 11.1 2.2zm26.603-1.4c34.104-12.801 57.807-45.505 60.107-82.71l.6-9.8h-2.4c-3 0-19.502 7.4-27.903 12.5-3.4 2.1-9.602 6.501-13.602 9.702l-7.4 6v8.402c0 5.8.3 8.3 1.1 7.9.6-.4.9-3.6.8-7.6-.2-6.801-.2-6.901 3.7-10.602 2.2-2.1 5.3-4.7 6.9-5.8 1.5-1.1 3.301-2.5 3.901-3.1.6-.5 1.8-1.3 2.6-1.7.8-.401 3.3-1.801 5.501-3.201 4.3-2.6 5.7-3.3 15.502-7.601 7.1-3.1 8.8-2.4 4.8 1.9-1.4 1.5-7.8 10.101-14.401 19.002-6.501 9.001-15.102 20.703-19.103 26.003-4 5.401-9.1 12.602-11.5 16.002-4.501 6.701-6.102 6.801-3.401.1.9-2.1 1.6-4.8 1.6-5.8 0-1.1.4-2.1.9-2.3 1.3-.5 2.5-13.802 1.2-13.802-.6 0-1.1 1.2-1.1 2.8-.1 8.301-7 27.403-14.202 38.805-2.1 3.4-3.8 6.4-3.8 6.8 0 1.2 3 .6 9.601-1.9z" fill="#f55a93"/><path d="M.935 149.233V-.785h300.036v300.036H.935zm136.016 66.708c0-.8-1.9-2-4.2-2.7-21.703-6.401-46.606-29.204-55.107-50.307-1.1-2.9-2.3-5.5-2.6-5.9-1.3-1.4-20.803-2.9-29.304-2.1l-8.7.8 3.6 7c14.602 28.604 39.304 47.606 68.808 53.007 9.901 1.8 27.503 1.9 27.503.2zm54.607-.2c4.9-.9 11.801-2.5 15.402-3.6 21.702-7.001 42.505-25.304 54.306-47.706l4.7-8.901-4.6-.7c-6.8-.9-15.802-.6-24.903.7l-8 1.2-5.001 9.6c-2.8 5.302-6.501 11.402-8.301 13.603-1.8 2.3-3.2 4.5-3.3 4.9-.1 1.4-14.103 13.402-20.603 17.602-5.601 3.8-13.702 7.901-21.603 11.202-2.1.9-3.6 2-3.2 2.6.9 1.5 15.002 1.2 25.103-.5zm-34.004-10.101c6.3-10.202 11.001-21.203 13.501-32.204 1.8-7.901 2.1-11.202 1.6-23.003-.6-15.702-2.6-24.603-8.7-38.605-4.101-9.2-11.602-21.602-13.102-21.602-2.3 0-13.902 21.602-17.802 33.004-6.601 18.902-6.901 40.405-.9 59.007 3.1 9.6 8.2 19.902 13.301 26.903 5.4 7.3 5.3 7.4 12.102-3.5zm-15.602 6.5c0-.6-1.3-2.9-2.9-5.2-9.102-13.402-15.002-33.104-15.102-50.206v-9.101l-4.2-4.1c-6.002-5.701-14.102-11.402-22.803-16.103-7.701-4.2-21.903-10.2-24.003-10.2-2.5 0 .3 20.802 4.6 34.503 8.401 26.803 26.403 46.406 53.307 58.207 7.9 3.4 11.1 4.1 11.1 2.2zm26.603-1.4c34.104-12.801 57.807-45.505 60.107-82.71l.6-9.8h-2.4c-3 0-19.502 7.4-27.903 12.5-3.4 2.1-9.502 6.401-13.502 9.602l-7.2 5.8-.6 11.802c-.301 6.5-1.301 14.702-2.201 18.302-2.1 8.401-7.801 21.903-12.702 29.604-2.1 3.4-3.8 6.4-3.8 6.8 0 1.2 3 .6 9.601-1.9z" fill="#ffd7eb"/><path d="M.935 149.233V-.785h300.036v300.036H.935zm136.016 66.708c0-.8-1.9-2-4.2-2.7-21.703-6.401-46.606-29.204-55.107-50.307-1.1-2.9-2.3-5.5-2.6-5.9-1.3-1.4-20.803-2.9-29.304-2.1l-8.7.8 3.6 7c14.602 28.604 39.304 47.606 68.808 53.007 9.901 1.8 27.503 1.9 27.503.2zm54.607-.2c4.9-.9 11.801-2.5 15.402-3.6 21.702-7.001 42.505-25.304 54.306-47.706l4.7-8.901-4.6-.7c-6.8-.9-15.802-.6-24.903.7l-8 1.2-5.001 9.6c-2.8 5.302-6.501 11.402-8.301 13.603-1.8 2.3-3.2 4.5-3.3 4.9-.1 1.4-14.103 13.402-20.603 17.602-5.601 3.8-13.702 7.901-21.603 11.202-2.1.9-3.6 2-3.2 2.6.9 1.5 15.002 1.2 25.103-.5zm-47.906-.5c.8 0 1.3-.6 1-1.2-.2-.7-.9-1.2-1.5-1.1-.6.2-.9-.4-.6-1.2.4-.8-.1-1.7-1-2.101-.9-.3-1.6-1.1-1.6-1.8 0-.6-1.4-2.9-3-5-1.701-2.201-3.001-4.501-3.001-5.201 0-.7-1.3-4.6-3-8.701-2.6-6.701-4.101-11.802-5.401-19.703-.3-1.4-.5-2.5-.6-2.5-.1 0-.3-4.3-.4-9.501l-.1-9.501-5.5-5.501c-6.202-6.2-11.902-10.401-20.003-14.402-3-1.5-7.601-3.9-10.201-5.2-4-2.1-15.202-6.401-16.502-6.401-.7 0 .5 20.802 1.2 22.003.4.6.9 2.6 1.1 4.5.9 7.301 7.9 25.503 10.401 27.003.5.3 1 1.2 1 2 0 1.9 5.8 10.402 8.101 11.802 1.1.7 1.9 1.6 1.9 2.1 0 1.2 7.101 8.601 8.101 8.601.4 0 2 1.2 3.6 2.8 4.601 4.301 7.102 6.101 7.702 5.501.3-.4.6-.1.6.5 0 .7.7 1.2 1.5 1.2s1.5.5 1.5 1c0 .6.3.9.8.8.4-.1 3 .9 5.7 2.3 2.801 1.401 7.402 3.401 10.202 4.401 3.7 1.3 4.9 2.2 4 2.8-.8.6-.6.7.6.3 1-.3 2.5-.6 3.401-.6zm11.601-4.6c1.5-2.101 3.6-5.501 4.501-7.402 1-1.9 2.5-4.6 3.4-6 2.6-3.8 7.901-17.703 8.201-21.403.2-1.8.6-3.8 1-4.4.9-1.5 1.5-28.904.7-29.804-.3-.3-.7-1.5-.8-2.7-.5-6.501-1.5-11.202-3.7-17.602-3.1-8.902-10.401-23.603-13.202-26.604-1.2-1.3-2.4-3-2.7-3.9-1.1-2.7-3.5-.7-8.1 6.8-6.902 11.002-13.902 27.804-15.103 36.205-.2 1.6-.7 4.7-1.1 6.9-.7 4.401-.7 22.304 0 27.004 1.1 7.801 1.7 10.301 3.7 16.402 2.801 8.501 7.702 18.502 12.302 24.903 5.4 7.4 6.6 7.6 10.901 1.6zm4 3.9c.4-.3 1.901-.8 3.401-.9 3.4-.4 19.903-8.301 26.003-12.602 2.6-1.7 9.001-7.6 14.302-12.902 7.601-7.8 10.401-11.5 13.902-18.602 5.2-10.3 5.3-10.501 8.5-20.402 2.701-8.401 3.801-15.902 4.001-26.203.1-6.701.1-6.801-2.4-6.201-1.4.3-6 2.3-10.301 4.5-4.3 2.2-8.301 4.001-8.901 4.001-1.3 0-18.503 10.601-20.503 12.602-.8.8-1.9 1.4-2.4 1.4s-.9.6-.9 1.3c0 .7-1 1.7-2.2 2.2-3.6 1.6-4.801 5.3-4.701 14.002 0 4.4-.4 10.501-1 13.501-1.5 7.401-6.1 22.103-7.701 24.003-.6.8-2.4 4-3.9 7.001-1.5 3-3.8 6.9-5.101 8.601-2.4 3.1-3.1 5.4-1.6 5.4.5 0 1.2-.3 1.5-.7z" fill="#ffefd8"/><g fill="#fff"><path d="M.935 149.233V-.785h300.036v300.036H.935zm135.516 68.008c.4-.6 1.6-.8 2.7-.4 1.6.5 2 .3 1.5-.8-.4-1.1.1-1.4 2-1 1.901.4 2.401.1 2.101-.9-.3-.8-1-1.3-1.6-1.2-.6.2-.9-.4-.6-1.2.4-.8-.1-1.7-1-2.101-.9-.3-1.6-1.1-1.6-1.8 0-.6-1.4-2.9-3-5-1.701-2.201-3.001-4.501-3.001-5.201 0-.7-1.3-4.6-3-8.701-2.6-6.701-4.101-11.802-5.401-19.703-.3-1.4-.5-2.5-.6-2.5-.1 0-.3-4.3-.4-9.501l-.1-9.501-5.5-5.501c-6.202-6.2-11.902-10.401-20.003-14.402-3-1.5-7.601-3.9-10.201-5.2-4-2.1-15.202-6.401-16.502-6.401-.7 0 .5 20.802 1.2 22.003.4.6.9 2.6 1.1 4.5.2 2 1.6 7 3 11.301 2.6 7.601 3.7 10.102 9.401 20.003.6.9 1.4 2.6 1.9 3.8.5 1.1 2.3 3.2 4.001 4.7 1.7 1.401 3.1 2.901 3.1 3.301 0 1.2 7.301 8.401 8.501 8.401.5 0 1.6.9 2.3 2.1 1.2 1.8 1.1 1.9-.5 1-7.4-4-23.102-24.402-27.803-35.904-2.2-5.4-2.5-5.8-7.1-7-3.1-.8-10.202-1.1-19.403-1-14.102.3-14.502.4-14.802 2.5-.3 2.4 5.601 14.701 8.701 18.002 1 1 2 2.4 2.2 3.1.8 2.2 9.402 11.802 16.403 18.102 3.9 3.5 10.4 8.301 14.501 10.702 9.401 5.4 24.503 10.5 32.904 10.9 3.5.2 6.601.601 6.901.901 1 1.1 17.102.6 17.702-.4zm51.306-.1c1.9.1 3.8-.2 4.4-.5.6-.4 2.801-.9 4.801-1 5.001-.5 20.803-6.101 23.903-8.501 1.3-1 2.9-1.9 3.5-1.9 1.8-.1 11.102-7.201 18.203-14.002 10.201-9.801 23.903-30.604 23.203-35.304-.3-2.2-.5-2.2-17.303-2.1-9.4.1-18.102.6-19.602 1.2-1.7.7-3.2 2.6-4.4 5.9-1.6 4.1-3.7 7.901-9.802 17.802-3.1 5.101-17.002 18.203-24.402 23.103-4.501 3-8.601 5.4-9.202 5.4-.5 0-3.2 1.1-5.9 2.501-2.8 1.4-5.4 2.5-5.8 2.5-.501 0 3.2-2.2 8.2-4.8 11.601-6.1 14.902-8.501 25.903-19.903 10.801-11 16.102-20.402 21.903-38.404 2.7-8.401 3.8-15.902 4-26.203.1-6.701.1-6.801-2.4-6.201-1.4.3-6 2.3-10.301 4.5-4.3 2.2-8.301 4.001-8.901 4.001-1.3 0-18.503 10.601-20.503 12.602-.8.8-1.9 1.4-2.4 1.4s-.9.6-.9 1.3c0 .7-1 1.7-2.2 2.2-3.6 1.6-4.801 5.3-4.701 14.002 0 4.4-.4 10.501-1 13.501-1.5 7.401-6.1 22.103-7.701 24.003-.6.8-2.4 4-3.9 7.001-1.5 3-3.8 6.9-5.101 8.601-1.3 1.7-2.4 3.6-2.4 4.2 0 1.4 1.7 1.6 2.5.2.9-1.5 3.4 0 2.8 1.8-.5 1.1-.2 1.401 1 .9.9-.3 1.9-.1 2.3.501.5.7 3.601.8 9.802.4 5-.4 10.601-.7 12.401-.7zm-32.504-6.5c1.5-2.101 3.6-5.501 4.501-7.402 1-1.9 2.5-4.6 3.4-6 2.6-3.8 7.901-17.703 8.201-21.403.2-1.8.6-3.8 1-4.4.9-1.5 1.5-28.904.7-29.804-.3-.3-.7-1.5-.8-2.7-.5-6.501-1.5-11.202-3.7-17.602-3.1-8.902-10.401-23.603-13.202-26.604-1.2-1.3-2.4-3-2.7-3.9-1.1-2.7-3.5-.7-8.1 6.8-6.902 11.002-13.902 27.804-15.103 36.205-.2 1.6-.7 4.7-1.1 6.9-.7 4.401-.7 22.304 0 27.004 1.1 7.801 1.7 10.301 3.7 16.402 2.801 8.501 7.702 18.502 12.302 24.903 5.4 7.4 6.6 7.6 10.901 1.6z"/><path d="M120.35 206.04c-.4-.7-.3-.8.4-.4 1.2.7 1.6 1.6.8 1.6-.3 0-.8-.5-1.2-1.2zm-3.101-1.5c.4-.3 1-.3 1.4 0 .3.4 0 .7-.7.7s-1-.3-.7-.7zm-6.701-3.801c-1.1-.8-1.6-1.5-1-1.5.5 0 1.8.7 2.8 1.5 1.1.8 1.6 1.5 1 1.5-.5 0-1.8-.7-2.8-1.5zm55.707 11.801c.4-.3 1-.3 1.4 0 .3.4 0 .7-.7.7s-1-.3-.7-.7z"/></g></svg>